<svg  xmlns="http://www.w3.org/2000/svg" class="icon w-24 h-24" viewbox="0 0 24 24" fill="currentColor" aria-hidden="true" id="Layer_1" data-name="Layer 1" xmlns="http://www.w3.org/2000/svg" viewBox="0 0 1000 1000"><defs><style>.cls-1{fill:#9e804a;}</style></defs><path class="cls-1" d="M669.87,403.67a2.49,2.49,0,0,1-.61-.08c-2-.54-3.09-3.56-2.48-7.2.22-3.45,2.09-6.25,4.25-6.26a2.6,2.6,0,0,1,1.93.9c1.14,1.23,1.73,3.66,1.54,6.34C673.9,401,671.92,403.67,669.87,403.67ZM671.05,392c-.86,0-2.21,1.8-2.39,4.59-.47,2.79.2,4.92,1.09,5.15.93,0,2.41-1.78,2.87-4.61.17-2.35-.4-4.14-1-4.84A.75.75,0,0,0,671.05,392Z"/><path class="cls-1" d="M668.29,409.31a2.34,2.34,0,0,1-.83-.15c-1.93-.71-2.56-3.4-1.74-7.37.64-3.26,2.73-5.82,4.77-5.82a2.77,2.77,0,0,1,2.12,1.15c1,1.33,1.23,3.74.69,6.44C672.61,406.79,670.41,409.31,668.29,409.31Zm2.24-11.45c-.87,0-2.45,1.72-2.95,4.3-.57,2.75-.35,4.9.55,5.23,1.08,0,2.77-1.62,3.32-4.21s.12-4.27-.37-4.95a.82.82,0,0,0-.55-.37Z"/><path class="cls-1" d="M666.23,414.78a2.37,2.37,0,0,1-1.07-.25c-1.84-.87-2.21-3.47-1-7.5a10,10,0,0,1,2.36-3.91,3.34,3.34,0,0,1,3.25-1.36,3.49,3.49,0,0,1,2.35,3,10.83,10.83,0,0,1-.61,4.85C670.59,412.52,668.34,414.78,666.23,414.78Zm3-11.19a2,2,0,0,0-1.4.84,8.18,8.18,0,0,0-1.93,3.16c-.91,3.15-.63,4.92.06,5.25s2.87-1.07,3.69-3.84a9,9,0,0,0,.54-4c-.16-.76-.52-1.35-.92-1.45Z"/><path class="cls-1" d="M663.72,420.06a2.49,2.49,0,0,1-1.32-.36c-2-1.21-1.65-4.71-.36-7.64,1-1.83,2.89-4.81,5.23-4.81a2.53,2.53,0,0,1,.83.13,2.88,2.88,0,0,1,1.68,1.73,7.81,7.81,0,0,1-.71,6.26C667.87,418.11,665.66,420.06,663.72,420.06Zm3.73-10.89c-1,0-2.36,1.16-3.71,3.71-1.1,2.51-1.09,4.77-.38,5.2s2.87-.94,4-3.53a6.15,6.15,0,0,0,.65-4.73,1.1,1.1,0,0,0-.53-.65Z"/><path class="cls-1" d="M660.74,425.11a2.58,2.58,0,0,1-1.49-.46c-1.76-1.24-1.64-4.63.27-7.72,1-1.63,3.09-4.34,5.34-4.34a2.63,2.63,0,0,1,1.1.24,2.76,2.76,0,0,1,1.47,1.83,8,8,0,0,1-1.2,6.21C664.62,423.48,662.52,425.11,660.74,425.11Zm4.12-10.63c-.72,0-2.12.91-3.73,3.45-1.48,2.39-1.46,4.7-.79,5.17s2.69-.63,4.29-3.23a6.1,6.1,0,0,0,1-4.66,1,1,0,0,0-.43-.65A.64.64,0,0,0,664.86,414.48Z"/><path class="cls-1" d="M657.35,429.87a2.6,2.6,0,0,1-1.63-.54c-1.72-1.38-1.34-4.68.88-7.67,1.93-3,4.88-4.62,6.74-3.6a2.69,2.69,0,0,1,1.26,1.77c.42,1.67-.18,4.05-1.57,6.22C661.27,428.43,659.11,429.87,657.35,429.87ZM662,419.62c-.92,0-2.54,1.07-3.85,3.11-1.76,2.37-1.92,4.6-1.26,5.12s2.72-.37,4.57-2.87a6.79,6.79,0,0,0,1.3-4.69.86.86,0,0,0-.35-.57A.78.78,0,0,0,662,419.62Z"/><path class="cls-1" d="M653.74,434.43a2.69,2.69,0,0,1-1.83-.65c-1.59-1.41-1.06-4.46,1.33-7.58,2.12-2.87,5.28-4.28,7.08-3.11a2.71,2.71,0,0,1,1.12,1.83c.28,1.64-.51,4-2.06,6.05S655.56,434.43,653.74,434.43Zm5-9.89c-.94,0-2.6.87-4,2.8-1.81,2.37-2.23,4.46-1.58,5a.9.9,0,0,0,.57.16c1,0,2.71-.85,4.14-2.71a7,7,0,0,0,1.69-4.59.85.85,0,0,0-.3-.58A1,1,0,0,0,658.77,424.54Z"/><path class="cls-1" d="M649.9,438.8a2.79,2.79,0,0,1-2-.75c-1.51-1.49-.84-4.44,1.71-7.52,2.47-2.78,5.66-3.95,7.28-2.69a2.78,2.78,0,0,1,1,2c.16,1.7-.79,3.92-2.47,5.8S651.69,438.8,649.9,438.8Zm5.3-9.6c-.9,0-2.6.8-4.17,2.57-1.82,2.2-2.42,4.34-1.81,4.94a1,1,0,0,0,.68.2,6.16,6.16,0,0,0,4.12-2.49,6.68,6.68,0,0,0,2-4.39.9.9,0,0,0-.31-.69A.88.88,0,0,0,655.2,429.2Z"/><path class="cls-1" d="M645.79,443a2.75,2.75,0,0,1-2.09-.85c-1.47-1.59-.55-4.88,2.08-7.5,2.88-2.74,5.83-3.62,7.37-2.29a2.81,2.81,0,0,1,.91,2.15,8,8,0,0,1-2.74,5.61C649.51,441.91,647.44,443,645.79,443Zm5.52-9.39c-1,0-2.65.92-4.21,2.4-2,2-2.56,4.26-2,4.86a.9.9,0,0,0,.7.23c1.13,0,2.78-.92,4.21-2.34a6.24,6.24,0,0,0,2.17-4.2,1,1,0,0,0-.25-.76A.88.88,0,0,0,651.31,433.61Z"/><path class="cls-1" d="M641.52,446.94a2.76,2.76,0,0,1-2.23-.93c-1.44-1.67-.37-4.84,2.46-7.36,2.61-2.52,5.93-3.44,7.46-1.95a2.75,2.75,0,0,1,.79,2c0,1.71-1.13,3.86-2.94,5.61A9.08,9.08,0,0,1,641.52,446.94Zm5.66-9.11A7,7,0,0,0,643,440c-2.23,2-2.85,4.12-2.31,4.75a1.07,1.07,0,0,0,.79.26,7.39,7.39,0,0,0,4.25-2.1,6.8,6.8,0,0,0,2.34-4.21,1,1,0,0,0-.21-.68A1,1,0,0,0,647.18,437.83Z"/><path class="cls-1" d="M637.18,450.74a3,3,0,0,1-2.43-1c-1.33-1.68-.25-4.6,2.7-7.26,2.71-2.41,6.14-3.17,7.63-1.61a2.71,2.71,0,0,1,.69,2c-.07,1.67-1.3,3.75-3.21,5.45A8.59,8.59,0,0,1,637.18,450.74Zm5.67-8.85a7.06,7.06,0,0,0-4.13,2c-2.16,1.95-3,4-2.49,4.67s2.77.46,5.07-1.62a7,7,0,0,0,2.58-4.11.83.83,0,0,0-.18-.66A1.18,1.18,0,0,0,642.85,441.89Z"/><path class="cls-1" d="M632.62,454.41a3,3,0,0,1-2.51-1.1c-1.28-1.73-.05-4.76,2.94-7.2a9.58,9.58,0,0,1,5.38-2.25,2.89,2.89,0,0,1,2.29.92,2.81,2.81,0,0,1,.62,2.19,8.36,8.36,0,0,1-3.42,5.21A9.07,9.07,0,0,1,632.62,454.41Zm5.81-8.65a7.76,7.76,0,0,0-4.2,1.83c-2.28,1.86-3.07,4-2.6,4.59a1.27,1.27,0,0,0,1,.35,7.28,7.28,0,0,0,4.12-1.83,6.64,6.64,0,0,0,2.73-3.92,1.05,1.05,0,0,0-.17-.76A1.21,1.21,0,0,0,638.43,445.76Z"/><path class="cls-1" d="M627.93,457.9a3,3,0,0,1-2.57-1.16c-1.27-1.81.1-4.87,3.19-7.11a9.52,9.52,0,0,1,5.27-2.1,2.94,2.94,0,0,1,2.4,1,2.81,2.81,0,0,1,.54,2.18,8.46,8.46,0,0,1-3.56,5.15A9.59,9.59,0,0,1,627.93,457.9Zm5.89-8.48a7.92,7.92,0,0,0-4.16,1.74c-2.39,1.73-3.22,3.82-2.75,4.5.21.3.73.34,1,.34a7.83,7.83,0,0,0,4.15-1.66,6.61,6.61,0,0,0,2.8-3.86,1.09,1.09,0,0,0-.12-.75A1.24,1.24,0,0,0,633.82,449.42Z"/><path class="cls-1" d="M623.24,461.26A3.15,3.15,0,0,1,620.5,460c-1.2-1.81.23-4.75,3.39-7a9.24,9.24,0,0,1,5.15-1.95,3.08,3.08,0,0,1,2.59,1.1,2.77,2.77,0,0,1,.47,2.12c-.24,1.64-1.66,3.59-3.72,5.08A9.29,9.29,0,0,1,623.24,461.26ZM629,453a7.5,7.5,0,0,0-4,1.6c-2.34,1.67-3.41,3.67-2.91,4.42a1.37,1.37,0,0,0,1.16.39,7.47,7.47,0,0,0,4-1.53,7,7,0,0,0,3-3.83.93.93,0,0,0-.11-.69A1.44,1.44,0,0,0,629,453Z"/><path class="cls-1" d="M618.4,464.53a3.15,3.15,0,0,1-2.82-1.32c-1.15-1.83.33-4.75,3.54-6.94a9.76,9.76,0,0,1,5.1-1.78,3.07,3.07,0,0,1,2.68,1.16,2.77,2.77,0,0,1,.41,2.19c-.31,1.65-1.79,3.53-3.87,4.9A9.46,9.46,0,0,1,618.4,464.53Zm5.82-8.15a8,8,0,0,0-4.05,1.46c-2.45,1.67-3.41,3.71-3,4.37a1.42,1.42,0,0,0,1.22.43,7.68,7.68,0,0,0,4-1.47,6.81,6.81,0,0,0,3.07-3.68.92.92,0,0,0-.1-.74A1.4,1.4,0,0,0,624.22,456.38Z"/><path class="cls-1" d="M613.46,467.63a3.17,3.17,0,0,1-2.88-1.35c-1.14-1.9.46-4.85,3.72-6.86a10.25,10.25,0,0,1,5-1.69,3.07,3.07,0,0,1,2.74,1.24,2.82,2.82,0,0,1,.34,2.22,8.39,8.39,0,0,1-4,4.81A9.94,9.94,0,0,1,613.46,467.63Zm5.87-8a8.43,8.43,0,0,0-4,1.41c-2.53,1.55-3.52,3.57-3.1,4.28s3.12.41,5.25-.92a6.61,6.61,0,0,0,3.12-3.6,1.11,1.11,0,0,0-.07-.76A1.48,1.48,0,0,0,619.33,459.62Z"/><path class="cls-1" d="M608.54,470.66a3.28,3.28,0,0,1-3-1.44c-1.09-1.89.54-4.74,3.87-6.76,3.09-1.9,6.66-2.06,7.79-.26a2.74,2.74,0,0,1,.31,2.14c-.37,1.63-1.93,3.46-4.07,4.78A9.82,9.82,0,0,1,608.54,470.66Zm5.73-7.89a8.07,8.07,0,0,0-3.9,1.3c-2.59,1.58-3.62,3.51-3.22,4.22.17.29.69.47,1.39.47a7.84,7.84,0,0,0,3.88-1.25,7,7,0,0,0,3.22-3.58,1,1,0,0,0-.06-.71A1.56,1.56,0,0,0,614.27,462.77Z"/><path class="cls-1" d="M603.48,473.58a3.3,3.3,0,0,1-3.09-1.48c-1-1.9.69-4.78,4-6.71s6.72-1.89,7.82-.09a2.82,2.82,0,0,1,.25,2.21c-.42,1.62-2,3.39-4.18,4.62A9.81,9.81,0,0,1,603.48,473.58Zm5.73-7.76a8.36,8.36,0,0,0-3.88,1.2c-2.57,1.5-3.66,3.47-3.28,4.17s3.12.55,5.27-.7a6.9,6.9,0,0,0,3.31-3.46,1,1,0,0,0,0-.75A1.63,1.63,0,0,0,609.21,465.82Z"/><path class="cls-1" d="M598.39,476.39a3.3,3.3,0,0,1-3.16-1.53c-1-2,.74-4.81,4.13-6.63s6.72-1.8,7.78,0a2.8,2.8,0,0,1,.21,2.22,8.47,8.47,0,0,1-4.26,4.55A10.31,10.31,0,0,1,598.39,476.39Zm5.73-7.65a8.67,8.67,0,0,0-3.86,1.15c-2.62,1.41-3.74,3.37-3.36,4.09s3.08.59,5.3-.59a6.71,6.71,0,0,0,3.33-3.41,1,1,0,0,0,0-.75C605.33,468.92,604.82,468.74,604.12,468.74Z"/><path class="cls-1" d="M593.3,479.13a3.44,3.44,0,0,1-3.3-1.6c-1-1.95.8-4.71,4.24-6.55,3.21-1.73,6.77-1.68,7.81.2a2.8,2.8,0,0,1,.17,2.16c-.46,1.6-2.13,3.33-4.34,4.52A10,10,0,0,1,593.3,479.13Zm5.57-7.56a8.24,8.24,0,0,0-3.73,1.08c-2.68,1.43-3.81,3.31-3.45,4s3.14.67,5.3-.48a7,7,0,0,0,3.42-3.39.94.94,0,0,0,0-.71C600.21,471.77,599.64,471.57,598.87,471.57Z"/><path class="cls-1" d="M588.08,481.79a3.43,3.43,0,0,1-3.33-1.65c-.94-1.95.92-4.75,4.34-6.5s6.81-1.55,7.81.34a2.83,2.83,0,0,1,.13,2.21c-.51,1.59-2.2,3.27-4.42,4.39A10.32,10.32,0,0,1,588.08,481.79Zm5.57-7.47a8.83,8.83,0,0,0-3.71,1c-2.65,1.36-3.84,3.28-3.49,4s3.08.72,5.3-.42a6.82,6.82,0,0,0,3.48-3.28.94.94,0,0,0,0-.74C595.05,474.52,594.46,474.32,593.65,474.32Z"/><path class="cls-1" d="M582.86,484.34c-1.69,0-2.89-.59-3.4-1.68-.94-2,1-4.77,4.44-6.43s6.81-1.47,7.79.44a2.82,2.82,0,0,1,.09,2.22,8.57,8.57,0,0,1-4.48,4.33A10.48,10.48,0,0,1,582.86,484.34ZM588.4,477a8.91,8.91,0,0,0-3.68,1c-2.68,1.29-3.9,3.19-3.55,3.93s3.05.74,5.31-.34a6.77,6.77,0,0,0,3.51-3.24,1.07,1.07,0,0,0,0-.75C589.83,477.18,589.22,477,588.4,477Z"/><path class="cls-1" d="M577.65,486.85c-1.74,0-3-.64-3.52-1.75-.91-2,1-4.68,4.53-6.35,3.3-1.59,6.84-1.37,7.79.56a2.71,2.71,0,0,1,.06,2.17c-.54,1.57-2.28,3.22-4.53,4.3A10.41,10.41,0,0,1,577.65,486.85Zm5.38-7.31a8.53,8.53,0,0,0-3.56.91c-2.74,1.3-4,3.13-3.62,3.87s3.08.81,5.31-.24a6.93,6.93,0,0,0,3.57-3.22,1,1,0,0,0,0-.72C584.57,479.77,583.91,479.54,583,479.54Z"/><path class="cls-1" d="M572.34,489.28c-1.77,0-3.08-.66-3.57-1.8-.87-2,1.11-4.7,4.61-6.31a10.87,10.87,0,0,1,4.3-1c1.73,0,3,.6,3.49,1.69a2.84,2.84,0,0,1,0,2.22,8.62,8.62,0,0,1-4.61,4.19A10.59,10.59,0,0,1,572.34,489.28Zm5.34-7.24a9,9,0,0,0-3.52.85c-2.71,1.25-4,3.1-3.66,3.84s3,.84,5.31-.19a6.89,6.89,0,0,0,3.62-3.13,1,1,0,0,0,0-.75C579.28,482.28,578.59,482,577.68,482Z"/><path class="cls-1" d="M567,491.62c-1.81,0-3.13-.67-3.62-1.82-.86-2.05,1.16-4.73,4.7-6.26a11.17,11.17,0,0,1,4.24-1c1.76,0,3,.62,3.53,1.75a2.78,2.78,0,0,1,0,2.21,8.54,8.54,0,0,1-4.65,4.14A11,11,0,0,1,567,491.62Zm5.32-7.16a9,9,0,0,0-3.49.82c-2.74,1.18-4,3-3.71,3.79s3,.86,5.32-.14a6.75,6.75,0,0,0,3.64-3.08,1,1,0,0,0,0-.74C574,484.71,573.25,484.46,572.32,484.46Z"/><path class="cls-1" d="M561.68,493.9c-1.88,0-3.24-.68-3.72-1.87-.83-2,1.22-4.69,4.78-6.19a10.86,10.86,0,0,1,4.13-.92c1.8,0,3.13.66,3.63,1.8a2.76,2.76,0,0,1,0,2.18c-.6,1.55-2.4,3.12-4.69,4.11A10.77,10.77,0,0,1,561.68,493.9Zm5.19-7.09a9,9,0,0,0-3.39.77c-2.76,1.16-4.08,3-3.77,3.73s3,.93,5.32,0a6.91,6.91,0,0,0,3.68-3.06,1,1,0,0,0,.06-.73C568.59,487.07,567.84,486.81,566.87,486.81Z"/><path class="cls-1" d="M556.31,496.14c-1.93,0-3.31-.7-3.79-1.92-.81-2.05,1.22-4.63,4.83-6.14,3.41-1.4,6.93-1,7.77,1a2.79,2.79,0,0,1,0,2.19c-.63,1.53-2.45,3.07-4.76,4A10.47,10.47,0,0,1,556.31,496.14Zm5.08-7a9,9,0,0,0-3.31.72c-2.8,1.18-4.1,2.94-3.81,3.7s3,1,5.32,0a6.9,6.9,0,0,0,3.73-3,1,1,0,0,0,.06-.73C563.2,489.37,562.42,489.1,561.39,489.1Z"/><path class="cls-1" d="M550.87,498.3c-2,0-3.35-.72-3.82-2-.78-2.06,1.33-4.68,4.91-6.09s6.94-.91,7.75,1.06a2.83,2.83,0,0,1-.1,2.22,8.48,8.48,0,0,1-4.79,4A10.75,10.75,0,0,1,550.87,498.3Zm5.09-7a9.57,9.57,0,0,0-3.31.69c-2.77,1.09-4.12,2.89-3.83,3.65s3,1,5.31.07a6.83,6.83,0,0,0,3.75-2.94A1,1,0,0,0,558,492C557.78,491.6,557,491.32,556,491.32Z"/><path class="cls-1" d="M545.46,500.4c-2,0-3.43-.73-3.9-2-.77-2.07,1.38-4.67,5-6a11.09,11.09,0,0,1,3.9-.78c1.94,0,3.34.7,3.82,1.93a2.78,2.78,0,0,1-.1,2.18c-.67,1.54-2.53,3-4.84,3.93A11.14,11.14,0,0,1,545.46,500.4Zm5-6.92a9.38,9.38,0,0,0-3.23.65c-2.8,1.06-4.17,2.85-3.88,3.62s2.95,1,5.32.12a7,7,0,0,0,3.78-2.92,1.08,1.08,0,0,0,.08-.73C552.34,493.77,551.52,493.48,550.45,493.48Z"/><path class="cls-1" d="M540,502.44c-2.06,0-3.52-.74-4-2-.74-2.07,1.43-4.64,5.05-6a10.82,10.82,0,0,1,3.8-.75c2,0,3.43.72,3.92,2a2.8,2.8,0,0,1-.13,2.17c-.68,1.52-2.55,3-4.88,3.89A11.17,11.17,0,0,1,540,502.44Zm4.87-6.87a9,9,0,0,0-3.14.63c-2.81,1-4.2,2.8-3.93,3.56.14.4.88.79,2.2.79a9.29,9.29,0,0,0,3.12-.6,6.88,6.88,0,0,0,3.81-2.89,1,1,0,0,0,.09-.72C546.87,495.87,546,495.57,544.9,495.57Z"/><path class="cls-1" d="M534.58,504.44c-2.09,0-3.61-.79-4.06-2.1-.73-2.09,1.42-4.58,5.1-5.92a11.22,11.22,0,0,1,3.72-.69c2.06,0,3.51.73,4,2a2.77,2.77,0,0,1-.15,2.17c-.69,1.5-2.59,3-4.93,3.82A11,11,0,0,1,534.58,504.44Zm4.76-6.83a9.2,9.2,0,0,0-3.07.59c-2.85,1-4.23,2.75-4,3.53.15.4.9.81,2.28.81a9.18,9.18,0,0,0,3-.57,6.93,6.93,0,0,0,3.86-2.84,1,1,0,0,0,.09-.72C541.42,498,540.67,497.61,539.34,497.61Z"/><path class="cls-1" d="M529.09,506.36c-2.14,0-3.68-.79-4.13-2.13-.7-2.09,1.48-4.57,5.17-5.87a11.39,11.39,0,0,1,3.66-.66c2.09,0,3.57.75,4,2.06a2.85,2.85,0,0,1-.18,2.2,8.65,8.65,0,0,1-5,3.75A11.09,11.09,0,0,1,529.09,506.36Zm4.7-6.76a9.55,9.55,0,0,0-3,.55c-2.85,1-4.25,2.71-4,3.49.13.4.92.83,2.33.83a9,9,0,0,0,3-.55,6.93,6.93,0,0,0,3.89-2.78,1,1,0,0,0,.1-.74C535.88,499.92,535,499.6,533.79,499.6Z"/><path class="cls-1" d="M523.58,508.24c-2.18,0-3.75-.82-4.18-2.18-.68-2.07,1.57-4.57,5.22-5.81a11.42,11.42,0,0,1,3.57-.62c2.15,0,3.65.76,4.11,2.09a2.82,2.82,0,0,1-.2,2.2,8.63,8.63,0,0,1-5,3.7A11.17,11.17,0,0,1,523.58,508.24Zm4.61-6.72a9.63,9.63,0,0,0-3,.52c-2.86,1-4.28,2.66-4,3.44.14.42.95.86,2.39.86a9.17,9.17,0,0,0,2.92-.51,6.81,6.81,0,0,0,3.9-2.75,1,1,0,0,0,.12-.73C530.34,501.85,529.41,501.52,528.19,501.52Z"/><path class="cls-1" d="M518.06,510.05c-2.23,0-3.82-.83-4.26-2.22-.65-2.12,1.57-4.54,5.29-5.76a11.64,11.64,0,0,1,3.49-.58c2.2,0,3.72.78,4.18,2.14a2.8,2.8,0,0,1-.23,2.19c-.75,1.49-2.69,2.89-5,3.65A11.07,11.07,0,0,1,518.06,510.05Zm4.52-6.67a9.7,9.7,0,0,0-2.91.49c-2.87.95-4.3,2.62-4.06,3.4.13.43,1,.89,2.45.89a9.12,9.12,0,0,0,2.84-.49,6.79,6.79,0,0,0,3.94-2.7,1,1,0,0,0,.13-.73C524.82,503.81,524,503.38,522.58,503.38Z"/><path class="cls-1" d="M512.52,511.8c-2.29,0-3.91-.85-4.33-2.28-.62-2.1,1.69-4.55,5.36-5.68a11.52,11.52,0,0,1,3.38-.55c2.23,0,3.82.82,4.26,2.19a2.82,2.82,0,0,1-.24,2.18c-.77,1.48-2.72,2.86-5.09,3.6A11.47,11.47,0,0,1,512.52,511.8Zm4.41-6.62a9.76,9.76,0,0,0-2.82.46c-2.85.88-4.34,2.58-4.11,3.35.13.44,1,.92,2.52.92a9.37,9.37,0,0,0,2.78-.45,6.8,6.8,0,0,0,4-2.67,1,1,0,0,0,.14-.73C519.23,505.54,518.22,505.18,516.93,505.18Z"/><path class="cls-1" d="M507,513.48c-2.38,0-4-.88-4.44-2.35-.57-2.13,1.71-4.48,5.44-5.6a11.61,11.61,0,0,1,3.27-.5c2.28,0,3.91.83,4.35,2.24a2.77,2.77,0,0,1-.27,2.17,8.72,8.72,0,0,1-5.13,3.55A11.56,11.56,0,0,1,507,513.48Zm4.27-6.56a9.6,9.6,0,0,0-2.73.42c-2.89.87-4.37,2.51-4.15,3.3.12.47,1.06.95,2.61.95a9.48,9.48,0,0,0,2.67-.41,6.9,6.9,0,0,0,4-2.63.91.91,0,0,0,.13-.72C513.67,507.39,512.81,506.92,511.26,506.92Z"/><path class="cls-1" d="M498.62,513.48a11.17,11.17,0,0,1-3.22-.5c-2.38-.71-4.35-2.07-5.13-3.54a2.77,2.77,0,0,1-.27-2.17c.44-1.41,2.06-2.24,4.35-2.24a11.66,11.66,0,0,1,3.27.5c3.72,1.12,6,3.47,5.44,5.6C502.66,512.6,501,513.48,498.62,513.48Zm-4.27-6.56c-1.55,0-2.41.47-2.55.91a1,1,0,0,0,.14.72,6.85,6.85,0,0,0,4,2.62,9.22,9.22,0,0,0,2.68.42c1.54,0,2.48-.48,2.61-.95.22-.79-1.26-2.43-4.15-3.3A9.65,9.65,0,0,0,494.35,506.92Z"/><path class="cls-1" d="M493.08,511.8a11.47,11.47,0,0,1-3.34-.54,8.65,8.65,0,0,1-5.08-3.6,2.79,2.79,0,0,1-.24-2.18c.44-1.37,2-2.19,4.25-2.19a11.42,11.42,0,0,1,3.38.55c3.68,1.14,6,3.59,5.36,5.68C497,511,495.38,511.8,493.08,511.8Zm-4.41-6.62c-1.28,0-2.29.36-2.46.88a1,1,0,0,0,.13.73,6.84,6.84,0,0,0,4,2.67,9.37,9.37,0,0,0,2.78.45c1.55,0,2.39-.48,2.52-.92.23-.77-1.26-2.46-4.11-3.35A9.65,9.65,0,0,0,488.67,505.18Z"/><path class="cls-1" d="M487.54,510.05a11.12,11.12,0,0,1-3.43-.58c-2.35-.76-4.28-2.15-5-3.65a2.85,2.85,0,0,1-.24-2.19c.47-1.36,2-2.14,4.19-2.14a11.52,11.52,0,0,1,3.47.58c3.73,1.22,5.95,3.64,5.3,5.76C491.37,509.22,489.78,510.05,487.54,510.05ZM483,503.38c-1.26,0-2.22.34-2.39.86a1,1,0,0,0,.12.73,6.83,6.83,0,0,0,3.93,2.7,9.33,9.33,0,0,0,2.85.49c1.5,0,2.32-.46,2.46-.89.24-.78-1.2-2.45-4.08-3.4A9.58,9.58,0,0,0,483,503.38Z"/><path class="cls-1" d="M482,508.24a11.26,11.26,0,0,1-3.52-.62,8.62,8.62,0,0,1-5-3.7,2.86,2.86,0,0,1-.2-2.2c.47-1.33,2-2.09,4.11-2.09a11.59,11.59,0,0,1,3.57.61c3.71,1.27,5.91,3.71,5.23,5.82C485.78,507.42,484.21,508.24,482,508.24Zm-4.61-6.72c-1.22,0-2.15.33-2.33.83a1,1,0,0,0,.12.73,6.89,6.89,0,0,0,3.9,2.75,9.22,9.22,0,0,0,2.92.51c1.45,0,2.26-.44,2.4-.86.24-.78-1.17-2.47-4-3.45A9.86,9.86,0,0,0,477.41,501.52Z"/><path class="cls-1" d="M476.52,506.36a11.25,11.25,0,0,1-3.61-.65c-2.33-.81-4.24-2.25-5-3.76a2.78,2.78,0,0,1-.17-2.19c.47-1.31,1.94-2.06,4-2.06a11.33,11.33,0,0,1,3.65.66c3.7,1.31,5.87,3.78,5.17,5.87C480.19,505.57,478.65,506.36,476.52,506.36Zm-4.7-6.76c-1.18,0-2.09.32-2.27.8a1,1,0,0,0,.11.74,6.86,6.86,0,0,0,3.88,2.78,9.11,9.11,0,0,0,3,.55c1.41,0,2.19-.43,2.32-.83.27-.78-1.13-2.48-4-3.49A9.45,9.45,0,0,0,471.82,499.6Z"/><path class="cls-1" d="M471,504.44a11,11,0,0,1-3.68-.7c-2.35-.85-4.24-2.31-4.93-3.82a2.79,2.79,0,0,1-.15-2.18c.48-1.28,1.94-2,4-2a11.31,11.31,0,0,1,3.72.69c3.68,1.35,5.82,3.84,5.09,5.93C474.64,503.65,473.12,504.44,471,504.44Zm-4.76-6.83c-1.33,0-2.08.4-2.22.79a.9.9,0,0,0,.09.73A6.89,6.89,0,0,0,468,502a9.14,9.14,0,0,0,3,.57c1.37,0,2.14-.42,2.27-.81.27-.78-1.11-2.49-4-3.53A9.2,9.2,0,0,0,466.27,497.61Z"/><path class="cls-1" d="M465.57,502.44a11.11,11.11,0,0,1-3.77-.72c-2.34-.88-4.21-2.37-4.89-3.89a2.8,2.8,0,0,1-.12-2.17c.48-1.26,1.91-2,3.91-2a10.92,10.92,0,0,1,3.81.75c3.62,1.33,5.79,3.9,5,6C469.09,501.7,467.64,502.44,465.57,502.44Zm-4.87-6.87c-1.11,0-2,.31-2.15.77a1,1,0,0,0,.09.72,6.9,6.9,0,0,0,3.83,2.89c2.31.85,5,.68,5.31-.19s-1.12-2.53-3.93-3.56A9.1,9.1,0,0,0,460.7,495.57Z"/><path class="cls-1" d="M460.15,500.4a11.14,11.14,0,0,1-3.87-.77c-2.31-.89-4.17-2.39-4.84-3.93a2.78,2.78,0,0,1-.11-2.18c.79-2,4.28-2.48,7.73-1.15,3.61,1.36,5.74,4,5,6C463.58,499.67,462.16,500.4,460.15,500.4Zm-5-6.92c-1.08,0-1.89.29-2.07.74a1,1,0,0,0,.08.73,6.87,6.87,0,0,0,3.79,2.92c2.34.88,5,.74,5.31-.12s-1.09-2.56-3.88-3.62A9.42,9.42,0,0,0,455.16,493.48Z"/><path class="cls-1" d="M454.73,498.3a10.84,10.84,0,0,1-4-.82,8.47,8.47,0,0,1-4.78-4,2.76,2.76,0,0,1-.09-2.21c.81-2,4.26-2.41,7.74-1.06s5.7,4,4.91,6.09C458.08,497.58,456.68,498.3,454.73,498.3Zm-5.08-7c-1,0-1.83.28-2,.71a1,1,0,0,0,.07.75,6.83,6.83,0,0,0,3.74,2.94c2.36.93,5,.81,5.33-.06s-1.07-2.56-3.85-3.65A9.42,9.42,0,0,0,449.65,491.32Z"/><path class="cls-1" d="M449.3,496.14a10.52,10.52,0,0,1-4-.87c-2.3-.95-4.13-2.49-4.75-4a2.79,2.79,0,0,1-.06-2.19c.85-2,4.36-2.38,7.77-1,3.61,1.5,5.64,4.09,4.84,6.13C452.61,495.44,451.23,496.14,449.3,496.14Zm-5.08-7c-1,0-1.82.28-2,.7a1,1,0,0,0,.06.73,7,7,0,0,0,3.73,3c2.28.94,5,.85,5.32,0s-1-2.53-3.81-3.7A9,9,0,0,0,444.22,489.1Z"/><path class="cls-1" d="M443.93,493.9a10.61,10.61,0,0,1-4.09-.89c-2.3-1-4.11-2.57-4.71-4.11a2.84,2.84,0,0,1,0-2.18c.51-1.15,1.83-1.8,3.64-1.8a10.77,10.77,0,0,1,4.13.93c3.54,1.49,5.6,4.15,4.78,6.18C447.16,493.22,445.8,493.9,443.93,493.9Zm-5.19-7.09c-1,0-1.72.27-1.9.67a.88.88,0,0,0,.05.72,6.91,6.91,0,0,0,3.69,3.07c2.29,1,5,.89,5.32,0s-1-2.57-3.76-3.72A9,9,0,0,0,438.74,486.81Z"/><path class="cls-1" d="M438.61,491.62a10.91,10.91,0,0,1-4.19-.95,8.5,8.5,0,0,1-4.65-4.14,2.78,2.78,0,0,1,0-2.21c.52-1.13,1.77-1.75,3.53-1.75a11.12,11.12,0,0,1,4.23,1c3.54,1.53,5.56,4.22,4.7,6.26C441.74,491,440.42,491.62,438.61,491.62Zm-5.32-7.16c-.94,0-1.63.25-1.81.65a1,1,0,0,0,0,.75,6.8,6.8,0,0,0,3.63,3.07c2.29,1,5,1,5.32.14s-1-2.61-3.7-3.79A9.12,9.12,0,0,0,433.29,484.46Z"/><path class="cls-1" d="M433.27,489.28a10.58,10.58,0,0,1-4.27-1c-2.25-1-4-2.62-4.59-4.19a2.77,2.77,0,0,1,0-2.21c.52-1.09,1.76-1.69,3.49-1.69a10.87,10.87,0,0,1,4.29,1c3.5,1.61,5.48,4.32,4.62,6.31C436.34,488.62,435,489.28,433.27,489.28ZM427.93,482c-.92,0-1.6.24-1.79.62a1,1,0,0,0,0,.75,6.77,6.77,0,0,0,3.61,3.12c2.28,1.05,4.95,1.05,5.31.2s-1-2.59-3.66-3.84A9,9,0,0,0,427.93,482Z"/><path class="cls-1" d="M428,486.85a10.37,10.37,0,0,1-4.33-1.07c-2.26-1.08-4-2.73-4.54-4.3a2.8,2.8,0,0,1,.06-2.17c1-1.93,4.49-2.16,7.8-.56,3.53,1.66,5.43,4.33,4.53,6.35C431,486.21,429.7,486.85,428,486.85Zm-5.38-7.31c-.89,0-1.55.23-1.73.6a1,1,0,0,0,0,.72,7,7,0,0,0,3.58,3.22c2.22,1.05,4.93,1.07,5.31.24s-.88-2.57-3.62-3.87A8.57,8.57,0,0,0,422.58,479.54Z"/><path class="cls-1" d="M422.75,484.34a10.55,10.55,0,0,1-4.45-1.12,8.51,8.51,0,0,1-4.47-4.33,2.82,2.82,0,0,1,.09-2.22c1-1.91,4.42-2.06,7.78-.44s5.38,4.43,4.45,6.43C425.64,483.75,424.43,484.34,422.75,484.34ZM417.2,477c-.82,0-1.42.21-1.6.56a1.07,1.07,0,0,0,0,.75,6.7,6.7,0,0,0,3.5,3.24c2.27,1.08,4.93,1.15,5.31.34s-.86-2.64-3.55-3.93A8.84,8.84,0,0,0,417.2,477Z"/><path class="cls-1" d="M417.52,481.79a10.21,10.21,0,0,1-4.53-1.22,8.5,8.5,0,0,1-4.41-4.38,2.84,2.84,0,0,1,.12-2.21c1-1.89,4.52-2,7.81-.35s5.29,4.56,4.34,6.51C420.34,481.2,419.16,481.79,417.52,481.79ZM412,474.32c-.81,0-1.4.2-1.59.55a1,1,0,0,0,0,.75,6.78,6.78,0,0,0,3.46,3.26c2.24,1.15,4.91,1.26,5.31.43s-.84-2.63-3.49-4A8.83,8.83,0,0,0,412,474.32Z"/><path class="cls-1" d="M412.3,479.13a10,10,0,0,1-4.58-1.27c-2.21-1.2-3.87-2.93-4.34-4.52a2.8,2.8,0,0,1,.17-2.16c1.05-1.87,4.59-1.94,7.82-.19,3.43,1.84,5.22,4.59,4.23,6.54A3.43,3.43,0,0,1,412.3,479.13Zm-5.57-7.56c-.77,0-1.34.2-1.52.53a.9.9,0,0,0,0,.71,6.91,6.91,0,0,0,3.42,3.39c2.16,1.15,4.88,1.29,5.3.48s-.78-2.6-3.45-4A8.21,8.21,0,0,0,406.73,471.57Z"/><path class="cls-1" d="M407.22,476.39a10.38,10.38,0,0,1-4.71-1.34,8.45,8.45,0,0,1-4.25-4.55,2.8,2.8,0,0,1,.2-2.22c1.07-1.85,4.49-1.84,7.79,0s5.15,4.67,4.13,6.63A3.32,3.32,0,0,1,407.22,476.39Zm-5.73-7.65a1.64,1.64,0,0,0-1.4.48,1,1,0,0,0,0,.76,6.67,6.67,0,0,0,3.33,3.41c2.2,1.18,4.88,1.39,5.29.59s-.73-2.68-3.35-4.09A8.74,8.74,0,0,0,401.49,468.74Z"/><path class="cls-1" d="M402.12,473.58a9.79,9.79,0,0,1-4.79-1.46,8.57,8.57,0,0,1-4.18-4.61,2.84,2.84,0,0,1,.25-2.2c1.12-1.82,4.64-1.73,7.81.07s5,4.82,4,6.71A3.28,3.28,0,0,1,402.12,473.58Zm-5.73-7.76a1.66,1.66,0,0,0-1.37.46,1,1,0,0,0,0,.75,6.86,6.86,0,0,0,3.3,3.46c2.16,1.26,4.82,1.52,5.27.69s-.71-2.66-3.28-4.16A8.32,8.32,0,0,0,396.39,465.82Z"/><path class="cls-1" d="M397.06,470.66a9.75,9.75,0,0,1-4.86-1.54c-2.14-1.32-3.7-3.15-4.07-4.77a2.76,2.76,0,0,1,.3-2.15c1.16-1.8,4.71-1.64,7.8.26,3.32,2,4.95,4.87,3.87,6.76A3.29,3.29,0,0,1,397.06,470.66Zm-5.72-7.89a1.58,1.58,0,0,0-1.32.45,1,1,0,0,0,0,.71,7,7,0,0,0,3.22,3.58,7.8,7.8,0,0,0,3.87,1.25,1.66,1.66,0,0,0,1.4-.47c.4-.7-.64-2.64-3.22-4.22A8.07,8.07,0,0,0,391.34,462.77Z"/><path class="cls-1" d="M392.14,467.63a10,10,0,0,1-5-1.63,8.43,8.43,0,0,1-4-4.81,2.83,2.83,0,0,1,.35-2.22,3.06,3.06,0,0,1,2.73-1.24,10.22,10.22,0,0,1,5,1.69c3.26,2,4.86,5,3.72,6.86A3.15,3.15,0,0,1,392.14,467.63Zm-5.87-8c-.33,0-.93.06-1.16.41a1,1,0,0,0-.07.76,6.64,6.64,0,0,0,3.1,3.6c2.14,1.33,4.81,1.68,5.26.92s-.57-2.73-3.1-4.28A8.4,8.4,0,0,0,386.27,459.62Z"/><path class="cls-1" d="M387.2,464.53a9.45,9.45,0,0,1-5.05-1.8,8.53,8.53,0,0,1-3.86-4.89,2.82,2.82,0,0,1,.42-2.19,3,3,0,0,1,2.67-1.16,9.74,9.74,0,0,1,5.09,1.77c3.22,2.2,4.71,5.12,3.56,6.95A3.18,3.18,0,0,1,387.2,464.53Zm-5.82-8.15a1.41,1.41,0,0,0-1.14.37,1,1,0,0,0-.09.74,6.79,6.79,0,0,0,3.05,3.67,7.67,7.67,0,0,0,4,1.48,1.44,1.44,0,0,0,1.23-.43c.42-.68-.52-2.68-3-4.38A7.94,7.94,0,0,0,381.38,456.38Z"/><path class="cls-1" d="M382.36,461.26a9.35,9.35,0,0,1-5.13-1.88c-2.05-1.5-3.48-3.45-3.72-5.09a2.74,2.74,0,0,1,.47-2.11,3,3,0,0,1,2.59-1.11,9.23,9.23,0,0,1,5.16,2c3.15,2.25,4.57,5.19,3.38,7A3.16,3.16,0,0,1,382.36,461.26Zm-5.79-8.3a1.42,1.42,0,0,0-1.08.36.88.88,0,0,0-.11.69,6.88,6.88,0,0,0,2.95,3.83,7.47,7.47,0,0,0,4,1.53,1.43,1.43,0,0,0,1.18-.39c.49-.75-.58-2.75-2.92-4.42A7.53,7.53,0,0,0,376.57,453Z"/><path class="cls-1" d="M377.67,457.9a9.56,9.56,0,0,1-5.26-2,8.4,8.4,0,0,1-3.56-5.14,2.78,2.78,0,0,1,.53-2.19,3,3,0,0,1,2.41-1,9.55,9.55,0,0,1,5.27,2.1c3.08,2.24,4.45,5.3,3.19,7.11A3,3,0,0,1,377.67,457.9Zm-5.88-8.48a1.23,1.23,0,0,0-.94.31,1.06,1.06,0,0,0-.13.76,6.61,6.61,0,0,0,2.8,3.85,7.83,7.83,0,0,0,4.15,1.66c.3,0,.82,0,1-.34.47-.68-.37-2.77-2.75-4.5A8,8,0,0,0,371.79,449.42Z"/><path class="cls-1" d="M373,454.41a9.1,9.1,0,0,1-5.32-2.24c-1.93-1.51-3.25-3.51-3.41-5.2a2.81,2.81,0,0,1,.63-2.19,2.87,2.87,0,0,1,2.28-.92,9.62,9.62,0,0,1,5.37,2.23c3,2.46,4.24,5.49,2.95,7.22A3,3,0,0,1,373,454.41Zm-5.82-8.65a1.19,1.19,0,0,0-.86.26,1.06,1.06,0,0,0-.17.77,6.6,6.6,0,0,0,2.71,3.9,7.31,7.31,0,0,0,4.14,1.84,1.28,1.28,0,0,0,1-.35c.46-.62-.32-2.73-2.62-4.6A7.73,7.73,0,0,0,367.17,445.76Z"/><path class="cls-1" d="M368.43,450.74a8.63,8.63,0,0,1-5.39-2.4c-1.9-1.7-3.14-3.79-3.21-5.45a2.71,2.71,0,0,1,.7-2c1.47-1.56,4.91-.8,7.62,1.61,3,2.66,4,5.58,2.7,7.26A3,3,0,0,1,368.43,450.74Zm-5.68-8.85a1.21,1.21,0,0,0-.85.27.86.86,0,0,0-.18.65,7,7,0,0,0,2.59,4.12c2.3,2.08,4.58,2.22,5.06,1.62s-.32-2.72-2.48-4.67A7.08,7.08,0,0,0,362.75,441.89Z"/><path class="cls-1" d="M364.09,446.94a9,9,0,0,1-5.51-2.57c-1.85-1.78-3-3.93-3-5.64a2.71,2.71,0,0,1,.79-2c1.53-1.49,4.83-.58,7.48,2,2.81,2.5,3.87,5.66,2.44,7.34A2.82,2.82,0,0,1,364.09,446.94Zm-5.66-9.11a.8.8,0,0,0-.94.91,6.83,6.83,0,0,0,2.37,4.23,7.32,7.32,0,0,0,4.23,2.08,1.07,1.07,0,0,0,.79-.26c.53-.62-.09-2.78-2.28-4.73A7.08,7.08,0,0,0,358.43,437.83Z"/><path class="cls-1" d="M359.82,443c-1.66,0-3.73-1.09-5.54-2.9a8,8,0,0,1-2.74-5.59,2.81,2.81,0,0,1,.91-2.15c1.53-1.33,4.49-.44,7.36,2.27,2.64,2.64,3.56,5.93,2.1,7.52A2.76,2.76,0,0,1,359.82,443Zm-5.53-9.39a.89.89,0,0,0-.61.19,1.05,1.05,0,0,0-.25.76,6.25,6.25,0,0,0,2.17,4.19c1.44,1.43,3.08,2.35,4.22,2.35a.91.91,0,0,0,.7-.23c.54-.59,0-2.85-2-4.88C356.94,434.53,355.33,433.61,354.29,433.61Z"/><path class="cls-1" d="M355.7,438.8c-1.78,0-4-1.24-5.57-3.17s-2.6-4.08-2.44-5.77a2.77,2.77,0,0,1,1-2c1.63-1.26,4.83-.06,7.26,2.66,2.57,3.11,3.24,6.06,1.74,7.55A2.81,2.81,0,0,1,355.7,438.8Zm-5.3-9.6a.88.88,0,0,0-.53.14.93.93,0,0,0-.3.69,6.62,6.62,0,0,0,2,4.36,6.2,6.2,0,0,0,4.14,2.52,1,1,0,0,0,.69-.2c.6-.6,0-2.74-1.84-5C353,430,351.31,429.2,350.4,429.2Z"/><path class="cls-1" d="M351.87,434.43c-1.82,0-4-1.36-5.64-3.45s-2.35-4.43-2.06-6.07a2.64,2.64,0,0,1,1.11-1.82c1.79-1.19,5,.23,7.09,3.13,2.38,3.09,2.92,6.14,1.33,7.56A2.71,2.71,0,0,1,351.87,434.43Zm-5-9.89a.88.88,0,0,0-.51.13.78.78,0,0,0-.3.57c-.16.92.31,2.71,1.71,4.6a6.18,6.18,0,0,0,4.13,2.7.9.9,0,0,0,.57-.16c.65-.59.23-2.67-1.57-5C349.43,425.41,347.78,424.54,346.84,424.54Z"/><path class="cls-1" d="M348.25,429.87c-1.73,0-3.95-1.48-5.63-3.77-1.43-2.22-2-4.6-1.62-6.27a2.71,2.71,0,0,1,1.27-1.77c1.83-1,4.8.57,6.76,3.65,2.19,3,2.58,6.24.86,7.62A2.61,2.61,0,0,1,348.25,429.87Zm-4.66-10.25a.72.72,0,0,0-.4.1.87.87,0,0,0-.36.57,6.9,6.9,0,0,0,1.34,4.74c1.71,2.32,3.92,3.35,4.53,2.83s.5-2.76-1.22-5.08C346.14,420.69,344.52,419.62,343.59,419.62Z"/><path class="cls-1" d="M344.86,425.11c-1.77,0-3.87-1.63-5.49-4.25a8.06,8.06,0,0,1-1.2-6.2,2.82,2.82,0,0,1,1.49-1.84,2.66,2.66,0,0,1,1.09-.23c2.25,0,4.3,2.71,5.33,4.33,1.92,3.09,2,6.49.27,7.73A2.55,2.55,0,0,1,344.86,425.11Zm-4.11-10.63a.68.68,0,0,0-.32.07,1.05,1.05,0,0,0-.45.67,6.11,6.11,0,0,0,1,4.64c1.6,2.6,3.54,3.79,4.28,3.24s.7-2.78-.79-5.18S341.46,414.48,340.75,414.48Z"/><path class="cls-1" d="M341.88,420.06c-1.94,0-4.15-1.95-5.38-4.74a7.78,7.78,0,0,1-.68-6.21,2.88,2.88,0,0,1,1.68-1.73,2.57,2.57,0,0,1,.83-.13c2.34,0,4.27,3,5.21,4.75,1.31,3,1.7,6.5-.33,7.7A2.53,2.53,0,0,1,341.88,420.06Zm-3.55-10.93a1,1,0,0,0-.76.69,6.09,6.09,0,0,0,.64,4.68c1.17,2.65,3.21,4,4,3.58s.73-2.69-.4-5.26C340.5,410.29,339.1,409.13,338.33,409.13Z"/><path class="cls-1" d="M339.38,414.78c-2.11,0-4.37-2.26-5.26-5.24a10.8,10.8,0,0,1-.6-4.76,3.54,3.54,0,0,1,2.35-3c1.12-.27,2.24.22,3.31,1.41a10.2,10.2,0,0,1,2.29,3.81c1.18,4.07.82,6.67-1,7.56A2.54,2.54,0,0,1,339.38,414.78Zm-2.93-11.2c-.46.1-.88.59-1.07,1.52a9.11,9.11,0,0,0,.54,3.86c.76,2.54,2.53,3.93,3.46,3.93.93-.38,1.22-2.15.29-5.34a8,8,0,0,0-1.86-3.07C337.27,403.88,336.81,403.58,336.45,403.58Z"/><path class="cls-1" d="M337.31,409.31c-2.12,0-4.31-2.52-5-5.74-.54-2.71-.29-5.12.69-6.45a2.62,2.62,0,0,1,1.86-1.13c2.29,0,4.38,2.54,5,5.81.82,4,.19,6.65-1.75,7.36A2.21,2.21,0,0,1,337.31,409.31Zm-2.19-11.45a.81.81,0,0,0-.6.37c-.48.67-.88,2.38-.36,5,.59,2.75,2.59,4.45,3.3,4.2.91-.33,1.14-2.47.57-5.22S336,397.86,335.12,397.86Z"/><path class="cls-1" d="M335.73,403.67c-2,0-4-2.67-4.61-6.21-.21-2.77.38-5.2,1.53-6.43a2.57,2.57,0,0,1,1.9-.9c2.18,0,4.05,2.81,4.29,6.36.6,3.6-.42,6.56-2.51,7.1A2.35,2.35,0,0,1,335.73,403.67ZM334.56,392a.75.75,0,0,0-.53.3c-.64.69-1.22,2.48-1,4.92.48,2.88,2.06,4.74,2.86,4.52s1.56-2.36,1.11-5.06c-.2-2.88-1.55-4.67-2.4-4.68Z"/><path class="cls-1" d="M507.53,529.64h-9.45a2.25,2.25,0,1,1,0-4.49h9.45a2.25,2.25,0,1,1,0,4.49Z"/><path class="cls-1" d="M506.59,663.63H499a26.08,26.08,0,0,1-26-26v-49a26.08,26.08,0,0,1,26-26h7.57a26.08,26.08,0,0,1,26.05,26v49A26.08,26.08,0,0,1,506.59,663.63ZM499,567.07a21.55,21.55,0,0,0-21.54,21.54v49A21.55,21.55,0,0,0,499,659.13h7.57a21.56,21.56,0,0,0,21.54-21.54v-49a21.56,21.56,0,0,0-21.54-21.54Z"/><path class="cls-1" d="M507.53,567.07h-9.45a2.26,2.26,0,0,1-2.26-2.25V527.39l1.7-16.76a2.26,2.26,0,0,1,2.24-2h6.09a2.26,2.26,0,0,1,2.24,2l1.68,16.54v37.65A2.25,2.25,0,0,1,507.53,567.07Zm-7.21-4.5h5V527.39l-1.46-14.29h-2l-1.48,14.52Z"/><path class="cls-1" d="M502.8,657a20.63,20.63,0,0,1-20.6-20.61V589.82a20.6,20.6,0,1,1,41.2,0v46.56A20.63,20.63,0,0,1,502.8,657Zm0-83.27a16.11,16.11,0,0,0-16.09,16.1v46.56a16.1,16.1,0,1,0,32.19,0V589.82A16.12,16.12,0,0,0,502.8,573.72Z"/><path class="cls-1" d="M502.8,642.74a14.34,14.34,0,0,1-14.32-14.32V597.78a14.32,14.32,0,0,1,28.64,0v30.64A14.34,14.34,0,0,1,502.8,642.74Zm0-54.78a9.83,9.83,0,0,0-9.82,9.82v30.64a9.82,9.82,0,0,0,19.64,0V597.78A9.83,9.83,0,0,0,502.8,588Z"/><path class="cls-1" d="M514.12,653.07a2.25,2.25,0,0,1-2.15-1.6l-3.84-12.73a2.25,2.25,0,0,1,4.31-1.29l3.84,12.73a2.26,2.26,0,0,1-1.51,2.8A2,2,0,0,1,514.12,653.07Z"/><path class="cls-1" d="M495.66,590.3a2.23,2.23,0,0,1-2.15-1.59l-3.9-12.89a2.27,2.27,0,0,1,1.5-2.81,2.22,2.22,0,0,1,2.81,1.5l3.89,12.89a2.25,2.25,0,0,1-1.5,2.81A2.12,2.12,0,0,1,495.66,590.3Z"/><path class="cls-1" d="M491.77,653.29a2.37,2.37,0,0,1-.65-.09,2.26,2.26,0,0,1-1.51-2.8l3.83-12.74a2.25,2.25,0,0,1,4.31,1.3l-3.83,12.73A2.25,2.25,0,0,1,491.77,653.29Z"/><path class="cls-1" d="M510.3,590.58a2.35,2.35,0,0,1-.64-.09,2.26,2.26,0,0,1-1.52-2.8l3.82-13a2.25,2.25,0,1,1,4.32,1.29L512.46,589A2.26,2.26,0,0,1,510.3,590.58Z"/><path class="cls-1" d="M500,137.45c-200.25,0-362.57,162.32-362.57,362.57S299.77,862.55,500,862.55,862.55,700.27,862.55,500,700.23,137.45,500,137.45Zm.14,714.92c-194.29,0-351.8-157.51-351.8-351.8s157.51-351.8,351.8-351.8S852,306.28,852,500.57,694.45,852.37,500.16,852.37Z"/></svg>