<svg id="Layer_1" data-name="Layer 1" xmlns="http://www.w3.org/2000/svg" viewBox="0 0 1000 1000"><defs><style>.cls-1{fill:#9e804a;}</style></defs><path class="cls-1" d="M669.63,534.85c-.14,0-.67-.05-.8-.07-5.1-.91-6.24-8.6-5.6-15.48.34-7,3.32-14.23,8.34-14.23a5,5,0,0,1,3.72,1.72c2.39,2.53,3.68,7.81,3.37,13.81C677.92,528.63,674,534.85,669.63,534.85Zm1.94-25.15c-.83,0-3.41,3.41-3.72,9.92-.66,7.1,1,10.43,1.78,10.6.92-.07,3.82-3.57,4.41-10C674.37,513.83,672.44,509.88,671.57,509.7Z"/><path class="cls-1" d="M667.28,547.24a4.48,4.48,0,0,1-1.15-.15c-4-1-5.59-6.47-4.55-15.74,1.06-6.65,4.38-13.68,9.19-13.68a5.39,5.39,0,0,1,4.12,2.15c2.16,2.76,2.92,8.09,2,13.93C676,541.14,671.7,547.24,667.28,547.24Zm3.48-24.94c-.91.06-3.59,3.42-4.59,9.67-.86,7.63.51,10.47,1.12,10.64,1,0,4.28-3.27,5-9.49.84-5.23,0-9-1-10.43A.94.94,0,0,0,670.76,522.3Z"/><path class="cls-1" d="M664.17,559.46a4.56,4.56,0,0,1-1.56-.26c-4.69-1.6-5.05-9.52-3.42-16.19,2.56-8.57,5.8-12.85,9.66-12.85.11,0,.63,0,.74.05a5.37,5.37,0,0,1,3.73,2.66c2.07,3.25,2.42,8.71.89,13.92C672.67,553.05,669,559.46,664.17,559.46Zm4.71-24.68c-.81,0-3.09,2.31-5.22,9.44-1.49,6.06-.36,10.2.45,10.61,1.21,0,4.14-3.17,5.63-9.24,1.81-6.17,0-10.48-.86-10.81Z"/><path class="cls-1" d="M652.65,587.47a4.7,4.7,0,0,1-2.31-.59c-4.36-2.45-3.51-10.22-.43-16.62,2.43-5,6.28-11,10.82-11a4.89,4.89,0,0,1,1.65.28,5.25,5.25,0,0,1,3.1,3.17c1.48,3.54.89,9-1.49,14S657.2,587.47,652.65,587.47Zm8.17-23.53c-1.11,0-3.79,2.26-6.74,8.33-2.81,5.82-2.3,10.11-1.47,10.57,1.14,0,4.48-2.46,7.21-8.14s1.83-10.23,1-10.76Z"/><path class="cls-1" d="M646.34,598.36a4.82,4.82,0,0,1-2.7-.78c-4.17-2.77-2.62-10.4,1.08-16.51,2.35-4.93,6.8-10.12,11.17-10.12a4.88,4.88,0,0,1,4.71,3.44c1.21,3.27.34,8.65-2.27,14.06C654.68,594.55,650,598.36,646.34,598.36ZM656,575.6c-1.58,0-4.82,2.67-7.23,7.67-3.47,5.77-3.26,10-2.58,10.45,1.52,0,5-2.36,8.06-7.47,2.76-5.72,2.5-10.14,1.77-10.65Z"/><path class="cls-1" d="M639.32,608.78a4.84,4.84,0,0,1-3.08-1c-3.35-2.57-2.59-8.35,2.13-16.26,4.16-6.86,10.4-10.71,14.18-8.71a5,5,0,0,1,2.49,3.26c.92,3.32-.45,8.58-3.57,13.72C648.29,605.08,643.29,608.78,639.32,608.78Zm11-21.87c-1.68,0-5.12,2.24-8,7-4,6.65-3.78,9.82-3.27,10.22,1.91,0,5.67-2.13,8.44-6.73,3.61-5.95,3.44-10.06,2.88-10.49Z"/><path class="cls-1" d="M619.79,631.56a5.31,5.31,0,0,1-4.17-1.65c-2.81-3.11-1.15-8.37,4.94-15.61,5.57-6,12.23-8.66,15.5-6.11a5.25,5.25,0,0,1,2,3.88c.28,3.5-2,8.37-6,12.7C628.5,628.87,623.69,631.56,619.79,631.56Zm-.73-4.75a1.55,1.55,0,0,0,.73.12c2.13,0,5.8-1.8,8.71-5.23,3.58-3.87,5-7.5,4.89-9.27a.88.88,0,0,0-.19-.59c-2.28,0-5.83,1.91-9.17,5.52-4.85,5.77-5.45,8.92-5,9.45Z"/><path class="cls-1" d="M610.66,640a5.64,5.64,0,0,1-4.69-2c-1-1.32-1.84-3.73.27-7.71a24.62,24.62,0,0,1,5.87-7.67c2.77-2.35,7.93-6.2,12.11-6.2a5.28,5.28,0,0,1,3.64,1.32A5.36,5.36,0,0,1,629.5,622c-.07,3.78-2.8,8.52-7,12.09a26.31,26.31,0,0,1-8.6,5.4A12.34,12.34,0,0,1,610.66,640Zm13.87-18.83c-2,0-5.13,1.36-9.37,4.95a20.09,20.09,0,0,0-4.76,6.23c-.94,1.77-.91,2.66-.8,2.8a5.09,5.09,0,0,0,3-.08,21.75,21.75,0,0,0,6.89-4.45c4.89-4.17,5.86-8.75,5.28-9.45Z"/><path class="cls-1" d="M600.58,647.7a5.44,5.44,0,0,1-4.84-2.26c-2.75-4.19,1.59-10.69,7.3-15,3.26-2.44,8-5.36,11.85-5.36a5.47,5.47,0,0,1,4.14,1.65,5.26,5.26,0,0,1,1.28,4.23c-.32,3.8-3.36,8.39-7.76,11.7C608.37,645.84,603.9,647.7,600.58,647.7Zm-1-4.81a1.67,1.67,0,0,0,1,.18c1.73,0,5.18-1.06,9.19-4.06,5.06-3.81,6.34-8.24,5.87-9.08a1.3,1.3,0,0,0-.75-.17c-1.52,0-4.71,1.17-9.08,4.44-5.25,3.91-6.66,8-6.2,8.69Z"/><path class="cls-1" d="M575.47,662.92c-4.42,0-6-2.07-6.47-3.3-2-4.63,3.52-10.17,10-13.26,3.76-2.11,7.73-3.35,10.77-3.35,3.26,0,4.83,1.38,5.58,2.53a5.12,5.12,0,0,1,.56,4.18c-.86,3.49-4.66,7.55-9.68,10.33A25.63,25.63,0,0,1,575.47,662.92Zm14.25-15.28c-2.24,0-5.47,1.06-8.64,2.83-6,2.88-8.14,6.58-7.82,7.34.07.1.65.48,2.21.48a21.18,21.18,0,0,0,8.58-2.35c5.84-3.24,7.64-7.16,7.36-7.89C591.33,647.92,590.85,647.64,589.72,647.64Z"/><path class="cls-1" d="M564.89,667.93c-4.08,0-6.89-1.43-7.72-3.94-1.65-4.85,4.51-9.57,10.84-12.36,6.94-3.35,14.43-3.3,16.52.49a5,5,0,0,1,.28,4.08c-1.06,3.3-5.08,7-10.5,9.57A24,24,0,0,1,564.89,667.93Zm13-14.21a19.52,19.52,0,0,0-8,2.11c-6.53,2.89-8.65,5.95-8.4,6.69.1.15,1,.78,3.34.78a19.18,19.18,0,0,0,7.49-1.73c6.25-3,8.31-6.52,8.09-7.23C580.36,654.14,579.58,653.72,577.92,653.72Z"/><path class="cls-1" d="M553.87,672.2c-4.71,0-8.08-1.79-8.8-4.65-1-4,3-8,11.61-11.55,7.68-2.73,14.83-2,16.56,1.75a5.24,5.24,0,0,1-.07,4.35c-1.37,3.25-5.68,6.49-11.23,8.46A21.71,21.71,0,0,1,553.87,672.2Zm11.77-13.28a22.81,22.81,0,0,0-7.31,1.4c-7.11,2.93-8.93,5.49-8.78,6.09.14.28,1.48,1.15,4.32,1.15a17.07,17.07,0,0,0,6.42-1.32c5-1.77,7.93-4.31,8.62-6a.93.93,0,0,0,.11-.62C568.94,659.53,568,658.92,565.64,658.92Z"/><path class="cls-1" d="M526.43,678.67a21.69,21.69,0,0,1-5.41-.62c-3.54-1.14-5.62-3.18-5.81-5.65-.13-1.66.54-4.09,4.49-6.26a24.92,24.92,0,0,1,9.14-3.15,41.92,41.92,0,0,1,4.82-.3c8.06,0,10.43,2.72,11,5a5.36,5.36,0,0,1-1,4.44c-2.13,3.09-7,5.51-12.52,6.17A30.25,30.25,0,0,1,526.43,678.67Zm7.23-11.35a36.66,36.66,0,0,0-4.2.26,20.18,20.18,0,0,0-7.42,2.56c-1.88,1-2.22,1.76-2.21,1.89s.68,1,2.48,1.58a22.48,22.48,0,0,0,8.22.11c4.85-.59,8.22-2.59,9.33-4.21a1.42,1.42,0,0,0,.31-.7C540.11,668.56,538.73,667.32,533.66,667.32Z"/><path class="cls-1" d="M516.34,680c-5.42,0-10-1.33-12.17-3.55a5,5,0,0,1-1.58-3.59c0-5,7.26-8,14.38-8.35.84,0,1.68-.07,2.5-.07,9.81,0,12.4,3.17,12.85,5.83A5.26,5.26,0,0,1,531,674.5c-2.37,3-7.46,5.13-12.95,5.44C517.49,680,516.91,680,516.34,680Zm3.13-10.93c-.74,0-1.5,0-2.27.06-6.54.32-10,2.91-10,3.75.16.73,3.95,2.77,10.62,2.45,6.31-.36,9.83-3.34,9.91-4.31C527.65,670.41,525.41,669.06,519.47,669.06Z"/><path class="cls-1" d="M505,680.6c-5.78-.08-11.05-1.84-13.47-4.5a5.13,5.13,0,0,1-1.49-4c.41-5.19,8-7,14.39-7,.88,0,1.4,0,1.9,0,7.59,0,13.15,2.85,13.55,6.93a5.05,5.05,0,0,1-1.36,3.85c-2.28,2.63-7.41,4.45-13.41,4.74Zm-.57-10.86c-6.62,0-9.71,2-9.77,2.78.1.77,3.52,3.34,10.3,3.44,6.49-.33,10.21-2.65,10.3-3.53-.08-.87-3.81-3-10.22-2.69Z"/><path class="cls-1" d="M478.34,678.27a33.49,33.49,0,0,1-4.85-.37,19.63,19.63,0,0,1-9.79-3.82c-3.87-2.9-3.87-5.66-3.52-7s1.62-3.75,6.3-4.54a38.46,38.46,0,0,1,9.49.11c6.92,1,14,4.73,13.59,9.66C489.23,676,485,678.27,478.34,678.27Zm-7.85-11.37a25.91,25.91,0,0,0-3.33.19c-1.74.29-2.44.91-2.49,1.1s.2,1,1.87,2.23a15.32,15.32,0,0,0,7.58,2.9,29.23,29.23,0,0,0,4.22.32c4.53,0,6.56-1.25,6.6-1.74,0-.84-3.32-3.78-9.59-4.7A41.65,41.65,0,0,0,470.49,666.9Z"/><path class="cls-1" d="M467.12,676.09a24.07,24.07,0,0,1-6.67-1,26,26,0,0,1-9.23-4.21c-3.78-3.39-3.57-6.14-3.11-7.5s1.89-3.59,6.62-4a26.23,26.23,0,0,1,9.6.69c4.19,1.23,13.65,4.67,12.71,10.52C476.52,673.94,472.62,676.09,467.12,676.09Zm-9.54-12.25a15.29,15.29,0,0,0-2.31.17c-2,.17-2.71.69-2.77.86s.23,1.16,1.69,2.47a21.94,21.94,0,0,0,7.49,3.29,19.37,19.37,0,0,0,5.44.82c3.57,0,5.3-1.17,5.35-1.55.11-.7-2.51-3.31-9.37-5.33A22.64,22.64,0,0,0,457.58,663.84Z"/><path class="cls-1" d="M455.59,672.9a22.76,22.76,0,0,1-7.8-1.45c-5.64-2.06-10-5.31-11.37-8.49a5,5,0,0,1-.1-4.09c1.05-2.4,3.86-3.72,7.89-3.72a25.4,25.4,0,0,1,8.62,1.66c8.63,3.21,12.84,7.24,11.84,11.35C464,671.07,460.51,672.9,455.59,672.9Zm-11.38-13.12c-2.42,0-3.52.64-3.64.94-.14.71,2.24,4,8.8,6.38a18.36,18.36,0,0,0,6.22,1.17c3,0,4.43-.91,4.59-1.22.15-.62-1.69-3.2-9-5.9A21.15,21.15,0,0,0,444.21,659.78Z"/><path class="cls-1" d="M429.48,661.81a24.25,24.25,0,0,1-10.61-3c-5.27-3.19-8.93-7.23-9.68-10.63a5.07,5.07,0,0,1,.66-4c.76-1.12,2.35-2.46,5.62-2.46a22.27,22.27,0,0,1,10.92,3.58c6.19,3.22,11.66,8.61,9.61,13.25C435.47,659.76,433.91,661.81,429.48,661.81Zm-14-15.46c-1.23,0-1.7.31-1.78.43-.34.81,1.85,4.64,7.45,8a19.24,19.24,0,0,0,8.34,2.36c1.59,0,2.21-.39,2.29-.5.35-.81-1.81-4.29-7.65-7.33C421,647.44,417.81,646.35,415.47,646.35Z"/><path class="cls-1" d="M419.05,655.87c-3.24,0-7.42-1.4-11.45-3.87-4.78-3.09-8.21-7.42-8.81-11.09a5.18,5.18,0,0,1,.92-4.23,5.72,5.72,0,0,1,4.77-2c4.16,0,9,2.73,11.52,4.36,6,3.65,11,9.71,8.6,14.14C424.06,654.16,422.6,655.87,419.05,655.87Zm-14.57-16.6a1.64,1.64,0,0,0-1.13.28c-.38.81,1.33,5.05,6.7,8.54,3.19,1.93,6.65,3.16,9,3.16a2.42,2.42,0,0,0,1.47-.3c.39-.73-1.39-4.64-7-8C410,640.65,406.59,639.27,404.48,639.27Z"/><path class="cls-1" d="M408.6,649.17c-3.37,0-7.78-1.83-11.79-4.91-4.36-3-7.51-7.52-7.92-11.36a5.34,5.34,0,0,1,1.23-4.4,5.41,5.41,0,0,1,4.17-1.68c3.72,0,8.5,2.77,11.85,5.09,5.56,4.25,10.23,10.64,7.58,14.81A5.76,5.76,0,0,1,408.6,649.17Zm-14.31-17.72a1.28,1.28,0,0,0-.76.18c-.48.82.87,5.31,6,8.89,5.45,4.18,9.95,4.23,10.27,3.72.37-.81-1.34-4.72-6.4-8.59C399.65,633.05,396.2,631.45,394.29,631.45Z"/><path class="cls-1" d="M385.69,629.84a11.5,11.5,0,0,1-3.84-.76,23.69,23.69,0,0,1-8.28-6.24c-3.83-4-6.13-9-5.85-12.64a5.35,5.35,0,0,1,2-4.05,5,5,0,0,1,3.13-1c4.62,0,10,5.05,12.1,7.21a27,27,0,0,1,5.22,8.23c1.88,4.29.53,6.65-.44,7.67A5.36,5.36,0,0,1,385.69,629.84Zm-12.82-20.06c-.36.08-.49.27-.53.77-.15,1.94,1.22,5.61,4.59,9.11a19.86,19.86,0,0,0,6.55,5.09c2.22.8,2.86.38,2.91.32s.32-.88-.47-2.69a22.63,22.63,0,0,0-4.31-6.83C377.79,611.59,374.39,609.78,372.87,609.78Z"/><path class="cls-1" d="M377.28,620.62a10.34,10.34,0,0,1-4.36-1.13,19.73,19.73,0,0,1-7.95-6.84c-3.61-4.85-5.42-9.81-4.81-13.21a5.22,5.22,0,0,1,2.25-3.57c3.53-2.28,10.2,1.09,14.87,7.41a37.73,37.73,0,0,1,4.59,8.29c1.52,4.57,0,6.82-1,7.76A5.21,5.21,0,0,1,377.28,620.62Zm-12.09-20.89a.63.63,0,0,0-.48.53c-.3,1.67.83,5.41,4,9.68a15.56,15.56,0,0,0,6.1,5.34c2.45,1.15,2.86.66,2.91.63s.36-1-.23-2.82a33.47,33.47,0,0,0-4-7.11C370.35,601.69,366.73,599.73,365.19,599.73Z"/><path class="cls-1" d="M369.46,610.84c-3.73,0-8.52-3.42-12.2-8.69-3.21-5.25-4.59-10.53-3.69-13.88A5.06,5.06,0,0,1,356,585c3.8-2.07,9.95,1.66,14.16,8.62,4,5.72,6.37,13,2.42,16.19A5,5,0,0,1,369.46,610.84Zm-11-21.82c-.79.49-1,4.67,2.66,10.6,3.15,4.51,6.78,6.59,8.33,6.59.93-.58.61-4.67-3.16-10.08C363.33,591.24,359.88,589,358.47,589Z"/><path class="cls-1" d="M353.56,585.18c-4.57,0-9-5.84-11.39-10.83-2.25-5.6-2.65-11-1.12-14.29a5.09,5.09,0,0,1,3-2.87,5,5,0,0,1,1.54-.25c4.62,0,8.68,6.07,10.74,11.26,3,6.27,3.87,14-.55,16.42A4.73,4.73,0,0,1,353.56,585.18Zm-7.93-23.61c-.75.4-1.77,4.56.77,10.92,2.69,5.58,6.05,8.06,7.16,8.06.79-.4,1.42-4.62-1.42-10.48C349.94,564.54,346.91,561.57,345.63,561.57Z"/><path class="cls-1" d="M348.19,573.73c-4.65,0-8.57-6.08-10.69-11.77a19.69,19.69,0,0,1-1.35-10.43c.68-4.79,3.09-6.11,4.47-6.47,2.33-.59,4.84.59,7,3.33a39.64,39.64,0,0,1,4.46,8.36c2.48,6.65,2.43,14.63-1.91,16.56A4.68,4.68,0,0,1,348.19,573.73Zm-6.38-24.19c-.21.05-.81.81-1.09,2.72a15.43,15.43,0,0,0,1.1,8c2.41,6.48,5.8,9.15,6.48,8.8s1.63-4.86-.53-10.66A34.75,34.75,0,0,0,344,551.2C342.92,549.9,342.1,549.54,341.81,549.54Z"/><path class="cls-1" d="M344,561.84c-4.24,0-8.66-5.44-10.29-12.67a25.81,25.81,0,0,1-.75-10.12c1.19-4.94,3.69-6.08,5.08-6.33a7.77,7.77,0,0,1,.83-.08c1.49,0,3.71.69,5.84,4a24.81,24.81,0,0,1,4,8.72c1.95,8.78.78,14.81-3.11,16.22A4.86,4.86,0,0,1,344,561.84Zm-5.13-24.57c-.2,0-.9.74-1.37,2.7a21.79,21.79,0,0,0,.71,8.12c1.34,5.93,4.52,9.12,5.79,9.12.72-.25,1.77-3.81.22-10.78a20.35,20.35,0,0,0-3.29-7.13C339.82,537.62,339.05,537.27,338.85,537.27Z"/><path class="cls-1" d="M337.31,532.34c-1.54,0-3.83-.75-6-4.32a19.61,19.61,0,0,1-2.83-10.11c-.3-5.89,1-11.15,3.36-13.65a5,5,0,0,1,3.71-1.72c5.06.07,8,7.3,8.39,14.41a38.71,38.71,0,0,1-.78,9.45c-1.28,4.64-3.77,5.68-5.15,5.89Zm-1.75-25.17c-.71.15-2.8,3.61-2.44,10.58a15.41,15.41,0,0,0,2.13,7.83c1.08,1.78,1.9,2.13,2.06,2.13v0c.19,0,.87-.67,1.37-2.47a33.76,33.76,0,0,0,.63-8.13C339,510.71,336.51,507.18,335.56,507.17Z"/><path class="cls-1" d="M336,519.79c-5.12,0-7.83-7.68-8.17-14.82.34-7.36,3-15,8.17-15,5.43.46,7.68,7.91,7.3,15.05.38,6.89-1.87,14.35-6.89,14.8Zm0-25.23c-.71.06-3.21,3.44-3.55,10.41.34,6.74,2.83,10.12,3.55,10.19s3-3.69,2.68-10.18C339,498.24,336.84,494.63,336,494.56Z"/><path class="cls-1" d="M335.56,507.17a5.07,5.07,0,0,1-3.71-1.71c-2.37-2.5-3.66-7.76-3.35-13.73a19.47,19.47,0,0,1,2.86-10.09c2.12-3.51,4.41-4.26,5.95-4.26l.71.05c1.37.21,3.87,1.24,5.13,5.82a38.18,38.18,0,0,1,.8,9.44c-.36,7.19-3.33,14.42-8.34,14.48ZM337.32,482c-.18,0-1,.36-2,2.08a15.35,15.35,0,0,0-2.16,7.8c-.36,7,1.72,10.5,2.44,10.65.84,0,3.44-3.47,3.76-10a33.22,33.22,0,0,0-.65-8.12c-.48-1.73-1.16-2.37-1.35-2.4Z"/><path class="cls-1" d="M338.87,477.07A7.66,7.66,0,0,1,338,477c-1.38-.24-3.89-1.37-5-6.15a25.73,25.73,0,0,1,.73-10.36c1.82-8.09,7.46-13.92,11.88-12.33,3.89,1.4,5.06,7.43,3.13,16.14a25.38,25.38,0,0,1-4.13,8.95C342.57,476.38,340.35,477.07,338.87,477.07ZM344,452.51c-1.32,0-4.51,3.19-5.82,9.05a21.8,21.8,0,0,0-.7,8.36c.48,1.94,1.21,2.5,1.33,2.52s1.05-.45,2-1.86a21,21,0,0,0,3.41-7.37c1.53-6.9.48-10.46-.19-10.7Z"/><path class="cls-1" d="M341.81,464.81a4.79,4.79,0,0,1-1.19-.15c-1.38-.36-3.79-1.68-4.48-6.55a19.65,19.65,0,0,1,1.38-10.4c2.1-5.65,6-11.73,10.67-11.73a4.83,4.83,0,0,1,2,.42c4.34,2,4.38,9.92,1.93,16.5a39.72,39.72,0,0,1-4.42,8.35C345.82,463.6,343.81,464.81,341.81,464.81Zm6.46-24.19c-1.14,0-4.16,2.65-6.43,8.76a15.42,15.42,0,0,0-1.13,8c.29,2,.89,2.75,1.07,2.79s1.14-.35,2.23-1.73a34.94,34.94,0,0,0,3.78-7.22c2.15-5.73,1.31-10.1.5-10.6Z"/><path class="cls-1" d="M345.63,452.78a4.92,4.92,0,0,1-4.58-3.12c-1.53-3.27-1.13-8.69,1.06-14.15,2.45-5.14,6.88-11,11.45-11a4.73,4.73,0,0,1,2.26.56c4.42,2.39,3.59,10.15.49,16.57C354.31,446.71,350.25,452.78,345.63,452.78Zm8-23.6c-1.16,0-4.52,2.47-7.27,8.19-2.48,6.22-1.46,10.38-.8,10.77,1.36,0,4.4-3,6.54-8.34,2.9-6,2.27-10.23,1.54-10.62Z"/><path class="cls-1" d="M358.47,425.33a5,5,0,0,1-2.45-.6,5.09,5.09,0,0,1-2.45-3.28c-.9-3.36.48-8.63,3.61-13.76,5-7.14,11.92-10.56,15.41-7.76,4,3.14,1.6,10.46-2.5,16.31C366.78,421.71,362.18,425.33,358.47,425.33Zm11.19-21.79c-1.8,0-5.4,2.08-8.6,6.68-3.54,5.81-3.38,10-2.83,10.44,1.65,0,5.1-2.18,8-7,3.86-5.53,4.18-9.62,3.48-10.17Z"/><path class="cls-1" d="M365.18,414.62a5,5,0,0,1-2.76-.77,5.2,5.2,0,0,1-2.26-3.57c-.61-3.4,1.2-8.36,4.84-13.27a19.83,19.83,0,0,1,8-6.81c3.15-1.49,6.08-1.45,7.87.19,1,.94,2.54,3.19,1,7.69a38.06,38.06,0,0,1-4.57,8.31C373.66,411.33,368.8,414.62,365.18,414.62Zm12.07-20.83a5.32,5.32,0,0,0-2.36.63,15.41,15.41,0,0,0-6.13,5.3c-3.22,4.33-4.35,8.07-4.05,9.74,0,.12.09.42.22.5,1.79,0,5.41-1.93,8.64-6.27a34.13,34.13,0,0,0,4-7.14c.56-1.7.34-2.61.2-2.74A3.77,3.77,0,0,0,377.25,393.79Z"/><path class="cls-1" d="M372.87,404.57a5,5,0,0,1-3.12-1,5.36,5.36,0,0,1-2-4.06c-.28-3.7,2-8.67,5.88-12.67a23.65,23.65,0,0,1,8.19-6.19c4.09-1.49,6.92-.31,8,.81s2.3,3.37.4,7.72a26.77,26.77,0,0,1-5.15,8.13C382.87,399.52,377.49,404.57,372.87,404.57Zm12.82-20.06a6.75,6.75,0,0,0-2.26.48,19.73,19.73,0,0,0-6.46,5c-3.41,3.54-4.78,7.21-4.63,9.14a1.32,1.32,0,0,0,.2.73l.33.05c1.52,0,4.91-1.81,8.78-5.8a22.78,22.78,0,0,0,4.25-6.74c.75-1.73.62-2.62.5-2.75A1.2,1.2,0,0,0,385.69,384.51Z"/><path class="cls-1" d="M394.28,382.9a5.41,5.41,0,0,1-4.17-1.69,5.33,5.33,0,0,1-1.22-4.39c.41-3.85,3.56-8.33,8-11.43,6.62-5.06,14.34-6.28,16.82-2.41,2.65,4.18-2,10.59-7.48,14.77C402.78,380.13,398,382.9,394.28,382.9Zm14.32-17.73c-1.76,0-5.16,1-9,4-5.23,3.65-6.58,8.13-6.09,9,.14.15.57.17.74.17,1.91,0,5.36-1.6,9.24-4.27,5-3.81,6.68-7.72,6.29-8.54C409.73,365.33,409.31,365.17,408.6,365.17Z"/><path class="cls-1" d="M404.48,375.07a5.72,5.72,0,0,1-4.77-2,5.13,5.13,0,0,1-.92-4.21c.6-3.67,4-8,8.75-11.07,4.09-2.5,8.27-3.91,11.51-3.91,3.55,0,5,1.72,5.55,2.74,2.37,4.43-2.56,10.48-8.66,14.17C413.48,372.35,408.64,375.07,404.48,375.07Zm14.57-16.6c-2.35,0-5.81,1.23-9.05,3.2-5.31,3.44-7,7.68-6.65,8.51a1.66,1.66,0,0,0,1.13.27c2.11,0,5.56-1.39,9-3.62,5.64-3.42,7.42-7.32,7-8.06A2.42,2.42,0,0,0,419.05,358.47Z"/><path class="cls-1" d="M415.47,368c-3.27,0-4.86-1.34-5.62-2.47a5.07,5.07,0,0,1-.66-4c.75-3.4,4.41-7.43,9.55-10.54a24.23,24.23,0,0,1,10.74-3c4.43,0,6,2,6.52,3.26,2,4.63-3.42,10-9.75,13.31A22,22,0,0,1,415.47,368Zm14-15.45A19.46,19.46,0,0,0,421,355c-5.81,3.51-7.59,7.3-7.32,8,.08.11.55.42,1.78.42a17.84,17.84,0,0,0,8.51-2.91c6-3.11,8.14-6.6,7.78-7.42A3.58,3.58,0,0,0,429.48,352.54Z"/><path class="cls-1" d="M444.21,354.57c-4,0-6.84-1.32-7.89-3.71a5,5,0,0,1,.1-4.1c1.37-3.18,5.73-6.44,11.37-8.49a22.76,22.76,0,0,1,7.8-1.45c4.92,0,8.41,1.83,9.09,4.76,1,4.09-3.21,8.12-11.84,11.33A25.79,25.79,0,0,1,444.21,354.57Zm11.38-13.12a18.25,18.25,0,0,0-6.21,1.16c-6.57,2.4-8.95,5.68-8.81,6.4.12.29,1.22.93,3.64.93a21,21,0,0,0,7-1.38c7.26-2.69,9.1-5.28,8.95-5.91C460,342.36,458.57,341.45,455.59,341.45Z"/><path class="cls-1" d="M457.6,350.5a20.59,20.59,0,0,1-3-.22c-4.55-.36-6-2.63-6.45-4s-.67-4.1,3-7.38a26.07,26.07,0,0,1,9.44-4.34,23.79,23.79,0,0,1,6.59-1c5.5,0,9.4,2.15,9.92,5.46.94,5.84-8.52,9.29-12.63,10.5A27.83,27.83,0,0,1,457.6,350.5Zm9.52-12.24a19.69,19.69,0,0,0-5.37.8,21.91,21.91,0,0,0-7.69,3.43c-1.33,1.2-1.62,2.17-1.56,2.36s.78.69,2.61.84a19.57,19.57,0,0,0,8.07-.56c6.78-2,9.4-4.61,9.29-5.31C472.42,339.5,470.89,338.26,467.12,338.26Z"/><path class="cls-1" d="M470.47,347.45a30.39,30.39,0,0,1-3.89-.23c-4.78-.8-6.05-3.19-6.4-4.55s-.35-4.12,3.58-7.08a19.62,19.62,0,0,1,9.78-3.78,32.08,32.08,0,0,1,4.79-.37c6.71,0,10.9,2.24,11.23,6,.4,4.93-6.67,8.66-13.54,9.66A44.78,44.78,0,0,1,470.47,347.45Zm7.86-11.38a29.34,29.34,0,0,0-4.16.32,15.43,15.43,0,0,0-7.56,2.85c-1.74,1.31-2,2.18-1.94,2.29s.75.8,2.58,1.11a35.43,35.43,0,0,0,8.16-.13c6.2-.92,9.52-3.85,9.53-4.7C484.9,337.33,482.87,336.07,478.33,336.07Z"/><path class="cls-1" d="M506.28,344.65c-.51,0-1,0-1.54,0-6.76,0-14.34-1.85-14.75-7.05a5.12,5.12,0,0,1,1.49-3.93c2.41-2.65,7.69-4.42,13.44-4.5,6.14.3,11.28,2.12,13.55,4.75a5.05,5.05,0,0,1,1.36,3.85C519.43,341.8,513.86,344.65,506.28,344.65ZM504.84,340c6.46.29,10.29-1.82,10.37-2.7-.06-.7-3.43-3.19-10.38-3.54-6.68.1-10.12,2.69-10.22,3.46.06.76,3.16,2.78,9.79,2.78Z"/><path class="cls-1" d="M519.47,345.29c-.82,0-1.66,0-2.52-.07-7.1-.35-14.32-3.33-14.36-8.34a5,5,0,0,1,1.58-3.6c2.44-2.45,7.76-3.84,13.91-3.5,5.51.31,10.59,2.45,13,5.45a5.19,5.19,0,0,1,1.27,4.24C531.87,342.12,529.28,345.29,519.47,345.29Zm-3.11-10.93c-6,0-9,1.81-9.14,2.5,0,.83,3.44,3.42,10,3.74q1.17.06,2.28.06c5.94,0,8.18-1.35,8.28-2-.08-.95-3.6-3.93-9.92-4.29C517.34,334.37,516.84,334.36,516.36,334.36Z"/><path class="cls-1" d="M533.65,347a41.49,41.49,0,0,1-4.73-.29,25.18,25.18,0,0,1-9.34-3.23c-3.83-2.11-4.5-4.54-4.37-6.19.19-2.47,2.27-4.52,5.69-5.62a25.83,25.83,0,0,1,10.33-.28c5.41.66,10.33,3.08,12.45,6.17a5.33,5.33,0,0,1,1,4.45C544.08,344.31,541.72,347,533.65,347Zm-7.2-11.36a17.83,17.83,0,0,0-4.26.47c-1.68.55-2.34,1.33-2.36,1.54s.33.86,2.1,1.84a20.5,20.5,0,0,0,7.61,2.63,36.24,36.24,0,0,0,4.11.25c5.08,0,6.46-1.24,6.52-1.49a1.42,1.42,0,0,0-.31-.7c-1.11-1.62-4.48-3.63-9.26-4.21A28.39,28.39,0,0,0,526.45,335.67Z"/><path class="cls-1" d="M565.63,355.42a27.32,27.32,0,0,1-8.85-1.67c-8.85-3.63-12.75-7.52-11.71-11.59.72-2.86,4.09-4.64,8.8-4.64a22,22,0,0,1,8.16,1.67c5.46,1.93,9.77,5.17,11.14,8.42a5.24,5.24,0,0,1,.07,4.35C572.21,354.19,569.51,355.42,565.63,355.42Zm-11.76-13.27c-2.83,0-4.18.87-4.32,1.17s1.11,2.92,8.89,6.11a22.34,22.34,0,0,0,7.19,1.36c2.41,0,3.31-.61,3.4-.76a1,1,0,0,0-.12-.61c-.69-1.63-3.65-4.18-8.52-5.91A17.46,17.46,0,0,0,553.87,342.15Z"/><path class="cls-1" d="M577.92,360.63a23.79,23.79,0,0,1-10-2.57c-6.26-2.76-12.42-7.48-10.77-12.35.83-2.49,3.64-3.92,7.72-3.92a23.89,23.89,0,0,1,9.35,2.12c5.49,2.64,9.52,6.31,10.57,9.61a5,5,0,0,1-.28,4.08C583.45,359.55,581.11,360.63,577.92,360.63Zm-13-14.21c-2.34,0-3.24.63-3.34.79-.25.73,1.86,3.79,8.33,6.65a19.69,19.69,0,0,0,8,2.14c1.67,0,2.44-.42,2.56-.63.21-.7-1.85-4.21-8.17-7.26A19.21,19.21,0,0,0,564.89,346.42Z"/><path class="cls-1" d="M589.72,366.7c-3,0-7-1.24-10.89-3.4-6.31-3-11.79-8.57-9.83-13.2.52-1.23,2-3.3,6.47-3.3a25.52,25.52,0,0,1,10.59,2.81c5.14,2.84,8.94,6.9,9.8,10.39a5.11,5.11,0,0,1-.57,4.19C594.55,365.33,593,366.7,589.72,366.7Zm-14.25-15.27c-1.56,0-2.14.38-2.21.48-.32.76,1.82,4.46,7.7,7.28,3.29,1.83,6.52,2.88,8.76,2.88,1.13,0,1.61-.27,1.7-.41.27-.72-1.53-4.64-7.49-7.94A20.9,20.9,0,0,0,575.47,351.43Z"/><path class="cls-1" d="M614.89,384.58c-3.87,0-8.59-2.91-11.86-5.36-5.7-4.25-10-10.75-7.29-14.94a5.42,5.42,0,0,1,4.84-2.27c3.32,0,7.8,1.87,12,5,4.4,3.3,7.45,7.9,7.76,11.7a5.23,5.23,0,0,1-1.29,4.23A5.43,5.43,0,0,1,614.89,384.58Zm-14.31-17.93a1.78,1.78,0,0,0-1,.18c-.45.69,1,4.77,6.2,8.68,4.38,3.28,7.57,4.44,9.09,4.44a1.21,1.21,0,0,0,.76-.18c.46-.83-.82-5.26-5.88-9.06C605.76,367.71,602.31,366.65,600.58,366.65Z"/><path class="cls-1" d="M624.22,393.25c-4.18,0-9.35-3.85-12.05-6.14a24.91,24.91,0,0,1-6-7.85c-2-3.85-1.25-6.26-.21-7.58a5.63,5.63,0,0,1,4.7-2,11.74,11.74,0,0,1,3.13.46,26.42,26.42,0,0,1,8.78,5.48c4.12,3.52,6.86,8.27,6.92,12.06a5.35,5.35,0,0,1-1.64,4.24A5.28,5.28,0,0,1,624.22,393.25Zm-13.55-18.92c-.74,0-1,.17-1.07.22s-.2.9.73,2.67a20.45,20.45,0,0,0,4.89,6.41c5.1,4.32,9,5.34,9.53,4.89.57-.71-.41-5.29-5.23-9.4a22.13,22.13,0,0,0-7.09-4.54A7.26,7.26,0,0,0,610.67,374.33Z"/><path class="cls-1" d="M632.81,402.56c-3.49,0-8.15-2.7-12.17-7.05-6.17-7.33-7.83-12.59-5-15.71a5.31,5.31,0,0,1,4.17-1.64c3.9,0,8.71,2.69,12.24,6.86,3.94,4.26,6.26,9.13,6,12.63a5,5,0,0,1-5.2,4.91Zm-13-19.77a1.41,1.41,0,0,0-.75.13c-.46.51.14,3.66,5.07,9.53,3.3,3.57,6.9,5.48,8.7,5.48a.87.87,0,0,0,.4-.06.88.88,0,0,0,.18-.58c.14-1.77-1.31-5.4-4.82-9.2C625.59,384.58,621.91,382.79,619.79,382.79Z"/><path class="cls-1" d="M650.16,427.48c-3.69,0-8.42-3.73-11.78-9.28-4.73-7.91-5.49-13.69-2.13-16.28,3.55-2.79,11.09,1.13,15.23,8,3.11,5.14,4.48,10.4,3.56,13.72a4.91,4.91,0,0,1-4.88,3.83Zm-10.84-21.91c-.76.41-1,3.58,3,10.24,2.9,4.8,6.38,7,7.81,7,.78-.46,1-4.57-2.65-10.51C644.74,407.71,641,405.57,639.32,405.57Z"/><path class="cls-1" d="M655.89,438.77c-4.37,0-8.81-5.19-11.27-10.32-3.59-5.91-5.15-13.54-1-16.31,3.69-2.46,10.07,1.43,14.59,8.94,2.71,5.59,3.58,11,2.37,14.24a5.1,5.1,0,0,1-2.72,3A5,5,0,0,1,655.89,438.77ZM646.33,416c-.81.47-1,4.7,2.35,10.27,2.52,5.21,5.78,7.88,7.21,7.88.73-.42,1.31-4.57-1.73-10.85C651.19,418.36,647.71,416,646.33,416Z"/><path class="cls-1" d="M660.73,450.42c-4.54,0-8.39-6-10.82-10.95-3.08-6.41-3.93-14.18.43-16.63a4.7,4.7,0,0,1,2.31-.59c4.55,0,9,5.8,11.34,10.76s3,10.42,1.49,14a5.27,5.27,0,0,1-3.12,3.18A4.93,4.93,0,0,1,660.73,450.42Zm-8.08-23.54c-.87.46-1.38,4.75,1.43,10.58,3.08,6.32,5.72,8.6,6.77,8.31.8-.52,1.72-5-1-10.75S653.75,426.88,652.65,426.88Z"/><path class="cls-1" d="M668.85,479.56c-3.86,0-7.1-4.28-9.63-12.74-1.66-6.79-1.3-14.7,3.38-16.3a4.66,4.66,0,0,1,1.57-.26c4.78,0,8.5,6.41,10.07,12.76,1.5,5.11,1.15,10.57-.92,13.82a5.38,5.38,0,0,1-3.74,2.67C669.47,479.53,669,479.56,668.85,479.56Zm-4.68-24.67c-.87.41-2,4.55-.48,10.71,2.1,7,4.38,9.33,5.16,9.33v2.32l0-2.32c.9-.32,2.67-4.62.88-10.7C668.25,458.06,665.32,454.89,664.17,454.89Z"/><path class="cls-1" d="M670.77,492c-4.81,0-8.13-7-9.17-13.57-1.06-9.37.51-14.81,4.54-15.85a4.83,4.83,0,0,1,1.15-.14c4.41,0,8.72,6.1,9.61,13.58.91,5.75.15,11.09-2,13.84a5.24,5.24,0,0,1-3.76,2.13Zm-3.48-24.93c-.6.15-2,3-1.11,10.74,1,6.14,3.66,9.5,4.59,9.57a1,1,0,0,0,.47-.39c1.09-1.38,1.89-5.2,1.07-10.33C671.57,470.38,668.28,467.11,667.29,467.11Z"/><path class="cls-1" d="M671.58,504.65c-5,0-8-7.21-8.36-14.33-.63-6.78.51-14.47,5.61-15.38.13,0,.66-.07.8-.07,4.33,0,8.29,6.22,9,14.16.32,6.09-1,11.38-3.36,13.9A5.08,5.08,0,0,1,671.58,504.65Zm-2-25.15c-.76.14-2.44,3.46-1.79,10.5.32,6.59,2.89,10,3.73,10,.7-.15,2.82-3.75,2.47-10.66C673.45,483.05,670.53,479.55,669.63,479.5Z"/><path class="cls-1" d="M500,137.45c-200.25,0-362.57,162.32-362.57,362.57S299.77,862.55,500,862.55,862.55,700.27,862.55,500,700.23,137.45,500,137.45Zm.14,714.92c-194.29,0-351.8-157.51-351.8-351.8s157.51-351.8,351.8-351.8S852,306.28,852,500.57,694.45,852.37,500.16,852.37Z"/></svg>