<svg id="Layer_1" data-name="Layer 1" xmlns="http://www.w3.org/2000/svg" viewBox="0 0 1000 1000"><defs><style>.cls-1{fill:#9e804a;}</style></defs><path class="cls-1" d="M356.13,381.91h-9a2.13,2.13,0,0,1-2.12-2.34l1.61-15.83a2.13,2.13,0,0,1,2.12-1.91h5.83a2.12,2.12,0,0,1,2.11,1.91l1.61,15.83a2.11,2.11,0,0,1-.54,1.64A2.13,2.13,0,0,1,356.13,381.91Zm-6.69-4.25h4.34l-1.17-11.58h-2Z"/><path class="cls-1" d="M362.18,638.17H341a2.13,2.13,0,0,1-2.12-2.13V379.78a2.12,2.12,0,0,1,2.12-2.12h21.14a2.12,2.12,0,0,1,2.12,2.12V636A2.13,2.13,0,0,1,362.18,638.17Zm-19-4.26h16.88v-252H343.17Z"/><path class="cls-1" d="M355.82,398.9a2.13,2.13,0,0,1-1.5-.62l-8.42-8.42a2.13,2.13,0,1,1,3-3l8.41,8.42a2.13,2.13,0,0,1-1.5,3.63Z"/><path class="cls-1" d="M347.4,398.9a2.13,2.13,0,0,1-1.5-3.63l8.42-8.42a2.12,2.12,0,0,1,3,3l-8.41,8.42A2.17,2.17,0,0,1,347.4,398.9Z"/><path class="cls-1" d="M355.82,416.65a2.1,2.1,0,0,1-1.5-.63l-8.42-8.41a2.13,2.13,0,1,1,3-3l8.41,8.42a2.13,2.13,0,0,1-1.5,3.63Z"/><path class="cls-1" d="M347.4,416.65a2.13,2.13,0,0,1-1.5-3.63l8.42-8.42a2.12,2.12,0,0,1,3,3L348.91,416A2.14,2.14,0,0,1,347.4,416.65Z"/><path class="cls-1" d="M355.82,434.39a2.13,2.13,0,0,1-1.5-.62l-8.42-8.42a2.13,2.13,0,0,1,3-3l8.41,8.42a2.13,2.13,0,0,1-1.5,3.63Z"/><path class="cls-1" d="M347.4,434.39a2.13,2.13,0,0,1-1.5-3.63l8.42-8.42a2.12,2.12,0,0,1,3,3l-8.41,8.42A2.17,2.17,0,0,1,347.4,434.39Z"/><path class="cls-1" d="M355.82,452.14a2.13,2.13,0,0,1-1.5-.62l-8.42-8.43a2.12,2.12,0,1,1,3-3l8.41,8.42a2.13,2.13,0,0,1-1.5,3.63Z"/><path class="cls-1" d="M347.4,452.14a2.13,2.13,0,0,1-1.5-3.63l8.42-8.42a2.12,2.12,0,0,1,3,3l-8.41,8.43A2.17,2.17,0,0,1,347.4,452.14Z"/><path class="cls-1" d="M355.82,469.88a2.09,2.09,0,0,1-1.5-.62l-8.42-8.42a2.13,2.13,0,1,1,3-3l8.41,8.42a2.13,2.13,0,0,1,0,3A2.09,2.09,0,0,1,355.82,469.88Z"/><path class="cls-1" d="M347.4,469.88a2.09,2.09,0,0,1-1.5-.62,2.13,2.13,0,0,1,0-3l8.42-8.42a2.12,2.12,0,0,1,3,3l-8.41,8.42A2.13,2.13,0,0,1,347.4,469.88Z"/><path class="cls-1" d="M355.82,487.63a2.1,2.1,0,0,1-1.5-.63l-8.42-8.41a2.13,2.13,0,1,1,3-3l8.41,8.42a2.13,2.13,0,0,1-1.5,3.63Z"/><path class="cls-1" d="M347.4,487.63a2.13,2.13,0,0,1-1.5-3.63l8.42-8.42a2.12,2.12,0,0,1,3,3L348.91,487A2.14,2.14,0,0,1,347.4,487.63Z"/><path class="cls-1" d="M355.82,505.37a2.09,2.09,0,0,1-1.5-.62l-8.42-8.42a2.13,2.13,0,1,1,3-3l8.41,8.42a2.13,2.13,0,0,1,0,3A2.09,2.09,0,0,1,355.82,505.37Z"/><path class="cls-1" d="M347.4,505.37a2.09,2.09,0,0,1-1.5-.62,2.13,2.13,0,0,1,0-3l8.42-8.42a2.12,2.12,0,0,1,3,3l-8.41,8.42A2.13,2.13,0,0,1,347.4,505.37Z"/><path class="cls-1" d="M355.82,523.12a2.13,2.13,0,0,1-1.5-.62l-8.42-8.42a2.13,2.13,0,0,1,3-3l8.41,8.42a2.13,2.13,0,0,1-1.5,3.63Z"/><path class="cls-1" d="M347.4,523.12a2.13,2.13,0,0,1-1.5-3.63l8.42-8.42a2.12,2.12,0,0,1,3,3l-8.41,8.42A2.17,2.17,0,0,1,347.4,523.12Z"/><path class="cls-1" d="M355.82,540.86a2.13,2.13,0,0,1-1.5-.62l-8.42-8.42a2.12,2.12,0,1,1,3-3l8.41,8.41a2.13,2.13,0,0,1-1.5,3.63Z"/><path class="cls-1" d="M347.4,540.86a2.13,2.13,0,0,1-1.5-3.63l8.42-8.41a2.12,2.12,0,0,1,3,3l-8.41,8.42A2.17,2.17,0,0,1,347.4,540.86Z"/><path class="cls-1" d="M355.82,558.61a2.13,2.13,0,0,1-1.5-.62l-8.42-8.42a2.13,2.13,0,0,1,3-3l8.41,8.42a2.13,2.13,0,0,1-1.5,3.63Z"/><path class="cls-1" d="M347.4,558.61a2.13,2.13,0,0,1-1.5-3.63l8.42-8.42a2.12,2.12,0,0,1,3,3L348.91,558A2.17,2.17,0,0,1,347.4,558.61Z"/><path class="cls-1" d="M355.82,576.35a2.09,2.09,0,0,1-1.5-.62l-8.42-8.42a2.13,2.13,0,1,1,3-3l8.41,8.43a2.12,2.12,0,0,1,0,3A2.09,2.09,0,0,1,355.82,576.35Z"/><path class="cls-1" d="M347.4,576.35a2.09,2.09,0,0,1-1.5-.62,2.12,2.12,0,0,1,0-3l8.42-8.43a2.12,2.12,0,0,1,3,3l-8.41,8.42A2.13,2.13,0,0,1,347.4,576.35Z"/><path class="cls-1" d="M355.82,594.1a2.13,2.13,0,0,1-1.5-.62l-8.42-8.42a2.13,2.13,0,1,1,3-3l8.41,8.42a2.13,2.13,0,0,1-1.5,3.63Z"/><path class="cls-1" d="M347.4,594.1a2.13,2.13,0,0,1-1.5-3.63l8.42-8.42a2.12,2.12,0,0,1,3,3l-8.41,8.42A2.17,2.17,0,0,1,347.4,594.1Z"/><path class="cls-1" d="M355.82,611.84a2.09,2.09,0,0,1-1.5-.62l-8.42-8.42a2.12,2.12,0,1,1,3-3l8.41,8.41a2.13,2.13,0,0,1,0,3A2.09,2.09,0,0,1,355.82,611.84Z"/><path class="cls-1" d="M347.4,611.84a2.09,2.09,0,0,1-1.5-.62,2.13,2.13,0,0,1,0-3l8.42-8.41a2.12,2.12,0,0,1,3,3l-8.41,8.42A2.13,2.13,0,0,1,347.4,611.84Z"/><path class="cls-1" d="M355.82,629.59a2.13,2.13,0,0,1-1.5-.62l-8.42-8.42a2.13,2.13,0,1,1,3-3l8.41,8.42a2.13,2.13,0,0,1-1.5,3.63Z"/><path class="cls-1" d="M347.4,629.59a2.13,2.13,0,0,1-1.5-3.63l8.42-8.42a2.12,2.12,0,0,1,3,3L348.91,629A2.17,2.17,0,0,1,347.4,629.59Z"/><path class="cls-1" d="M535.35,381.91H526.3a2.12,2.12,0,0,1-2-2.81l5.37-15.82a2.12,2.12,0,0,1,2-1.45h3.68a2.14,2.14,0,0,1,2.13,2.13v15.82A2.13,2.13,0,0,1,535.35,381.91Zm-6.08-4.25h4l0-11.58Z"/><path class="cls-1" d="M530.83,638.17c-71.82,0-130.25-58.44-130.25-130.26,0-63,46.24-110.85,113.11-117.85L511,381.12a2.12,2.12,0,0,1,1.73-2.71,95,95,0,0,1,13.75-.76h4.31A130.4,130.4,0,0,1,661.08,507.91C661.08,579.73,602.65,638.17,530.83,638.17Zm-4.56-244.68c-2.27.08-4.89.22-7,.35-67.36,4.8-114.43,51.71-114.43,114.07a126,126,0,1,0,126-126h-4.31a104.22,104.22,0,0,0-10.7.42l2.19,7.34,1-.07q3.57-.25,7.25-.35c4.31-.16,6.6-.13,9.27,0A118.79,118.79,0,1,1,412.05,507.91c0-63.16,53.69-112.15,121.2-109.59l.07-4.85-7,0Zm1.71,9c-62.62,0-111.68,46.32-111.68,105.44A114.53,114.53,0,1,0,537.57,393.57l-.09,7a2.13,2.13,0,0,1-.68,1.53,2,2,0,0,1-1.57.57C532.79,402.54,530.38,402.47,528,402.47Z"/><path class="cls-1" d="M500,137.45c-200.25,0-362.57,162.32-362.57,362.57S299.77,862.55,500,862.55,862.55,700.27,862.55,500,700.23,137.45,500,137.45Zm.14,714.92c-194.29,0-351.8-157.51-351.8-351.8s157.51-351.8,351.8-351.8S852,306.28,852,500.57,694.45,852.37,500.16,852.37Z"/></svg>