<svg id="Layer_1" data-name="Layer 1" xmlns="http://www.w3.org/2000/svg" viewBox="0 0 1000 1000"><defs><style>.cls-1{fill:#9e804a;}</style></defs><path class="cls-1" d="M410.69,463.89H397.77a3.08,3.08,0,0,1-3.07-3.08V366.49a3.08,3.08,0,0,1,3.07-3.08h12.92a3.08,3.08,0,0,1,3.07,3.08v94.32A3.08,3.08,0,0,1,410.69,463.89Zm-9.84-6.15h6.76V369.56h-6.76Z"/><path class="cls-1" d="M413.64,472.82H394.81a3.07,3.07,0,0,1-3.08-3.07v-8.94a3.08,3.08,0,0,1,3.08-3.07h18.83a3.08,3.08,0,0,1,3.08,3.07v8.94A3.07,3.07,0,0,1,413.64,472.82Zm-15.76-6.14h12.69v-2.79H397.88Z"/><path class="cls-1" d="M413.64,481.77H394.81a3.08,3.08,0,0,1-3.08-3.08v-8.94a3.07,3.07,0,0,1,3.08-3.07h18.83a3.07,3.07,0,0,1,3.08,3.07v8.94A3.08,3.08,0,0,1,413.64,481.77Zm-15.76-6.15h12.69v-2.8H397.88Z"/><path class="cls-1" d="M413.64,490.7H394.81a3.07,3.07,0,0,1-3.08-3.07v-8.94a3.07,3.07,0,0,1,3.08-3.07h18.83a3.07,3.07,0,0,1,3.08,3.07v8.94A3.07,3.07,0,0,1,413.64,490.7Zm-15.76-6.14h12.69v-2.79H397.88Z"/><path class="cls-1" d="M413.64,499.65H394.81a3.08,3.08,0,0,1-3.08-3.08v-8.94a3.07,3.07,0,0,1,3.08-3.07h18.83a3.07,3.07,0,0,1,3.08,3.07v8.94A3.08,3.08,0,0,1,413.64,499.65Zm-15.76-6.15h12.69v-2.8H397.88Z"/><path class="cls-1" d="M404.23,523.11c-5.24,0-9.18-6.36-9.18-14.8s3.94-14.81,9.18-14.81,9.18,6.37,9.18,14.81S409.46,523.11,404.23,523.11Zm0-23.46c-.76,0-3,3.07-3,8.66s2.27,8.65,3,8.65,3-3.07,3-8.65S405,499.65,404.23,499.65Z"/><path class="cls-1" d="M404.23,534.84c-5.24,0-9.18-6.36-9.18-14.8s3.94-14.81,9.18-14.81,9.18,6.37,9.18,14.81S409.46,534.84,404.23,534.84Zm0-23.46c-.76,0-3,3.07-3,8.66s2.27,8.66,3,8.66,3-3.07,3-8.66S405,511.38,404.23,511.38Z"/><path class="cls-1" d="M403.83,642.91A50.17,50.17,0,1,1,454,592.74,50.23,50.23,0,0,1,403.83,642.91Zm0-94.19a44,44,0,1,0,44,44A44.07,44.07,0,0,0,403.83,548.72Z"/><path class="cls-1" d="M438.09,595a3.07,3.07,0,0,1-3.07-3.08,30.4,30.4,0,0,0-30.36-30.36,3.07,3.07,0,1,1,0-6.14,36.54,36.54,0,0,1,36.51,36.5A3.08,3.08,0,0,1,438.09,595Z"/><path class="cls-1" d="M420.43,551.79a3.18,3.18,0,0,1-1.09-.2,43.57,43.57,0,0,0-31,0,3.07,3.07,0,0,1-4.16-2.89,19.67,19.67,0,0,1,39.31-1,3.12,3.12,0,0,1,.17,1,3.07,3.07,0,0,1-3.07,3.07Zm-16.6-9.21a49.26,49.26,0,0,1,12.74,1.68,13.51,13.51,0,0,0-25.49,0A49.28,49.28,0,0,1,403.83,542.58Z"/><path class="cls-1" d="M515.36,486.35H497.72a3.08,3.08,0,0,1-1.57-5.72c.43-.25,42.67-25.65,42.67-54.54V413.83a50.42,50.42,0,1,1,100.83,0v47a3.08,3.08,0,0,1-3.08,3.08H623.65a3.09,3.09,0,0,1-3.08-3.08v-47a31.34,31.34,0,1,0-62.68,0v12.26c0,32-39.15,58.62-40.82,59.74A3,3,0,0,1,515.36,486.35Zm-7.52-6.15h6.56c5.33-3.79,37.33-27.62,37.33-54.11V413.83a37.5,37.5,0,1,1,75,0v43.91h6.77V413.83a44.27,44.27,0,1,0-88.53,0v12.26C545,450,521.1,470.6,507.84,480.2Z"/><path class="cls-1" d="M639.53,472.82H620.69a3.07,3.07,0,0,1-3.07-3.07v-8.94a3.08,3.08,0,0,1,3.07-3.07h18.84a3.08,3.08,0,0,1,3.08,3.07v8.94A3.07,3.07,0,0,1,639.53,472.82Zm-15.76-6.14h12.68v-2.79H623.77Z"/><path class="cls-1" d="M639.53,481.77H620.69a3.08,3.08,0,0,1-3.07-3.08v-8.94a3.07,3.07,0,0,1,3.07-3.07h18.84a3.07,3.07,0,0,1,3.08,3.07v8.94A3.08,3.08,0,0,1,639.53,481.77Zm-15.76-6.15h12.68v-2.8H623.77Z"/><path class="cls-1" d="M639.53,490.7H620.69a3.07,3.07,0,0,1-3.07-3.07v-8.94a3.07,3.07,0,0,1,3.07-3.07h18.84a3.07,3.07,0,0,1,3.08,3.07v8.94A3.07,3.07,0,0,1,639.53,490.7Zm-15.76-6.14h12.68v-2.79H623.77Z"/><path class="cls-1" d="M639.53,499.65H620.69a3.08,3.08,0,0,1-3.07-3.08v-8.94a3.07,3.07,0,0,1,3.07-3.07h18.84a3.07,3.07,0,0,1,3.08,3.07v8.94A3.08,3.08,0,0,1,639.53,499.65Zm-15.76-6.15h12.68v-2.8H623.77Z"/><path class="cls-1" d="M630.11,523.11c-5.23,0-9.18-6.36-9.18-14.8s4-14.81,9.18-14.81,9.18,6.37,9.18,14.81S635.35,523.11,630.11,523.11Zm0-23.46c-.76,0-3,3.07-3,8.66s2.27,8.65,3,8.65,3-3.07,3-8.65S630.87,499.65,630.11,499.65Z"/><path class="cls-1" d="M630.11,534.84c-5.23,0-9.18-6.36-9.18-14.8s4-14.81,9.18-14.81,9.18,6.37,9.18,14.81S635.35,534.84,630.11,534.84Zm0-23.46c-.76,0-3,3.07-3,8.66s2.27,8.66,3,8.66,3-3.07,3-8.66S630.87,511.38,630.11,511.38Z"/><path class="cls-1" d="M629.71,642.91a50.17,50.17,0,1,1,50.17-50.17A50.22,50.22,0,0,1,629.71,642.91Zm0-94.19a44,44,0,1,0,44,44A44.06,44.06,0,0,0,629.71,548.72Z"/><path class="cls-1" d="M629.77,629.19a36.55,36.55,0,0,1-36.51-36.51,3.08,3.08,0,0,1,6.15,0A30.4,30.4,0,0,0,629.77,623a3.08,3.08,0,1,1,0,6.15Z"/><path class="cls-1" d="M646.45,551.79a3.37,3.37,0,0,1-1.23-.2,43.6,43.6,0,0,0-31,0A3.08,3.08,0,0,1,610,548.7a19.67,19.67,0,0,1,39.31-1,3.12,3.12,0,0,1,.17,1A3.07,3.07,0,0,1,646.45,551.79Zm-16.74-9.21a49.28,49.28,0,0,1,12.75,1.68,13.51,13.51,0,0,0-25.49,0A49.2,49.2,0,0,1,629.71,542.58Z"/><path class="cls-1" d="M500,137.45c-200.25,0-362.57,162.32-362.57,362.57S299.77,862.55,500,862.55,862.55,700.27,862.55,500,700.23,137.45,500,137.45Zm.14,714.92c-194.29,0-351.8-157.51-351.8-351.8s157.51-351.8,351.8-351.8S852,306.28,852,500.57,694.45,852.37,500.16,852.37Z"/></svg>