<svg id="Layer_1" data-name="Layer 1" xmlns="http://www.w3.org/2000/svg" viewBox="0 0 1000 1000"><defs><style>.cls-1{fill:#9e804a;}</style></defs><path class="cls-1" d="M661.83,481.15c-.14,0-.64,0-.78-.07-4.9-.88-6-8.28-5.39-14.9.33-6.76,3.2-13.7,8-13.7a4.83,4.83,0,0,1,3.57,1.66c2.3,2.43,3.55,7.52,3.25,13.29C669.81,475.16,666,481.15,661.83,481.15Zm1.86-24.21c-.79,0-3.28,3.28-3.58,9.55-.63,6.83,1,10,1.72,10.2.88-.07,3.67-3.43,4.24-9.58C666.39,460.91,664.53,457.1,663.69,456.94Z"/><path class="cls-1" d="M659.57,493.07a4.12,4.12,0,0,1-1.11-.14c-3.87-1-5.39-6.23-4.38-15.15,1-6.4,4.22-13.17,8.85-13.17a5.2,5.2,0,0,1,4,2.07c2.08,2.65,2.82,7.79,1.92,13.41C668,487.21,663.82,493.07,659.57,493.07Zm3.34-24c-.87.07-3.45,3.3-4.42,9.32-.82,7.34.5,10.07,1.08,10.24,1,0,4.12-3.15,4.82-9.14.81-5,0-8.71-1-10C663.2,469.22,663,469.07,662.91,469.06Z"/><path class="cls-1" d="M656.57,504.84a4.6,4.6,0,0,1-1.51-.25c-4.51-1.54-4.86-9.16-3.28-15.59,2.46-8.25,5.58-12.37,9.29-12.37.12,0,.61,0,.72.05a5.18,5.18,0,0,1,3.59,2.57c2,3.12,2.33,8.38.86,13.4C664.76,498.67,661.18,504.84,656.57,504.84Zm4.54-23.76c-.78,0-3,2.22-5,9.09-1.43,5.84-.35,9.82.43,10.21,1.17,0,4-3.05,5.42-8.9,1.75-5.94.05-10.09-.82-10.4Z"/><path class="cls-1" d="M645.48,531.81a4.55,4.55,0,0,1-2.22-.57c-4.2-2.36-3.39-9.84-.41-16,2.33-4.82,6-10.56,10.41-10.56a4.83,4.83,0,0,1,1.59.27,5.05,5.05,0,0,1,3,3.06c1.43,3.4.86,8.68-1.43,13.44S649.86,531.81,645.48,531.81Zm7.87-22.66c-1.07,0-3.66,2.18-6.49,8-2.71,5.6-2.22,9.72-1.42,10.17,1.1,0,4.32-2.37,6.95-7.84s1.75-9.85,1-10.36Z"/><path class="cls-1" d="M639.4,542.29a4.62,4.62,0,0,1-2.59-.75c-4-2.67-2.52-10,1-15.89,2.26-4.75,6.54-9.74,10.75-9.74a4.67,4.67,0,0,1,4.53,3.31c1.17,3.14.33,8.33-2.18,13.53C647.43,538.62,642.94,542.29,639.4,542.29Zm9.32-21.91c-1.53,0-4.65,2.57-7,7.38-3.35,5.56-3.15,9.63-2.49,10.06,1.46,0,4.81-2.27,7.76-7.19,2.65-5.5,2.41-9.76,1.7-10.25Z"/><path class="cls-1" d="M632.65,552.32a4.72,4.72,0,0,1-3-1c-3.22-2.47-2.49-8,2.06-15.65,4-6.61,10-10.31,13.64-8.39a4.85,4.85,0,0,1,2.4,3.14c.89,3.2-.43,8.26-3.44,13.21S636.47,552.32,632.65,552.32Zm10.62-21.06c-1.62,0-4.94,2.16-7.71,6.75-3.82,6.4-3.65,9.45-3.15,9.84,1.84,0,5.45-2.05,8.12-6.49,3.48-5.73,3.31-9.68,2.78-10.1Z"/><path class="cls-1" d="M613.84,574.25a5.08,5.08,0,0,1-4-1.59c-2.7-3-1.1-8,4.76-15,5.36-5.81,11.77-8.34,14.91-5.88a5,5,0,0,1,1.88,3.74c.27,3.37-2,8.06-5.81,12.23C622.23,571.66,617.6,574.25,613.84,574.25Zm-.7-4.57a1.65,1.65,0,0,0,.7.11c2,0,5.59-1.72,8.39-5,3.45-3.73,4.85-7.22,4.71-8.92a.93.93,0,0,0-.18-.58c-2.2,0-5.62,1.84-8.83,5.32-4.67,5.56-5.25,8.59-4.79,9.1Z"/><path class="cls-1" d="M605.06,582.4a5.43,5.43,0,0,1-4.52-1.91c-1-1.27-1.77-3.59.27-7.42a23.64,23.64,0,0,1,5.64-7.39c2.67-2.26,7.64-6,11.66-6a5.09,5.09,0,0,1,3.5,1.26,5.16,5.16,0,0,1,1.58,4.09c-.06,3.65-2.69,8.21-6.71,11.65a25.3,25.3,0,0,1-8.27,5.19A11.5,11.5,0,0,1,605.06,582.4Zm13.34-18.13c-1.89,0-4.93,1.31-9,4.77a19.37,19.37,0,0,0-4.59,6c-.9,1.7-.87,2.56-.76,2.69a4.74,4.74,0,0,0,2.85-.07,21,21,0,0,0,6.64-4.28c4.71-4,5.64-8.42,5.08-9.1Z"/><path class="cls-1" d="M595.35,589.79a5.24,5.24,0,0,1-4.66-2.18c-2.65-4,1.53-10.29,7-14.39,3.14-2.35,7.67-5.15,11.41-5.15a5.26,5.26,0,0,1,4,1.58,5,5,0,0,1,1.23,4.08c-.3,3.65-3.23,8.07-7.46,11.26C602.85,588,598.55,589.79,595.35,589.79Zm-.93-4.63a1.55,1.55,0,0,0,.93.18c1.67,0,5-1,8.85-3.92,4.87-3.66,6.11-7.93,5.65-8.74a1.28,1.28,0,0,0-.72-.16c-1.47,0-4.54,1.12-8.75,4.27-5,3.77-6.41,7.7-6,8.37Z"/><path class="cls-1" d="M571.18,604.44c-4.26,0-5.73-2-6.23-3.18-1.89-4.45,3.39-9.79,9.58-12.76a22.82,22.82,0,0,1,10.37-3.22c3.13,0,4.65,1.32,5.37,2.43a5,5,0,0,1,.54,4c-.83,3.36-4.49,7.27-9.32,9.95A24.7,24.7,0,0,1,571.18,604.44Zm13.72-14.71c-2.16,0-5.27,1-8.32,2.72-5.78,2.78-7.84,6.34-7.53,7.07.07.1.63.46,2.13.46a20.44,20.44,0,0,0,8.26-2.25c5.62-3.13,7.35-6.9,7.08-7.6C586.44,590,586,589.73,584.9,589.73Z"/><path class="cls-1" d="M561,609.27c-3.92,0-6.63-1.38-7.43-3.8-1.59-4.67,4.35-9.21,10.44-11.9,6.67-3.22,13.89-3.17,15.9.48a4.83,4.83,0,0,1,.27,3.93c-1,3.17-4.89,6.7-10.11,9.21A23.1,23.1,0,0,1,561,609.27Zm12.55-13.69a18.73,18.73,0,0,0-7.67,2c-6.3,2.79-8.33,5.74-8.09,6.45.09.14,1,.75,3.21.75a18.4,18.4,0,0,0,7.21-1.67c6-2.89,8-6.28,7.79-6.95C575.89,596,575.14,595.58,573.54,595.58Z"/><path class="cls-1" d="M550.38,613.37c-4.53,0-7.78-1.71-8.47-4.47-1-3.86,2.87-7.71,11.18-11.12,7.39-2.62,14.27-1.94,15.94,1.68a5.12,5.12,0,0,1-.06,4.2c-1.33,3.12-5.48,6.24-10.82,8.14A20.85,20.85,0,0,1,550.38,613.37Zm11.33-12.77a21.82,21.82,0,0,0-7,1.34c-6.85,2.82-8.6,5.29-8.45,5.86.13.28,1.42,1.11,4.15,1.11a16.67,16.67,0,0,0,6.19-1.27c4.78-1.7,7.63-4.15,8.3-5.73a.91.91,0,0,0,.1-.6C564.89,601.18,564,600.6,561.71,600.6Z"/><path class="cls-1" d="M524,619.61a21,21,0,0,1-5.2-.6c-3.41-1.09-5.41-3.07-5.59-5.44-.13-1.6.52-3.94,4.32-6a23.89,23.89,0,0,1,8.8-3,40.93,40.93,0,0,1,4.64-.29c7.76,0,10,2.62,10.59,4.81a5.19,5.19,0,0,1-.95,4.28c-2.05,3-6.78,5.31-12.05,5.94A29.2,29.2,0,0,1,524,619.61Zm7-10.93a36.19,36.19,0,0,0-4,.25,19.47,19.47,0,0,0-7.14,2.46c-1.81,1-2.14,1.7-2.13,1.83s.65.95,2.39,1.51a21.52,21.52,0,0,0,7.92.11c4.66-.57,7.91-2.5,9-4.06a1.18,1.18,0,0,0,.29-.67C537.13,609.87,535.81,608.68,530.93,608.68Z"/><path class="cls-1" d="M514.25,620.87c-5.21,0-9.59-1.27-11.72-3.41A4.82,4.82,0,0,1,501,614c0-4.84,7-7.7,13.83-8,.82,0,1.63-.06,2.42-.06,9.44,0,11.93,3.05,12.36,5.61a5,5,0,0,1-1.23,4.08c-2.28,2.88-7.17,4.94-12.46,5.24C515.36,620.86,514.8,620.87,514.25,620.87Zm3-10.52c-.71,0-1.45,0-2.19.06-6.29.31-9.6,2.81-9.6,3.61s3.79,2.67,10.22,2.36c6.07-.34,9.46-3.22,9.53-4.15C525.14,611.66,523,610.35,517.27,610.35Z"/><path class="cls-1" d="M503.29,621.46c-5.57-.07-10.64-1.77-13-4.33a5,5,0,0,1-1.43-3.8c.39-5,7.7-6.78,13.85-6.78l1.83,0c7.3,0,12.66,2.74,13,6.66a4.89,4.89,0,0,1-1.3,3.71c-2.2,2.53-7.14,4.28-12.92,4.57ZM502.74,611c-6.37,0-9.35,1.94-9.41,2.68.1.74,3.39,3.21,9.92,3.31,6.24-.32,9.83-2.55,9.92-3.4-.08-.84-3.68-2.87-9.85-2.59Z"/><path class="cls-1" d="M477.67,619.22a33.64,33.64,0,0,1-4.67-.35,18.9,18.9,0,0,1-9.43-3.69c-3.72-2.79-3.72-5.44-3.38-6.76s1.56-3.61,6.07-4.37a36.89,36.89,0,0,1,9.12.1c6.67,1,13.48,4.56,13.09,9.31C488.16,617.07,484.12,619.22,477.67,619.22Zm-7.56-11a24,24,0,0,0-3.2.19c-1.68.28-2.36.87-2.4,1s.19,1,1.8,2.16a14.73,14.73,0,0,0,7.3,2.78,28.43,28.43,0,0,0,4.06.32c4.37,0,6.32-1.21,6.36-1.69,0-.8-3.2-3.63-9.24-4.51A38.72,38.72,0,0,0,470.11,608.27Z"/><path class="cls-1" d="M466.86,617.12a22.94,22.94,0,0,1-6.41-1,25,25,0,0,1-8.89-4.06c-3.63-3.26-3.43-5.91-3-7.21s1.83-3.46,6.38-3.83a25.29,25.29,0,0,1,9.24.66c4,1.19,13.14,4.5,12.24,10.14C475.91,615.06,472.16,617.12,466.86,617.12Zm-9.18-11.79a15.45,15.45,0,0,0-2.22.16c-1.92.16-2.61.66-2.67.83s.23,1.11,1.63,2.37a21.12,21.12,0,0,0,7.21,3.18,19,19,0,0,0,5.23.79c3.44,0,5.11-1.14,5.16-1.5.11-.67-2.42-3.19-9-5.13A21.91,21.91,0,0,0,457.68,605.33Z"/><path class="cls-1" d="M455.76,614.05a22,22,0,0,1-7.5-1.39c-5.44-2-9.63-5.12-10.94-8.18a4.83,4.83,0,0,1-.1-3.94c1-2.31,3.71-3.58,7.6-3.58a24.44,24.44,0,0,1,8.29,1.6c8.31,3.09,12.36,7,11.4,10.93C463.86,612.29,460.5,614.05,455.76,614.05Zm-10.94-12.63c-2.34,0-3.39.62-3.51.9-.14.69,2.15,3.84,8.47,6.15a17.68,17.68,0,0,0,6,1.12c2.87,0,4.27-.87,4.43-1.17.14-.59-1.63-3.08-8.63-5.68A20.3,20.3,0,0,0,444.82,601.42Z"/><path class="cls-1" d="M430.64,603.37a23.27,23.27,0,0,1-10.23-2.85c-5.07-3.07-8.59-7-9.31-10.23a4.86,4.86,0,0,1,.63-3.88c.73-1.08,2.27-2.37,5.41-2.37a21.32,21.32,0,0,1,10.51,3.45c6,3.1,11.23,8.29,9.26,12.75C436.4,601.4,434.9,603.37,430.64,603.37Zm-13.5-14.87c-1.18,0-1.63.29-1.71.4-.33.78,1.78,4.47,7.17,7.74a18.61,18.61,0,0,0,8,2.27c1.53,0,2.12-.38,2.2-.48.34-.78-1.75-4.13-7.37-7.06A17.52,17.52,0,0,0,417.14,588.5Z"/><path class="cls-1" d="M420.59,597.66c-3.12,0-7.14-1.36-11-3.73-4.59-3-7.9-7.15-8.48-10.68a5,5,0,0,1,.89-4.07,5.53,5.53,0,0,1,4.59-2c4,0,8.67,2.62,11.1,4.19,5.8,3.52,10.55,9.35,8.28,13.61C425.41,596,424,597.66,420.59,597.66Zm-14-16a1.64,1.64,0,0,0-1.09.26c-.36.79,1.28,4.87,6.46,8.22,3.06,1.87,6.4,3,8.66,3a2.39,2.39,0,0,0,1.42-.28c.38-.71-1.35-4.47-6.72-7.73C411.91,583,408.59,581.68,406.56,581.68Z"/><path class="cls-1" d="M410.53,591.21c-3.24,0-7.49-1.77-11.35-4.73-4.2-2.92-7.23-7.24-7.63-10.94a4.95,4.95,0,0,1,5.2-5.85c3.58,0,8.18,2.66,11.42,4.9,5.34,4.09,9.84,10.25,7.29,14.26A5.55,5.55,0,0,1,410.53,591.21Zm-13.78-17.06c-.17,0-.58,0-.73.17-.46.79.84,5.11,5.79,8.56,5.26,4,9.59,4.07,9.89,3.58.36-.78-1.29-4.54-6.16-8.27C401.91,575.68,398.59,574.15,396.75,574.15Z"/><path class="cls-1" d="M388.47,572.59a10.85,10.85,0,0,1-3.69-.73,22.7,22.7,0,0,1-8-6c-3.68-3.83-5.9-8.62-5.62-12.18a5.11,5.11,0,0,1,1.94-3.89,4.84,4.84,0,0,1,3-1c4.45,0,9.64,4.85,11.65,6.94a25.93,25.93,0,0,1,5,7.92c1.81,4.13.51,6.4-.42,7.38A5.16,5.16,0,0,1,388.47,572.59Zm-12.34-19.31c-.35.08-.47.27-.51.75-.15,1.86,1.18,5.39,4.43,8.77a19.15,19.15,0,0,0,6.3,4.9c2.13.76,2.75.37,2.8.31s.31-.86-.45-2.6a22.06,22.06,0,0,0-4.15-6.57C380.87,555,377.6,553.28,376.13,553.28Z"/><path class="cls-1" d="M380.38,563.72a10.13,10.13,0,0,1-4.2-1.08,19.12,19.12,0,0,1-7.66-6.59c-3.47-4.67-5.21-9.44-4.63-12.72a5,5,0,0,1,2.17-3.43c3.4-2.2,9.82,1,14.32,7.12a37,37,0,0,1,4.42,8c1.46,4.41,0,6.57-1,7.48A5,5,0,0,1,380.38,563.72Zm-11.64-20.11a.61.61,0,0,0-.46.51c-.29,1.6.8,5.2,3.86,9.32a15,15,0,0,0,5.87,5.14c2.36,1.11,2.76.63,2.8.61s.35-1-.22-2.72a32.57,32.57,0,0,0-3.83-6.85C373.71,545.49,370.22,543.61,368.74,543.61Z"/><path class="cls-1" d="M372.85,554.3c-3.6,0-8.2-3.28-11.75-8.36-3.08-5.06-4.41-10.13-3.55-13.36a4.89,4.89,0,0,1,2.35-3.16c3.66-2,9.58,1.6,13.64,8.3,3.85,5.5,6.12,12.54,2.32,15.58A4.76,4.76,0,0,1,372.85,554.3Zm-10.58-21c-.76.47-.92,4.49,2.56,10.2,3,4.34,6.53,6.35,8,6.35.9-.57.59-4.5-3-9.71C366.94,535.44,363.63,533.3,362.27,533.3Z"/><path class="cls-1" d="M357.54,529.6c-4.4,0-8.66-5.62-11-10.42-2.17-5.39-2.56-10.61-1.08-13.76a4.68,4.68,0,0,1,4.41-3c4.45,0,8.35,5.83,10.34,10.84,2.93,6,3.73,13.5-.54,15.8A4.53,4.53,0,0,1,357.54,529.6Zm-7.63-22.73c-.72.38-1.71,4.39.74,10.51,2.59,5.38,5.83,7.76,6.89,7.76.76-.38,1.37-4.44-1.36-10.09C354.05,509.73,351.14,506.87,349.91,506.87Z"/><path class="cls-1" d="M352.37,518.58c-4.47,0-8.25-5.85-10.29-11.34a19,19,0,0,1-1.3-10c.65-4.61,3-5.89,4.31-6.23,2.24-.57,4.65.57,6.74,3.2a37.7,37.7,0,0,1,4.3,8.05c2.38,6.41,2.34,14.08-1.84,15.95A4.69,4.69,0,0,1,352.37,518.58Zm-6.14-23.29c-.2,0-.78.78-1.05,2.62a14.88,14.88,0,0,0,1.06,7.73c2.32,6.24,5.58,8.81,6.24,8.47s1.57-4.68-.51-10.26a34.29,34.29,0,0,0-3.68-7C347.3,495.64,346.51,495.29,346.23,495.29Z"/><path class="cls-1" d="M348.32,507.13c-4.08,0-8.34-5.24-9.9-12.19a24.87,24.87,0,0,1-.73-9.75c1.15-4.76,3.56-5.85,4.89-6.1.13,0,.67-.07.81-.07,1.43,0,3.57.67,5.61,3.84a23.94,23.94,0,0,1,3.86,8.4c1.88,8.45.76,14.26-3,15.61A4.55,4.55,0,0,1,348.32,507.13Zm-4.93-23.65c-.2,0-.87.71-1.33,2.59a21,21,0,0,0,.69,7.83c1.29,5.7,4.35,8.78,5.57,8.78.69-.24,1.7-3.67.21-10.38a19.74,19.74,0,0,0-3.16-6.87C344.31,483.81,343.57,483.48,343.39,483.48Z"/><path class="cls-1" d="M341.9,478.73c-1.49,0-3.69-.72-5.76-4.15a18.91,18.91,0,0,1-2.73-9.74c-.29-5.67.95-10.74,3.23-13.15a4.88,4.88,0,0,1,3.57-1.65c4.88.07,7.74,7,8.08,13.88a37.62,37.62,0,0,1-.75,9.1c-1.23,4.46-3.63,5.46-5,5.66C342.47,478.7,342,478.73,341.9,478.73Zm-1.69-24.23c-.68.14-2.69,3.47-2.35,10.19a14.73,14.73,0,0,0,2.06,7.53c1,1.72,1.82,2.06,2,2.06v0c.18,0,.84-.64,1.31-2.37a32.57,32.57,0,0,0,.61-7.84C343.53,457.91,341.12,454.51,340.21,454.5Z"/><path class="cls-1" d="M340.66,466.65c-4.93,0-7.54-7.4-7.87-14.27.33-7.09,2.94-14.48,7.87-14.48,5.22.44,7.39,7.62,7,14.49.36,6.64-1.81,13.82-6.64,14.25Zm0-24.29c-.68.06-3.08,3.31-3.41,10,.33,6.49,2.73,9.74,3.42,9.82.79-.08,2.91-3.56,2.58-9.81C343.57,445.9,341.45,442.43,340.65,442.36Z"/><path class="cls-1" d="M340.21,454.5a4.86,4.86,0,0,1-3.57-1.65c-2.28-2.4-3.52-7.47-3.23-13.21a18.93,18.93,0,0,1,2.76-9.72c2-3.38,4.25-4.1,5.73-4.1l.68.05c1.32.2,3.73,1.19,4.94,5.6a37.07,37.07,0,0,1,.77,9.09c-.34,6.92-3.21,13.88-8,13.94Zm1.7-24.22c-.17,0-1,.34-2,2a14.61,14.61,0,0,0-2.08,7.51c-.35,6.77,1.65,10.11,2.34,10.25.81,0,3.31-3.33,3.63-9.63a33,33,0,0,0-.63-7.82c-.46-1.67-1.12-2.28-1.3-2.31Z"/><path class="cls-1" d="M343.39,425.52c-.13,0-.68,0-.81-.07-1.33-.23-3.74-1.32-4.85-5.93a24.85,24.85,0,0,1,.7-10c1.75-7.79,7.19-13.4,11.44-11.87,3.75,1.35,4.87,7.15,3,15.53a24.43,24.43,0,0,1-4,8.63C347,424.86,344.82,425.52,343.39,425.52Zm5-23.64c-1.27,0-4.33,3.07-5.6,8.71a21.13,21.13,0,0,0-.67,8.05c.46,1.87,1.16,2.4,1.28,2.42s1-.43,1.89-1.79a20,20,0,0,0,3.29-7.09c1.47-6.64.46-10.07-.19-10.3Z"/><path class="cls-1" d="M346.23,413.72a4.87,4.87,0,0,1-1.14-.14c-1.33-.35-3.66-1.63-4.32-6.31a19,19,0,0,1,1.33-10c2-5.44,5.8-11.3,10.27-11.3a4.86,4.86,0,0,1,1.92.4c4.18,1.88,4.22,9.56,1.86,15.9a38.16,38.16,0,0,1-4.26,8C350.09,412.56,348.16,413.72,346.23,413.72Zm6.22-23.29c-1.09,0-4,2.55-6.19,8.43a14.91,14.91,0,0,0-1.09,7.71c.28,1.91.86,2.65,1,2.69s1.1-.35,2.14-1.67a33.59,33.59,0,0,0,3.65-6.95c2.06-5.52,1.26-9.72.47-10.21Z"/><path class="cls-1" d="M349.91,402.13a4.68,4.68,0,0,1-4.41-3c-1.48-3.15-1.09-8.37,1-13.62,2.37-4.94,6.63-10.56,11-10.56a4.6,4.6,0,0,1,2.18.54c4.26,2.3,3.46,9.77.47,15.95C358.26,396.3,354.35,402.13,349.91,402.13Zm7.68-22.71c-1.12,0-4.35,2.38-7,7.89-2.39,6-1.4,10-.77,10.36,1.31,0,4.23-2.85,6.3-8,2.79-5.79,2.18-9.85,1.48-10.23Z"/><path class="cls-1" d="M362.27,375.72a4.77,4.77,0,0,1-4.72-3.75c-.86-3.23.47-8.3,3.48-13.24,4.79-6.87,11.47-10.17,14.83-7.48,3.8,3,1.54,10.08-2.4,15.71C370.27,372.23,365.85,375.72,362.27,375.72Zm10.77-21c-1.73,0-5.2,2-8.28,6.44-3.41,5.59-3.25,9.61-2.72,10.05,1.59,0,4.9-2.1,7.69-6.69,3.72-5.32,4-9.26,3.35-9.8Z"/><path class="cls-1" d="M368.73,365.4a4.83,4.83,0,0,1-2.66-.74,5,5,0,0,1-2.18-3.44c-.58-3.27,1.16-8.05,4.67-12.78a19.14,19.14,0,0,1,7.67-6.55c3-1.43,5.86-1.39,7.58.18,1,.91,2.45,3.07,1,7.41a36.46,36.46,0,0,1-4.4,8C376.9,362.23,372.21,365.4,368.73,365.4Zm11.62-20a5.17,5.17,0,0,0-2.28.6,14.89,14.89,0,0,0-5.9,5.11c-3.1,4.17-4.18,7.77-3.89,9.37,0,.12.09.41.21.49,1.72,0,5.21-1.86,8.31-6a32,32,0,0,0,3.81-6.87c.55-1.64.34-2.52.2-2.64A3.46,3.46,0,0,0,380.35,345.35Z"/><path class="cls-1" d="M376.13,355.72a4.84,4.84,0,0,1-3-1,5.13,5.13,0,0,1-1.95-3.91c-.28-3.55,1.94-8.34,5.65-12.2a22.78,22.78,0,0,1,7.89-6c3.94-1.44,6.66-.3,7.67.77s2.22,3.25.39,7.44a25.86,25.86,0,0,1-5,7.82C385.76,350.87,380.58,355.72,376.13,355.72Zm12.34-19.31a6.45,6.45,0,0,0-2.17.47,18.87,18.87,0,0,0-6.22,4.84c-3.28,3.4-4.61,6.94-4.46,8.8a1.28,1.28,0,0,0,.19.7l.32,0c1.47,0,4.73-1.75,8.45-5.59a21.79,21.79,0,0,0,4.09-6.48c.73-1.67.61-2.52.48-2.65S388.93,336.41,388.47,336.41Z"/><path class="cls-1" d="M396.74,334.86a5.21,5.21,0,0,1-4-1.62,5.16,5.16,0,0,1-1.18-4.23c.4-3.7,3.43-8,7.71-11,6.38-4.87,13.81-6.05,16.2-2.32,2.55,4-1.95,10.19-7.2,14.21C404.93,332.2,400.32,334.86,396.74,334.86Zm13.79-17.06c-1.69,0-5,1-8.63,3.8-5,3.52-6.34,7.84-5.87,8.65a1.27,1.27,0,0,0,.71.15c1.84,0,5.17-1.53,8.9-4.1,4.79-3.67,6.43-7.44,6.06-8.22C411.62,318,411.21,317.8,410.53,317.8Z"/><path class="cls-1" d="M406.57,327.33a5.51,5.51,0,0,1-4.6-2,5,5,0,0,1-.89-4.06c.58-3.53,3.89-7.71,8.43-10.65,3.94-2.4,8-3.76,11.08-3.76,3.42,0,4.82,1.65,5.35,2.64,2.27,4.26-2.47,10.09-8.34,13.64C415.23,324.7,410.57,327.33,406.57,327.33Zm14-16c-2.26,0-5.6,1.18-8.71,3.08-5.12,3.31-6.77,7.39-6.4,8.19.09.12.43.25,1.09.25,2,0,5.34-1.33,8.67-3.48,5.43-3.29,7.15-7.05,6.76-7.76A2.4,2.4,0,0,0,420.59,311.35Z"/><path class="cls-1" d="M417.14,320.51c-3.15,0-4.68-1.29-5.41-2.38a4.86,4.86,0,0,1-.63-3.88c.72-3.27,4.24-7.16,9.19-10.15a23.41,23.41,0,0,1,10.35-2.92c4.26,0,5.76,2,6.27,3.14,2,4.45-3.3,9.64-9.39,12.81A21.22,21.22,0,0,1,417.14,320.51Zm13.5-14.87a18.86,18.86,0,0,0-8.16,2.34c-5.6,3.39-7.31,7-7.05,7.67.08.11.53.41,1.71.41a17.25,17.25,0,0,0,8.2-2.81c5.75-3,7.84-6.35,7.49-7.14A3.41,3.41,0,0,0,430.64,305.64Z"/><path class="cls-1" d="M444.81,307.59c-3.88,0-6.58-1.27-7.59-3.57a4.86,4.86,0,0,1,.1-3.95c1.31-3.06,5.5-6.19,10.94-8.18a22,22,0,0,1,7.5-1.39c4.74,0,8.1,1.76,8.76,4.58,1,3.94-3.09,7.82-11.4,10.91A24.79,24.79,0,0,1,444.81,307.59ZM455.76,295a17.58,17.58,0,0,0-6,1.12c-6.33,2.31-8.62,5.47-8.48,6.16.12.27,1.17.89,3.5.89a20.41,20.41,0,0,0,6.76-1.32c7-2.6,8.76-5.08,8.61-5.7C460,295.83,458.64,295,455.76,295Z"/><path class="cls-1" d="M457.7,303.68a19,19,0,0,1-2.92-.22c-4.39-.34-5.78-2.53-6.22-3.81s-.63-3.95,2.88-7.11a25.25,25.25,0,0,1,9.08-4.18,22.8,22.8,0,0,1,6.35-.93c5.29,0,9,2.07,9.55,5.26.9,5.62-8.2,8.94-12.16,10.11A26.71,26.71,0,0,1,457.7,303.68Zm9.17-11.79a19,19,0,0,0-5.17.77,21.1,21.1,0,0,0-7.41,3.3c-1.27,1.16-1.56,2.09-1.5,2.27s.75.67,2.51.81a18.8,18.8,0,0,0,7.77-.54c6.53-1.93,9.06-4.44,8.95-5.11C472,293.08,470.5,291.89,466.87,291.89Z"/><path class="cls-1" d="M470.1,300.73a30.19,30.19,0,0,1-3.75-.21c-4.6-.78-5.83-3.08-6.16-4.38s-.34-4,3.44-6.82a18.88,18.88,0,0,1,9.42-3.64,31,31,0,0,1,4.61-.35c6.46,0,10.5,2.15,10.81,5.76.39,4.74-6.42,8.33-13,9.3A43.25,43.25,0,0,1,470.1,300.73Zm7.56-11a27.27,27.27,0,0,0-4,.31,14.84,14.84,0,0,0-7.27,2.74c-1.68,1.26-1.9,2.1-1.87,2.21s.72.77,2.49,1.07a35,35,0,0,0,7.85-.13c6-.89,9.16-3.7,9.18-4.52C484,291,482,289.78,477.66,289.78Z"/><path class="cls-1" d="M504.57,298c-.49,0-1,0-1.48,0-6.51,0-13.81-1.79-14.2-6.79a4.94,4.94,0,0,1,1.43-3.79c2.32-2.55,7.4-4.25,12.94-4.33,5.91.28,10.86,2,13,4.57a4.89,4.89,0,0,1,1.3,3.71C517.23,295.29,511.87,298,504.57,298Zm-1.39-4.49c6.22.27,9.91-1.76,10-2.61-.06-.67-3.3-3.07-10-3.4-6.43.1-9.74,2.59-9.84,3.33.06.73,3.05,2.68,9.43,2.68Z"/><path class="cls-1" d="M517.27,298.66c-.79,0-1.6,0-2.43-.07-6.84-.34-13.79-3.21-13.82-8a4.81,4.81,0,0,1,1.51-3.47c2.36-2.36,7.48-3.69,13.4-3.37,5.3.3,10.19,2.36,12.47,5.25a5,5,0,0,1,1.23,4.09C529.2,295.6,526.71,298.66,517.27,298.66Zm-3-10.53c-5.75,0-8.66,1.75-8.79,2.41s3.31,3.29,9.59,3.6c.75,0,1.49.06,2.2.06,5.72,0,7.87-1.3,8-1.9-.07-.91-3.46-3.78-9.54-4.13C515.22,288.14,514.74,288.13,514.27,288.13Z"/><path class="cls-1" d="M530.92,300.33a40.82,40.82,0,0,1-4.56-.28,24.16,24.16,0,0,1-9-3.11c-3.68-2-4.33-4.36-4.2-6,.18-2.37,2.18-4.34,5.47-5.41a25.05,25.05,0,0,1,10-.27c5.21.63,9.94,3,12,5.94a5.16,5.16,0,0,1,.94,4.29C541,297.72,538.68,300.33,530.92,300.33ZM524,289.4a17.13,17.13,0,0,0-4.1.45c-1.62.53-2.25,1.28-2.27,1.48s.32.83,2,1.77a19.61,19.61,0,0,0,7.33,2.53,33.64,33.64,0,0,0,4,.24c4.89,0,6.21-1.19,6.27-1.43a1.21,1.21,0,0,0-.29-.68c-1.07-1.56-4.32-3.49-8.92-4.05A27.55,27.55,0,0,0,524,289.4Z"/><path class="cls-1" d="M561.71,308.41a26.46,26.46,0,0,1-8.52-1.6c-8.52-3.5-12.28-7.24-11.28-11.17.69-2.75,3.94-4.46,8.48-4.46a21.1,21.1,0,0,1,7.85,1.6c5.25,1.86,9.4,5,10.73,8.11a5.07,5.07,0,0,1,.06,4.18C568,307.23,565.44,308.41,561.71,308.41Zm-11.32-12.78c-2.73,0-4,.84-4.17,1.13s1.07,2.81,8.56,5.88a21.47,21.47,0,0,0,6.93,1.32c2.31,0,3.18-.59,3.27-.74a1,1,0,0,0-.11-.59c-.67-1.57-3.52-4-8.21-5.69A17,17,0,0,0,550.39,295.63Z"/><path class="cls-1" d="M573.54,313.43a22.89,22.89,0,0,1-9.61-2.48c-6-2.66-12-7.2-10.37-11.89.8-2.4,3.51-3.78,7.44-3.78a23.05,23.05,0,0,1,9,2.05c5.28,2.54,9.16,6.07,10.17,9.25a4.8,4.8,0,0,1-.27,3.92C578.86,312.39,576.61,313.43,573.54,313.43ZM561,299.74c-2.26,0-3.13.61-3.23.77-.23.7,1.8,3.64,8,6.39a18.78,18.78,0,0,0,7.74,2.07c1.6,0,2.35-.41,2.46-.61.2-.67-1.78-4.05-7.87-7A18.42,18.42,0,0,0,561,299.74Z"/><path class="cls-1" d="M584.9,319.27c-2.92,0-6.75-1.2-10.49-3.28-6.07-2.91-11.35-8.25-9.46-12.71.5-1.18,2-3.17,6.23-3.17a24.63,24.63,0,0,1,10.2,2.7c4.94,2.74,8.6,6.65,9.43,10a5,5,0,0,1-.55,4C589.55,318,588,319.27,584.9,319.27Zm-13.72-14.7c-1.5,0-2.06.36-2.13.46-.31.73,1.75,4.29,7.41,7,3.17,1.76,6.28,2.77,8.44,2.77,1.09,0,1.54-.26,1.63-.39.26-.7-1.47-4.47-7.2-7.65A20.24,20.24,0,0,0,571.18,304.57Z"/><path class="cls-1" d="M609.13,336.49c-3.73,0-8.27-2.81-11.42-5.17-5.49-4.09-9.67-10.35-7-14.38a5.21,5.21,0,0,1,4.66-2.18c3.2,0,7.51,1.79,11.52,4.8,4.24,3.19,7.18,7.61,7.47,11.27a5.07,5.07,0,0,1-1.23,4.08A5.29,5.29,0,0,1,609.13,336.49Zm-13.78-17.27a1.68,1.68,0,0,0-.94.17c-.44.67.92,4.6,6,8.36,4.22,3.16,7.28,4.27,8.75,4.27a1.19,1.19,0,0,0,.73-.17c.45-.8-.79-5.06-5.67-8.72C600.34,320.24,597,319.22,595.35,319.22Z"/><path class="cls-1" d="M618.11,344.83c-4,0-9-3.71-11.6-5.91a24.09,24.09,0,0,1-5.77-7.56c-2-3.7-1.2-6-.2-7.3a5.43,5.43,0,0,1,4.52-1.91,11.29,11.29,0,0,1,3,.45,25.29,25.29,0,0,1,8.45,5.28c4,3.39,6.6,8,6.66,11.6a5.16,5.16,0,0,1-1.58,4.09A5.09,5.09,0,0,1,618.11,344.83Zm-13.05-18.22a1.67,1.67,0,0,0-1,.21c-.08.1-.2.88.7,2.57a19.57,19.57,0,0,0,4.71,6.18c4.91,4.16,8.69,5.14,9.17,4.7.55-.68-.39-5.09-5-9a21.16,21.16,0,0,0-6.82-4.38A7.18,7.18,0,0,0,605.06,326.61Z"/><path class="cls-1" d="M626.38,353.79c-3.36,0-7.85-2.6-11.72-6.79-5.93-7.06-7.53-12.12-4.83-15.12a5.11,5.11,0,0,1,4-1.58c3.76,0,8.39,2.59,11.79,6.61,3.79,4.09,6,8.78,5.75,12.15a4.81,4.81,0,0,1-5,4.73Zm-12.54-19a1.28,1.28,0,0,0-.71.12c-.45.5.13,3.53,4.87,9.18,3.18,3.43,6.64,5.27,8.38,5.27a1.05,1.05,0,0,0,.39-.05.92.92,0,0,0,.17-.57c.14-1.7-1.26-5.19-4.64-8.85C619.43,336.49,615.89,334.76,613.84,334.76Z"/><path class="cls-1" d="M643.09,377.78c-3.56,0-8.11-3.59-11.34-8.93-4.56-7.62-5.29-13.18-2.06-15.68,3.42-2.68,10.68,1.09,14.66,7.72,3,4.94,4.32,10,3.43,13.21a4.85,4.85,0,0,1-2.4,3.13A4.78,4.78,0,0,1,643.09,377.78Zm-10.45-21.1c-.73.41-.91,3.46,2.93,9.87,2.79,4.61,6.14,6.77,7.52,6.77.75-.45.92-4.4-2.56-10.13C637.86,358.75,634.25,356.68,632.64,356.68Z"/><path class="cls-1" d="M648.6,388.65c-4.21,0-8.48-5-10.85-9.93-3.46-5.69-5-13-.94-15.71,3.55-2.36,9.69,1.38,14,8.61,2.61,5.38,3.45,10.56,2.28,13.71a4.89,4.89,0,0,1-2.62,2.93A4.94,4.94,0,0,1,648.6,388.65Zm-9.2-21.94c-.78.45-1,4.53,2.26,9.89,2.42,5,5.56,7.59,6.94,7.59.7-.41,1.26-4.4-1.66-10.45C644.08,369,640.73,366.71,639.4,366.71Z"/><path class="cls-1" d="M653.26,399.87c-4.37,0-8.08-5.74-10.41-10.54-3-6.18-3.79-13.66.4-16a4.52,4.52,0,0,1,2.23-.58c4.38,0,8.62,5.59,10.92,10.37s2.86,10,1.43,13.43a5,5,0,0,1-3,3.06A4.63,4.63,0,0,1,653.26,399.87Zm-7.78-22.67c-.84.45-1.33,4.57,1.38,10.19,3,6.08,5.51,8.28,6.52,8,.76-.5,1.65-4.86-1-10.35S646.54,377.2,645.48,377.2Z"/><path class="cls-1" d="M661.07,427.92c-3.71,0-6.83-4.12-9.26-12.27-1.61-6.53-1.26-14.15,3.25-15.69a4.6,4.6,0,0,1,1.51-.25c4.61,0,8.19,6.17,9.69,12.29,1.45,4.91,1.11,10.17-.88,13.3a5.17,5.17,0,0,1-3.6,2.57C661.67,427.89,661.19,427.92,661.07,427.92Zm-4.5-23.75c-.84.39-1.92,4.38-.46,10.31,2,6.77,4.22,9,5,9v2.23l0-2.24c.87-.3,2.57-4.45.85-10.3C660.5,407.23,657.68,404.17,656.57,404.17Z"/><path class="cls-1" d="M662.93,439.94c-4.63,0-7.83-6.77-8.84-13.07-1-9,.5-14.26,4.38-15.26a4.42,4.42,0,0,1,1.1-.13c4.25,0,8.4,5.87,9.25,13.07.89,5.53.15,10.67-1.94,13.32a5,5,0,0,1-3.62,2.05Zm-3.36-24c-.57.15-1.9,2.88-1.06,10.34.94,5.91,3.52,9.15,4.41,9.21a.86.86,0,0,0,.46-.37c1-1.33,1.82-5,1-9.95C663.69,419.08,660.53,415.93,659.57,415.93Z"/><path class="cls-1" d="M663.71,452.08c-4.85,0-7.72-6.94-8.05-13.8-.61-6.53.49-13.93,5.4-14.81.13,0,.63-.06.77-.06,4.16,0,8,6,8.68,13.63.31,5.85-.94,10.95-3.23,13.37A4.91,4.91,0,0,1,663.71,452.08Zm-1.88-24.22c-.73.13-2.36,3.33-1.73,10.11.31,6.34,2.78,9.63,3.6,9.64.67-.14,2.71-3.6,2.37-10.25C665.5,431.28,662.7,427.91,661.83,427.86Z"/><path class="cls-1" d="M517.35,658.45a3.07,3.07,0,0,1-3.06-3.07v-5.77a8.82,8.82,0,0,0-17.63,0v5.77a3.07,3.07,0,1,1-6.13,0v-5.77a14.95,14.95,0,1,1,29.89,0v5.77A3.07,3.07,0,0,1,517.35,658.45Z"/><path class="cls-1" d="M505.48,713.65a14.84,14.84,0,0,1-14.83-14.82,3.07,3.07,0,1,1,6.14,0,8.7,8.7,0,0,0,8.69,8.69,3.07,3.07,0,0,1,0,6.13Z"/><path class="cls-1" d="M505.48,725.69a26.66,26.66,0,0,1-19-7.87A27.06,27.06,0,0,1,480.1,690a.42.42,0,0,0,0-.1l10.52-35.36a3.07,3.07,0,1,1,5.88,1.75L486,691.86c0,.12-.08.24-.13.36a20.89,20.89,0,0,0,5,21.27,20.74,20.74,0,0,0,29.32,0,20.9,20.9,0,0,0,5-21.28,3.62,3.62,0,0,1-.13-.35l-10.58-35.6a3.06,3.06,0,1,1,5.87-1.75l10.52,35.36a.42.42,0,0,0,0,.1,27,27,0,0,1-6.38,27.85A26.65,26.65,0,0,1,505.48,725.69Z"/><path class="cls-1" d="M517.35,658.45H493.6a3.07,3.07,0,0,1,0-6.14h23.75a3.07,3.07,0,0,1,0,6.14Z"/><path class="cls-1" d="M494.45,693.68a2.94,2.94,0,0,1-.72-.08,3.06,3.06,0,0,1-2.26-3.7l.61-2.56a3.07,3.07,0,0,1,6,1.44l-.62,2.56A3.07,3.07,0,0,1,494.45,693.68Z"/><path class="cls-1" d="M505.48,640.8a10.72,10.72,0,1,1,10.71-10.72A10.73,10.73,0,0,1,505.48,640.8Zm0-15.3a4.58,4.58,0,1,0,4.58,4.58A4.59,4.59,0,0,0,505.48,625.5Z"/><path class="cls-1" d="M438.27,651a1.76,1.76,0,0,1-1.76-1.76v-3.33a5.08,5.08,0,0,0-10.16,0v3.33a1.77,1.77,0,0,1-3.53,0v-3.33a8.61,8.61,0,1,1,17.22,0v3.33A1.76,1.76,0,0,1,438.27,651Z"/><path class="cls-1" d="M431.43,682.83a8.55,8.55,0,0,1-8.54-8.54,1.77,1.77,0,0,1,3.54,0,5,5,0,0,0,5,5,1.77,1.77,0,1,1,0,3.53Z"/><path class="cls-1" d="M431.43,689.77a15.38,15.38,0,0,1-10.94-4.53,15.59,15.59,0,0,1-3.68-16l0-.06,6.06-20.37a1.76,1.76,0,1,1,3.38,1l-6.1,20.51a1.72,1.72,0,0,1-.07.21A12,12,0,0,0,423,682.74a11.94,11.94,0,0,0,16.89,0,12,12,0,0,0,2.87-12.26,1.18,1.18,0,0,1-.07-.2l-6.1-20.51a1.77,1.77,0,1,1,3.39-1l6,20.37,0,.06a15.59,15.59,0,0,1-3.67,16A15.4,15.4,0,0,1,431.43,689.77Z"/><path class="cls-1" d="M438.27,651H424.59a1.77,1.77,0,1,1,0-3.53h13.68a1.77,1.77,0,1,1,0,3.53Z"/><path class="cls-1" d="M425.08,671.33a1.51,1.51,0,0,1-.42-.05,1.76,1.76,0,0,1-1.3-2.13l.36-1.47a1.76,1.76,0,1,1,3.43.83L426.8,670A1.77,1.77,0,0,1,425.08,671.33Z"/><path class="cls-1" d="M431.43,640.86a6.17,6.17,0,1,1,6.18-6.17A6.18,6.18,0,0,1,431.43,640.86Zm0-8.81a2.64,2.64,0,1,0,2.64,2.64A2.64,2.64,0,0,0,431.43,632.05Z"/><path class="cls-1" d="M597,645.51a1.77,1.77,0,0,1-1.77-1.77v-3.32a5.08,5.08,0,1,0-10.15,0v3.32a1.77,1.77,0,0,1-3.54,0v-3.32a8.61,8.61,0,0,1,17.22,0v3.32A1.76,1.76,0,0,1,597,645.51Z"/><path class="cls-1" d="M590.14,677.31a8.55,8.55,0,0,1-8.54-8.54,1.77,1.77,0,0,1,3.54,0,5,5,0,0,0,5,5,1.77,1.77,0,1,1,0,3.53Z"/><path class="cls-1" d="M590.14,684.25a15.38,15.38,0,0,1-10.94-4.53,15.59,15.59,0,0,1-3.67-16.05.14.14,0,0,1,0-.06l6.06-20.37a1.76,1.76,0,1,1,3.38,1l-6.1,20.51a1.72,1.72,0,0,1-.07.21,12,12,0,0,0,2.88,12.25,11.94,11.94,0,0,0,16.89,0A12,12,0,0,0,601.47,665a1.19,1.19,0,0,1-.08-.2l-6.1-20.51a1.77,1.77,0,0,1,3.39-1l6.06,20.37a.14.14,0,0,0,0,.06,15.59,15.59,0,0,1-3.67,16.05A15.4,15.4,0,0,1,590.14,684.25Z"/><path class="cls-1" d="M597,645.51H583.3a1.77,1.77,0,1,1,0-3.53H597a1.77,1.77,0,0,1,0,3.53Z"/><path class="cls-1" d="M583.79,665.81a2,2,0,0,1-.42,0,1.77,1.77,0,0,1-1.3-2.13l.36-1.47a1.76,1.76,0,1,1,3.43.83l-.35,1.47A1.77,1.77,0,0,1,583.79,665.81Z"/><path class="cls-1" d="M590.14,635.34a6.18,6.18,0,1,1,6.18-6.17A6.18,6.18,0,0,1,590.14,635.34Zm0-8.81a2.64,2.64,0,1,0,2.64,2.64A2.64,2.64,0,0,0,590.14,626.53Z"/><path class="cls-1" d="M500,137.45c-200.25,0-362.57,162.32-362.57,362.57S299.77,862.55,500,862.55,862.55,700.27,862.55,500,700.23,137.45,500,137.45Zm.14,714.92c-194.29,0-351.8-157.51-351.8-351.8s157.51-351.8,351.8-351.8S852,306.28,852,500.57,694.45,852.37,500.16,852.37Z"/></svg>