<svg id="Layer_1" data-name="Layer 1" xmlns="http://www.w3.org/2000/svg" viewBox="0 0 1000 1000"><defs><style>.cls-1{fill:#9e804a;}</style></defs><path class="cls-1" d="M699.41,527.88a8.34,8.34,0,0,1-3.73-2.45c-2.81,3.43-4.9,9.19-5.72,14.75-.15,1-.24,2-.35,2.89l.06-.09a12,12,0,0,1,5.8-5.48,33.31,33.31,0,0,1,3.9-9.55Z"/><path class="cls-1" d="M703.14,538.76c1.54,1.3,3,3.53,3.87,7.34.23-1,.44-1.91.59-2.9,1-6.82.58-12.86-1.09-16.61a7.51,7.51,0,0,1-4.55,1.74C702.92,530.17,703.47,533.94,703.14,538.76Z"/><path class="cls-1" d="M692.18,553.81a29.39,29.39,0,0,1,3.5-6.93c.29-.51.62-1,.87-1.35a3.7,3.7,0,0,0,.34-.5l.09-3.47,1.93,3.1a8.27,8.27,0,0,1,1.15,3.07,29.7,29.7,0,0,1-.4,8.14,9.28,9.28,0,0,1,1.66,2.3,15.77,15.77,0,0,1,1.48,5.58c.32-1,.61-2,.84-3.07A38.79,38.79,0,0,0,704.91,547c-1.18-6-4.08-7.44-5.71-7.73-.15,0-.69-.07-.86-.07-1.75,0-4.34.87-6.76,5a36.93,36.93,0,0,0-5.26,12c-.18.84-.34,1.71-.51,2.57C688.22,555.61,690.37,554.31,692.18,553.81Z"/><path class="cls-1" d="M687.57,569.85a44.48,44.48,0,0,1,4.73-8.11l.27-.37-.11-2.65,2.07,2.1c1.08,1.09,2,5.6.26,11.86a9.45,9.45,0,0,1,1.37,2.35,16.62,16.62,0,0,1,1,5.59c.39-.91.76-1.84,1.08-2.8,2.84-7.05,3.24-14.33,1-18.62A5.8,5.8,0,0,0,695.6,556a11.13,11.13,0,0,0-1.26-.16c-4.27,0-8.62,5.36-12.94,15.92-.24.75-.52,1.68-.8,2.69C683,571.7,685.28,570.24,687.57,569.85Z"/><path class="cls-1" d="M690.07,597.08c.5-.9,1-1.82,1.39-2.73,3.39-6.47,4.42-13.87,2.58-18.47a5.69,5.69,0,0,0-3.35-3.57,5.41,5.41,0,0,0-4.4.3l3,4.58c.9,1.37,1.33,6-.75,11.71a8.59,8.59,0,0,1,1,2.17A16,16,0,0,1,690.07,597.08Z"/><path class="cls-1" d="M687,577.7l.09-.11L686,572.78c-2.69,1.49-6.13,5.32-10.7,14-.38.83-.73,1.69-1.07,2.56a13,13,0,0,1,7.32-3.74A43.75,43.75,0,0,1,687,577.7Z"/><path class="cls-1" d="M680.32,593l.32-.32,1-1.35.88,1.43c.86,1.32.81,6.05-1.68,11.68a8.92,8.92,0,0,1,.85,2.13,15.45,15.45,0,0,1,0,6.16c.61-.89,1.21-1.78,1.75-2.66,3.8-6.51,5.39-13.87,3.94-18.31a5.4,5.4,0,0,0-3-3.56,5.22,5.22,0,0,0-2.21-.47c-4.15,0-9.22,4.75-14.28,13.39-.5.8-1,1.64-1.39,2.48a13.36,13.36,0,0,1,7.51-3A40.94,40.94,0,0,1,680.32,593Z"/><path class="cls-1" d="M665.35,615a34.42,34.42,0,0,1,7.48-7.49l1.07-.75.66,1.12c.76,1.5.11,6-2.7,11.39a8.78,8.78,0,0,1,.69,2.17,14.78,14.78,0,0,1-.55,6.29c.75-.88,1.47-1.76,2.13-2.65,4.29-6.62,6.4-13.7,5.32-18a5.24,5.24,0,0,0-5.24-4.3c-6.64,0-13.5,10.1-14.81,12.13-.56.74-1.07,1.51-1.58,2.29a14.08,14.08,0,0,1,7.07-2.29C665.05,615,665.19,615,665.35,615Z"/><path class="cls-1" d="M663.73,621.8l1.16-.64.51,1.21c.63,1.69-.67,6.1-3.74,11a8.38,8.38,0,0,1,.57,2.39,14.39,14.39,0,0,1-1,6.06c.77-.77,1.54-1.58,2.29-2.45,3.67-4.89,7.7-12.47,6.83-17.51a5.35,5.35,0,0,0-2.28-3.72,5.56,5.56,0,0,0-3.14-.9c-5,0-11.27,5.43-15.27,10.82-.68.78-1.33,1.59-2,2.42a15.26,15.26,0,0,1,7.76-1.76A32.26,32.26,0,0,1,663.73,621.8Z"/><path class="cls-1" d="M644.54,641.27a29,29,0,0,1,9-6l1.12-.41L655,636c.51,1.69-1.16,5.85-4.75,10.54a8.3,8.3,0,0,1,.39,2.67,14.6,14.6,0,0,1-1.49,5.73c.8-.71,1.59-1.44,2.35-2.23,5.55-6.15,8.79-12.58,8.45-16.76a5.53,5.53,0,0,0-2-4,5.37,5.37,0,0,0-3.39-1c-4.39,0-10.71,3.57-16,9.41-.49.51-1.16,1.23-1.9,2.08a16.46,16.46,0,0,1,5.95-1.32A9.16,9.16,0,0,1,644.54,641.27Z"/><path class="cls-1" d="M632.62,653A35.21,35.21,0,0,1,642,647.8l1.18-.43.3,1.22c.38,1.52-1.24,5.56-5.6,10.2a9,9,0,0,1,.13,2.8,15.22,15.22,0,0,1-1.92,5.48c.83-.64,1.64-1.31,2.41-2,6.06-5.39,9.86-11.46,9.93-15.87a5.64,5.64,0,0,0-1.72-4.4,5.73,5.73,0,0,0-4-1.41c-4.16,0-10.32,3.17-16.06,8.27-.64.61-1.3,1.25-2,1.9a17.21,17.21,0,0,1,5.18-.94A9.52,9.52,0,0,1,632.62,653Z"/><path class="cls-1" d="M619.86,663.73a40.51,40.51,0,0,1,9.57-4.47l1.19-.32.23,1.21c.31,1.73-1.81,5.79-6.43,9.84a9.38,9.38,0,0,1-.15,2.74,15.5,15.5,0,0,1-2.25,5.16,28.86,28.86,0,0,0,2.42-1.67c6.36-4.49,10.76-10.32,11.28-14.88a5.49,5.49,0,0,0-5.9-6.47c-5.57,0-13.06,4.88-16,7-.73.59-1.35,1.14-2,1.71a18.18,18.18,0,0,1,4.17-.61A9.68,9.68,0,0,1,619.86,663.73Z"/><path class="cls-1" d="M606,673.4a45.75,45.75,0,0,1,9.92-3.82l1.23-.26.13,1.25c.16,1.52-1.93,5.61-7.18,9.42a9.75,9.75,0,0,1-.42,2.71,16.1,16.1,0,0,1-2.63,4.9c.85-.46,1.7-.9,2.52-1.43,6.62-3.74,11.48-9.18,12.45-13.89a5.74,5.74,0,0,0-.86-4.81,6.13,6.13,0,0,0-5.23-2.25c-3.66,0-9.08,2-15.69,5.68-.79.52-1.77,1.18-2.82,2C601.38,672.2,604.14,672.53,606,673.4Z"/><path class="cls-1" d="M591.77,681.75c4.19-1.62,7.37-2.46,9.43-2.46l1.89.05-.31,1.48c-.66,1.88-3.22,5.2-7.71,7.92a9.39,9.39,0,0,1-.55,2.38,15.85,15.85,0,0,1-3.27,4.94c.92-.38,1.84-.76,2.73-1.21,6.69-2.93,12.11-8.07,13.55-12.81a5.62,5.62,0,0,0-.4-4.87c-.6-1-2.16-2.43-6-2.43-3.19,0-8,1-15,4.06-.83.42-1.65.88-2.45,1.35.51,0,1-.13,1.55-.13A11.52,11.52,0,0,1,591.77,681.75Z"/><path class="cls-1" d="M585.16,687.2c.8,0,1.28,0,1.61.06l1.6.14-.66,1.46c-.77,1.72-3.57,4.77-8.35,7.23a8.51,8.51,0,0,1-.66,2.18,15.21,15.21,0,0,1-3.82,4.83c1-.29,2-.6,3-1,7-2.69,12.84-7.43,14.49-11.81a5.56,5.56,0,0,0-.07-4.67c-1.14-2.2-3.61-3.36-7.16-3.36-4.5,0-10,1.73-13.79,3.18-.89.32-1.78.69-2.66,1.08,3.73.12,6.19,1.07,7.8,2.32A31,31,0,0,1,585.16,687.2Z"/><path class="cls-1" d="M567.93,693.68a13,13,0,0,1,2.25.2l.57.08,2.9-1.14-1.6,2.77c-.83,1.52-3.84,4.27-9,6.53a8.24,8.24,0,0,1-.83,2.14,14.75,14.75,0,0,1-4.38,4.57c1.11-.21,2.22-.45,3.35-.75,7.4-2.46,13.62-6.79,15.41-10.75a5.41,5.41,0,0,0,.22-4.45c-1.12-2.68-4.21-4.1-8.92-4.1A38.91,38.91,0,0,0,556.07,691c-.91.24-1.82.52-2.71.81a13.63,13.63,0,0,1,7.34,3A30.5,30.5,0,0,1,567.93,693.68Z"/><path class="cls-1" d="M549.67,698.68a24.79,24.79,0,0,1,4.29.37c.34.06.53.16.75.1a.86.86,0,0,0-.65.43l2,1c-.59,1.48-4,4.1-9.74,6.11a8.51,8.51,0,0,1-1.08,2.31,14.53,14.53,0,0,1-4.53,4c1.06-.13,2.13-.27,3.24-.48,5.93-1.53,13.82-4.91,16.3-9.39a5.34,5.34,0,0,0,.55-4.34c-1-3.24-5-5-11.15-5A38.72,38.72,0,0,0,540.2,695c-.92.18-1.87.39-2.81.62a14.44,14.44,0,0,1,7.05,3.53A32.33,32.33,0,0,1,549.67,698.68Z"/><path class="cls-1" d="M528.15,702.25c.69,0,1.38-.16,2.05-.16a31.22,31.22,0,0,1,7.49.88l.48.11,2.56-1.51-1.23,3.09c-.65,1.64-4.57,3.82-10.34,5.2-.77,1.84-2.43,3.89-5.72,5.79.94-.07,1.9-.07,2.82-.22,8.33-1.29,14.72-4.17,17.11-7.69a5.52,5.52,0,0,0,1-4.47c-.88-3.81-6.49-6.1-14-6.1a41.49,41.49,0,0,0-6.49.53c-1,.16-1.93.34-2.86.53l.1,0C524.83,699.11,526.94,700.68,528.15,702.25Z"/><path class="cls-1" d="M511.52,703.93a30.2,30.2,0,0,1,7.67,1.21c.58.14,1.11.31,1.53.45.2.06.35.12.48.15l3.54-1.25-2.47,3.1a8.28,8.28,0,0,1-2.58,2,30.23,30.23,0,0,1-7.87,2,9.19,9.19,0,0,1-1.41,1.94,15.49,15.49,0,0,1-5.1,3.41h.33c.94,0,1.9,0,2.75-.12A38.3,38.3,0,0,0,521.82,714c5.42-2.9,5.89-6.1,5.68-7.74s-1.39-4.52-7-5.82a34.83,34.83,0,0,0-10.62-1.51c-.73,0-1.47,0-2.36.07s-1.81.2-2.7.31C508.07,700.48,510.27,702,511.52,703.93Z"/><path class="cls-1" d="M494.8,704.29a48,48,0,0,1,9.28,2.05l.56.19,2.18-.28-1.27,1.93c-.81,1.51-5.21,3.64-11.21,3.85a13.6,13.6,0,0,1-6.74,4.56c.94.11,1.89.21,2.86.26s2,.13,2.92.13c6.6,0,12.49-1.91,15.38-5a5.59,5.59,0,0,0,1.74-4.22c-.27-4.86-6.36-7.66-19.17-8.82-.74,0-1.49-.06-2.23-.06-.24,0-.47,0-.71,0C491.61,700.4,493.72,702.19,494.8,704.29Z"/><path class="cls-1" d="M478.09,703.21a44.53,44.53,0,0,1,9,2.74c.27.12.47.2.59.24h2.11l-1.34,1.74c-.65,1-4.06,3-10.47,3-.31,0-.62-.06-.94-.07-1.49,1.87-4,3.23-7.32,4,1,.21,2,.4,3,.56a33.64,33.64,0,0,0,5.23.41c8.71,0,15.33-3.37,15.43-7.84.14-4.9-6-8.36-18.28-10.3-.94-.15-1.85-.25-2.75-.33A13.16,13.16,0,0,1,478.09,703.21Z"/><path class="cls-1" d="M461.41,700.65a36.09,36.09,0,0,1,9.61,4l1.13.69-.72,1.1c-.85,1-4.05,2-8.52,2-1,0-2-.06-3-.15-1.38,1.52-3.72,2.88-7.7,3.39,1.06.35,2.12.67,3.14.93a40.56,40.56,0,0,0,7.56.72c8,0,13-2.42,13.48-6.48.69-6.14-8.86-10.16-17.25-11.73-.9-.23-1.77-.35-2.65-.53A13.75,13.75,0,0,1,461.41,700.65Z"/><path class="cls-1" d="M445.07,696.71a32,32,0,0,1,9.15,4.83l1.2.8-.84,1.14c-.62.57-2.54,1.24-5.94,1.24a35.36,35.36,0,0,1-5.58-.54c-1.48,1.46-4,2.68-8.05,2.83,1,.42,2,.81,3.1,1.17a43.39,43.39,0,0,0,10.53,1.44c8.53,0,10.46-3.33,10.85-5.32,1.13-5.71-7.3-11-16.2-13.24-.89-.3-1.77-.56-2.65-.8A14,14,0,0,1,445.07,696.71Z"/><path class="cls-1" d="M437.83,697.18l1.07.89-.9,1a6.89,6.89,0,0,1-3.34.51,37.61,37.61,0,0,1-8.07-1c-1.52,1.28-3.87,2.33-7.62,2.33-.21,0-.45-.05-.67-.05.95.46,1.92.89,2.92,1.28a40.7,40.7,0,0,0,13,2.62c6.41,0,8.19-2.85,8.68-4.55,1.58-5.49-6.62-11.69-15.14-14.74-.82-.31-1.74-.63-2.69-1a14.25,14.25,0,0,1,4.11,6.83A32.35,32.35,0,0,1,437.83,697.18Z"/><path class="cls-1" d="M422,691.34l.89.95-1,.87a5.78,5.78,0,0,1-3,.6,24.74,24.74,0,0,1-8.55-1.9,11.22,11.22,0,0,1-6.26,1.61,22.51,22.51,0,0,1-2.25-.22,31.72,31.72,0,0,0,2.9,1.49c5,2.51,10.12,3.93,14.16,3.93,5.43,0,7.19-2.5,7.77-4,2-5.18-5.63-11.77-14-16-.82-.35-1.51-.59-2.27-.89a13.35,13.35,0,0,1,3.42,7.11A37.22,37.22,0,0,1,422,691.34Z"/><path class="cls-1" d="M406.28,683.6c.16.19.28.32.35.39l1.35.93-1.41.89a4.06,4.06,0,0,1-2,.33,23.86,23.86,0,0,1-9.57-2.51,10.82,10.82,0,0,1-5.07,1.12,18.92,18.92,0,0,1-3.41-.4c.85.59,1.73,1.15,2.64,1.67,5.11,3.3,10.54,5.17,15,5.17,4.63,0,6.33-2.11,6.93-3.36,3-6.11-7.82-14-12.59-17.1-.75-.42-1.56-.85-2.4-1.28,1.84,2.52,3,5.12,3,7.66A44.34,44.34,0,0,1,406.28,683.6Z"/><path class="cls-1" d="M391.56,675.13a3.87,3.87,0,0,0,.25.36l2.14,1.37-2.59.56a3.85,3.85,0,0,1-1,.11,21.55,21.55,0,0,1-10.07-3.36,9.7,9.7,0,0,1-3.76.73,17.33,17.33,0,0,1-4.51-.68c.76.64,1.54,1.25,2.37,1.83,4.95,4,10.9,6.42,15.59,6.42,3.9,0,5.51-1.73,6.12-2.76,3.28-5.5-4.76-12.94-11.09-18.06-.49-.35-1.29-.89-2.25-1.5,1.62,2.68,2.58,5.39,2.28,7.94A37.88,37.88,0,0,1,391.56,675.13Z"/><path class="cls-1" d="M371.72,657.84a36.84,36.84,0,0,1,6,7.57c.1.17.17.29.22.36l2.11,1.56-2.72.34a4.49,4.49,0,0,1-.79.06c-2.37,0-6.13-1.36-10-4.17a8.85,8.85,0,0,1-2.74.43,16.25,16.25,0,0,1-5.57-1.18c.71.73,1.45,1.44,2.24,2.14,5,4.67,11.25,7.67,16,7.67,3.22,0,4.69-1.4,5.27-2.24,3.79-5.29-3.59-13.29-9.46-18.84-.71-.64-1.43-1.24-2.16-1.81A13.19,13.19,0,0,1,371.72,657.84Z"/><path class="cls-1" d="M359.27,646.34c4.21,4.94,5.66,8.48,5.67,9.32l0,1.16h-1.16c-1.85,0-5.77-1.39-10-5a8.8,8.8,0,0,1-1.94.21,14.78,14.78,0,0,1-6.29-1.68c.65.81,1.34,1.62,2.07,2.44,5.21,5.39,11.58,8.89,16.2,8.89a5.53,5.53,0,0,0,4.5-1.84c4.77-5.6-4.75-16.29-7.78-19.44-.67-.75-1.36-1.46-2.06-2.13A13.65,13.65,0,0,1,359.27,646.34Z"/><path class="cls-1" d="M347.87,634a34.87,34.87,0,0,1,4.85,8.62H353v4.76l-2.27,0v-2.61c-2.16-.56-5.42-2.56-8.75-5.74a7.71,7.71,0,0,1-1.2.2,13.53,13.53,0,0,1-6.91-2.33c.63,1,1.28,1.91,1.94,2.78,5.36,6.14,11.68,10.15,16.05,10.15a5.33,5.33,0,0,0,3.91-1.49c4.2-4.17-.21-13.26-6.09-19.95-.56-.76-1.18-1.51-1.82-2.26A13.73,13.73,0,0,1,347.87,634Z"/><path class="cls-1" d="M337.62,620.68a33,33,0,0,1,4,9.08h.23l0,1.13,0,3.59h-2.27v-2.68c-1.9-.65-5-2.8-8.24-6.49a6.29,6.29,0,0,1-.72.11,12.57,12.57,0,0,1-7.3-2.91c.53,1,1.09,1.92,1.71,2.87,4,5.3,10.47,11.55,15.68,11.55a5.2,5.2,0,0,0,3.42-1.18c4.45-3.75,1.18-13.15-4.35-20.51-.51-.78-1.05-1.57-1.63-2.35A14,14,0,0,1,337.62,620.68Z"/><path class="cls-1" d="M328.53,606.6c2.66,5.32,3.05,9.42,2.93,10.57l-.13,1.34-1.3-.36c-1.51-.41-4.67-2.74-8.09-7.41h0c-2.71,0-5.34-1.36-7.73-3.4.45.94.93,1.88,1.47,2.81,3.83,6.26,9.79,13,15,13a5.35,5.35,0,0,0,3.13-1c4.62-3.31,2.09-13.27-2.65-21-.51-.87-1-1.68-1.53-2.48A14.25,14.25,0,0,1,328.53,606.6Z"/><path class="cls-1" d="M322.71,602.58l-.23,1.28-1.24-.41c-1.54-.5-4.69-3.15-7.62-8.16a12.85,12.85,0,0,1-7.45-4,30.6,30.6,0,0,0,1.3,2.86c3.19,6.94,9.06,14.34,14.43,14.34a5.27,5.27,0,0,0,2.73-.73c4.76-2.82,2.94-12.7-1-21.24-.43-.81-.84-1.52-1.25-2.26a13.36,13.36,0,0,1-1.78,7.72C322.62,597.36,322.94,601.33,322.71,602.58Z"/><path class="cls-1" d="M315.23,587.23l-.27,1.35-1.28-.52c-1.61-.67-4.64-3.6-7-8.82a13.24,13.24,0,0,1-6.94-4.5c.29.94.61,1.88,1,2.8,3,8.92,8.86,15.6,13.75,15.6a5.09,5.09,0,0,0,2.24-.5c6.09-2.95,2.6-15.82.81-21.22-.35-.87-.71-1.65-1.06-2.45a12.8,12.8,0,0,1-2.48,7.72C315.45,582.32,315.49,586,315.23,587.23Z"/><path class="cls-1" d="M309,571.3l-.38,1.4-1.27-.7c-1.7-.93-4.48-4.08-6.28-9.24a13.57,13.57,0,0,1-6.36-5.06c.19.93.38,1.87.62,2.82,2,9.22,7.83,16.7,12.94,16.7a4.73,4.73,0,0,0,1.71-.3c5.89-2.2,4.51-12.34,2.67-20.92-.25-1-.54-1.89-.84-2.81-.44,3.51-1.52,6.06-3.21,7.72C309.66,567.07,309.35,570,309,571.3Z"/><path class="cls-1" d="M304.2,555.09l-.53,1.27-1.15-.78c-1.53-1-4.06-4.44-5.5-9.69-2.36-.93-4.36-3-6-5.77.09,1,.21,2,.37,3.08,1.43,9.58,6.91,17.67,12,17.67a7.62,7.62,0,0,0,1.27-.18c4.72-1.31,6.2-8.21,4.4-20.51-.13-.92-.33-1.85-.53-2.77a13.09,13.09,0,0,1-3.88,7.11C305.2,550.1,304.83,553.6,304.2,555.09Z"/><path class="cls-1" d="M297,508.44a7.25,7.25,0,0,1-4-1.24c-3.46,3.76-4.33,12-4,18.53,1,8.91,5.2,18.45,10.86,18.45.19,0,.74-.06.93-.09,6-1.17,7-11.49,6-20-.34-6.9-2.34-13.8-5.68-17a7.61,7.61,0,0,1-4.08,1.32Zm4.92,16.09c.87,7.4-.23,12.44-1.18,14l-.71,1.16-1-.89c-1.61-1.41-4.31-6.15-5.16-13.48-.42-8.05,1.27-13.12,1.8-14.48l.44-1.16,1.11.54C298.82,511,301.46,516.12,301.88,524.53Z"/><path class="cls-1" d="M301.56,490.36c-.68,5.07-2.25,8.8-3.64,10.26l-.95,1-.8-1.12c-1.14-1.6-2.22-5.41-2.39-10.51a8.34,8.34,0,0,1-1.89-1.73,14.28,14.28,0,0,1-2.47-5.5c-.2,1.07-.38,2.15-.5,3.22-.32,6.1.55,14.63,4.09,18.34a5.34,5.34,0,0,0,3.95,1.84h0c5.8,0,9.3-9.35,9.75-18.55.11-1,.19-1.93.25-2.92A14.39,14.39,0,0,1,301.56,490.36Z"/><path class="cls-1" d="M303.54,473.94c-1.33,5.41-3.48,8.64-4.6,9.68l-1,.95-.72-1.2c-1-1.61-1.65-5.5-1.3-10.71-1.54-1.3-3-3.53-3.87-7.32-.23.94-.44,1.9-.59,2.88-1.24,8.33-.41,15.29,2.23,18.62a5.56,5.56,0,0,0,4,2.24l.35,0c5.48,0,9.79-9.21,11.07-17.87.15-1,.24-1.92.34-2.86l0,.06C307.49,471.64,305.41,473.21,303.54,473.94Z"/><path class="cls-1" d="M306.85,457.6a29.54,29.54,0,0,1-3.48,6.93,10.15,10.15,0,0,1-1.69,2.2l-1.05.95-.71-1.22a9.21,9.21,0,0,1-1-2.77,30.11,30.11,0,0,1,.41-8.14,9,9,0,0,1-1.66-2.3,15.93,15.93,0,0,1-1.48-5.56,31.23,31.23,0,0,0-.85,3.05,38.75,38.75,0,0,0-1.26,13.68c1.18,6.05,4.08,7.44,5.7,7.72.15,0,.69.07.87.07,1.75,0,4.34-.87,6.77-5a37.12,37.12,0,0,0,5.25-12c.17-.82.34-1.67.51-2.54C310.81,455.81,308.66,457.11,306.85,457.6Z"/><path class="cls-1" d="M311.48,441.53c-2.91,6.19-5.11,8.21-5.79,8.71l-1.14.84-.57-1.29c-.78-1.71-1.16-5.82.26-11a9,9,0,0,1-1.36-2.36,16.32,16.32,0,0,1-1-5.58c-.39.9-.76,1.83-1.08,2.79-2.84,7-3.25,14.32-1.06,18.62a5.75,5.75,0,0,0,3.69,3.23,11,11,0,0,0,1.27.16c4.28,0,8.63-5.35,12.93-15.91.24-.73.51-1.62.79-2.59C316.06,439.75,313.83,441.15,311.48,441.53Z"/><path class="cls-1" d="M311.12,434.13l-1.21.74-.46-1.34c-.65-1.89-.72-6.1,1.08-11a9.61,9.61,0,0,1-1-2.18,16,16,0,0,1-.53-6c-.5.91-1,1.81-1.38,2.72-3.4,6.47-4.43,13.87-2.59,18.47a5.66,5.66,0,0,0,3.34,3.56,5.47,5.47,0,0,0,1.79.3c4.15,0,8.11-4.27,13.66-14.73.39-.84.73-1.71,1.07-2.57a13.1,13.1,0,0,1-7.32,3.75C314.35,431.31,312.31,433.4,311.12,434.13Z"/><path class="cls-1" d="M317.78,418.53l-1.27.6-.32-1.37c-.43-1.83-.11-5.94,2-10.79a9.45,9.45,0,0,1-.85-2.14,15.35,15.35,0,0,1,0-6.14c-.74,1.07-1.37,2-1.76,2.65-3.78,6.5-5.37,13.86-3.93,18.29a5.51,5.51,0,0,0,3,3.6,5.41,5.41,0,0,0,2.19.46c4.15,0,9.22-4.76,14.27-13.4.5-.8.95-1.64,1.39-2.47a13.3,13.3,0,0,1-7.5,3C321.93,415.38,319.33,417.8,317.78,418.53Z"/><path class="cls-1" d="M333.63,396.38c-3.07,4-6.12,6.51-7.91,7.13l-1.33.46-.17-1.39c-.2-1.52.29-5.4,2.95-10.48a8.62,8.62,0,0,1-.69-2.15,15.08,15.08,0,0,1,.56-6.32c-.75.88-1.48,1.77-2.14,2.66-4.3,6.62-6.41,13.71-5.32,18a5.41,5.41,0,0,0,2.61,3.63,5.35,5.35,0,0,0,2.63.66c6.66,0,13.51-10.1,14.81-12.12.56-.74,1.07-1.52,1.58-2.29a14.08,14.08,0,0,1-7.08,2.29C334,396.45,333.8,396.39,333.63,396.38Z"/><path class="cls-1" d="M343.54,382.71c-3.33,3.74-6.67,6-8.66,6.48l-1.36.33,0-1.41c-.05-2,1.23-5.72,3.9-10a8.47,8.47,0,0,1-.59-2.45,14.66,14.66,0,0,1,1-6c-.76.77-1.53,1.58-2.28,2.44-3.66,4.89-7.69,12.47-6.83,17.52a5.39,5.39,0,0,0,2.29,3.73,5.56,5.56,0,0,0,3.12.89c5,0,11.28-5.44,15.28-10.83.63-.73,1.24-1.49,1.83-2.25a15.62,15.62,0,0,1-6.59,1.78A8.26,8.26,0,0,1,343.54,382.71Z"/><path class="cls-1" d="M354.42,370.13c-3.66,3.37-7.19,5.26-9.21,5.54l-1.39.19.1-1.4c.14-1.89,1.77-5.49,4.85-9.54a8.89,8.89,0,0,1-.4-2.71,14.91,14.91,0,0,1,1.49-5.73c-.8.7-1.59,1.44-2.35,2.23-5.55,6.14-8.8,12.57-8.45,16.76a5.44,5.44,0,0,0,2,4,5.66,5.66,0,0,0,3.58,1.14c4.32,0,10.66-3.83,15.78-9.51.49-.52,1.16-1.24,1.91-2.09a16.51,16.51,0,0,1-6,1.32A9.76,9.76,0,0,1,354.42,370.13Z"/><path class="cls-1" d="M366.36,358.37c-4,3-7.58,4.61-9.59,4.77l-1.38.11.17-1.38c.24-2,2.16-5.45,5.65-9.19a8.71,8.71,0,0,1-.15-2.85,15.16,15.16,0,0,1,1.92-5.48c-.82.63-1.63,1.3-2.4,2-6.07,5.4-9.87,11.47-9.93,15.87a5.37,5.37,0,0,0,5.73,5.82c4.16,0,10.31-3.17,16.05-8.28.64-.6,1.29-1.24,1.95-1.9a17.21,17.21,0,0,1-5.18.94A9.14,9.14,0,0,1,366.36,358.37Z"/><path class="cls-1" d="M379.17,347.68c-3.92,2.38-7.57,3.9-9.8,4l-1.41,0,.25-1.39c.28-1.52,2-5,6.4-8.88a9.48,9.48,0,0,1,.14-2.76,15.84,15.84,0,0,1,2.24-5.13c-.81.54-1.64,1-2.39,1.65-6.36,4.48-10.77,10.31-11.29,14.88a5.49,5.49,0,0,0,5.89,6.47c5.57,0,13.08-4.88,16.05-7,.67-.54,1.37-1.13,2.07-1.72a18.8,18.8,0,0,1-4.24.62A9.68,9.68,0,0,1,379.17,347.68Z"/><path class="cls-1" d="M392.82,338.13a29.44,29.44,0,0,1-9,3.12l-1.68,4.11-.46-4.52c-.15-1.52,1.95-5.61,7.2-9.42a9.33,9.33,0,0,1,.41-2.7,16.17,16.17,0,0,1,2.63-4.89c-.85.46-1.7.89-2.51,1.42C382.82,329,378,334.43,377,339.14a5.76,5.76,0,0,0,.86,4.82,6.19,6.19,0,0,0,5.24,2.24c3.66,0,9.09-2,15.7-5.68.64-.42,1.4-.93,2.21-1.51a19.42,19.42,0,0,1-3.16.29A10.23,10.23,0,0,1,392.82,338.13Z"/><path class="cls-1" d="M407.26,329.66c-4.2,1.62-7.38,2.46-9.43,2.46h-.32l-.18-1.13,0,1.13H395.7l.54-1.52c.68-1.89,3.25-5.22,7.72-7.93a9.37,9.37,0,0,1,.56-2.37,15.68,15.68,0,0,1,3.27-4.94c-.92.38-1.84.76-2.74,1.21-6.69,2.93-12.11,8.07-13.55,12.81a5.68,5.68,0,0,0,.4,4.88c.79,1.27,2.46,2.77,5.93,2.77s8.18-1.4,15.14-4.41c.83-.43,1.65-.89,2.46-1.35-.52,0-1.05.12-1.55.12A11.48,11.48,0,0,1,407.26,329.66Z"/><path class="cls-1" d="M413.88,324.23c-.45,0-.82,0-1.1-.05l-.33,0v0L410,325l1.34-2.41c.77-1.73,3.57-4.78,8.35-7.25a9,9,0,0,1,.66-2.17,15.29,15.29,0,0,1,3.84-4.84c-1,.29-2,.6-3,1-7,2.69-12.84,7.44-14.49,11.82a5.46,5.46,0,0,0,.07,4.66c1.13,2.2,3.61,3.36,7.17,3.36,4.48,0,10-1.72,13.79-3.16.9-.33,1.78-.71,2.66-1.1-3.73-.12-6.19-1.06-7.8-2.31A31,31,0,0,1,413.88,324.23Z"/><path class="cls-1" d="M428.43,317.5h-.36v0l-2.73.91,1.66-2.58c.82-1.52,3.83-4.27,8.95-6.53a8.47,8.47,0,0,1,.83-2.14,14.8,14.8,0,0,1,4.27-4.49c-1.07.21-2.12.37-3.24.66-7.51,2.51-13.58,6.75-15.4,10.76a5.34,5.34,0,0,0-.21,4.44c1.11,2.69,4.19,4.1,8.91,4.1A39.23,39.23,0,0,0,443,320.47c.92-.24,1.83-.53,2.73-.82a13.57,13.57,0,0,1-7.42-3A45.32,45.32,0,0,1,428.43,317.5Z"/><path class="cls-1" d="M449.37,312.73a26.15,26.15,0,0,1-4.3-.36,7,7,0,0,0-.76-.1.89.89,0,0,0,.65-.41l-.65-.5v.16l-1.37-.7c.59-1.47,3.95-4.11,9.75-6.11a8.56,8.56,0,0,1,1.08-2.32,14.32,14.32,0,0,1,4.52-4c-1.06.13-2.12.26-3.23.47-5.93,1.52-13.82,4.9-16.3,9.38a5.36,5.36,0,0,0-.56,4.34c1.05,3.25,5,5,11.17,5a38.11,38.11,0,0,0,9.45-1.27c.95-.18,1.91-.39,2.86-.63a14.58,14.58,0,0,1-7.13-3.51A32.84,32.84,0,0,1,449.37,312.73Z"/><path class="cls-1" d="M470.87,309.16c-.68,0-1.37.17-2.05.17a30.7,30.7,0,0,1-7.36-.87l-.55-.12-2.75,1.83,1.36-3.4c.66-1.65,4.58-3.83,10.34-5.22.78-1.83,2.44-3.88,5.73-5.79-.94.07-1.86.08-2.81.23-8.33,1.29-14.73,4.16-17.12,7.68a5.56,5.56,0,0,0-1,4.48c.86,3.75,6.27,6.08,14.11,6.08a41.33,41.33,0,0,0,6.33-.51c1-.16,1.93-.35,2.87-.53l-.11,0C474.2,312.31,472.1,310.73,470.87,309.16Z"/><polygon class="cls-1" points="477.75 305.66 477.75 304.61 477.74 305.66 477.75 305.66"/><path class="cls-1" d="M487.51,307.48a30.5,30.5,0,0,1-7.67-1.21c-.59-.13-1.12-.3-1.54-.43-.24-.08-.43-.15-.57-.18l-3.4,1,2.43-2.8a8.61,8.61,0,0,1,2.57-2,29.74,29.74,0,0,1,7.89-2,9,9,0,0,1,1.41-2,15.56,15.56,0,0,1,5.1-3.39h-.35c-.93,0-1.89,0-2.75.12a38.69,38.69,0,0,0-13.43,2.86c-5.41,2.92-5.88,6.11-5.67,7.74s1.39,4.52,7,5.82a34.82,34.82,0,0,0,10.62,1.52c.74,0,1.48,0,2.37-.07s1.79-.2,2.67-.31C490.94,310.94,488.75,309.4,487.51,307.48Z"/><path class="cls-1" d="M504.22,307.12a47.67,47.67,0,0,1-9.17-2c-.27-.09-.45-.16-.58-.19h-1.88l.9-1.67c.8-1.51,5.22-3.64,11.23-3.85a10,10,0,0,1,1.76-1.95,15.86,15.86,0,0,1,4.82-2.62c-.9-.1-1.8-.19-2.73-.24s-2-.13-3-.13c-6.49,0-12.41,1.87-15.32,5a5.58,5.58,0,0,0-1.74,4.23c.26,4.87,6.35,7.67,19.16,8.81,1,.05,1.94.05,2.91,0C507.41,311,505.3,309.23,504.22,307.12Z"/><path class="cls-1" d="M520.94,308.2a43.36,43.36,0,0,1-9-2.74c-.22-.09-.38-.17-.5-.21h-2l1.17-1.76c.66-1,4.08-3,10.48-3,.31,0,.62.06.93.07,1.5-1.88,4-3.24,7.33-4-1-.21-2-.39-3-.55a34.11,34.11,0,0,0-5.45-.44c-5.34,0-10.09,1.29-12.88,3.62a5.89,5.89,0,0,0-2.32,4.24c-.17,4.91,6,8.38,18.27,10.31.92.14,1.83.24,2.74.32A13,13,0,0,1,520.94,308.2Z"/><path class="cls-1" d="M537.61,310.76a36.16,36.16,0,0,1-9.62-4l-1.13-.7.73-1.09c.86-1,4.07-2,8.54-2,1,0,2,.05,3,.14,1.38-1.51,3.72-2.88,7.71-3.39-1.07-.35-2.12-.67-3.15-.92a40.55,40.55,0,0,0-7.55-.73c-8,0-13,2.43-13.49,6.48-.7,6.16,8.86,10.17,17.25,11.74.89.23,1.75.35,2.63.52A13.78,13.78,0,0,1,537.61,310.76Z"/><path class="cls-1" d="M554.1,314.75a32.39,32.39,0,0,1-9.27-4.85l-1.41-1,1-1c.63-.57,2.56-1.25,6-1.25a34.28,34.28,0,0,1,5.58.55c1.49-1.46,4-2.68,8-2.84-1-.41-2-.81-3.1-1.17a43.31,43.31,0,0,0-10.52-1.44c-6.33,0-10.19,1.9-10.86,5.32-1.14,5.72,7.29,11,16.2,13.26,1,.32,1.92.6,2.86.85A14.56,14.56,0,0,1,554.1,314.75Z"/><path class="cls-1" d="M561.23,314.27l-1.09-.87.87-1.08a6.78,6.78,0,0,1,3.82-.8,30.59,30.59,0,0,1,7.7,1.21c1.52-1.24,3.86-2.25,7.53-2.25.21,0,.46,0,.69.06q-1.43-.71-2.94-1.29a40.43,40.43,0,0,0-13-2.62c-6.09,0-8.09,2.48-8.7,4.56-1.5,5.28,6.52,11.64,15.15,14.73.83.31,1.76.64,2.71,1a14.27,14.27,0,0,1-4.12-6.84A32.79,32.79,0,0,1,561.23,314.27Z"/><path class="cls-1" d="M577,320.05l-.87-.94.94-.85a5.77,5.77,0,0,1,3-.6,24.83,24.83,0,0,1,8.55,1.9,11.25,11.25,0,0,1,6.26-1.6,22.16,22.16,0,0,1,2.25.21,30.72,30.72,0,0,0-2.91-1.5c-5-2.49-10.12-3.91-14.15-3.91-5.42,0-7.19,2.49-7.77,4-2,5.17,5.63,11.77,14,16,.83.36,1.54.62,2.31.94a13.34,13.34,0,0,1-3.46-7.16A38.17,38.17,0,0,1,577,320.05Z"/><path class="cls-1" d="M592.74,327.81a4.26,4.26,0,0,0-.35-.39l-1.38-1,1.48-.87a4.84,4.84,0,0,1,2.38-.47,21.68,21.68,0,0,1,9.19,2.63,10.93,10.93,0,0,1,5-1.08,18.71,18.71,0,0,1,3.4.4c-.84-.59-1.71-1.15-2.63-1.67-5.09-3.29-10.53-5.17-15-5.17-4.63,0-6.33,2.11-6.94,3.36-2.94,6.12,7.83,14,12.61,17.09.74.42,1.54.85,2.37,1.27-1.83-2.51-3-5.11-3-7.64A44.75,44.75,0,0,1,592.74,327.81Z"/><path class="cls-1" d="M607.47,336.27c-.11-.16-.19-.27-.25-.34L605,334.48l2.74-.49c1.37-.34,6.07.31,11,3.26a9.71,9.71,0,0,1,3.77-.73,17.46,17.46,0,0,1,4.52.68c-.76-.63-1.54-1.25-2.37-1.83-5-4-10.92-6.43-15.6-6.43-3.92,0-5.52,1.73-6.11,2.77-3.29,5.51,4.75,12.94,11.08,18.05.49.35,1.28.88,2.23,1.48-1.62-2.67-2.57-5.38-2.27-7.92A37.43,37.43,0,0,1,607.47,336.27Z"/><path class="cls-1" d="M627.31,353.58c-4.18-4.36-6-7.45-6-8.7l0-.53.77-.66h.38c2.37,0,6.13,1.36,10,4.17a8.87,8.87,0,0,1,2.75-.43,16.25,16.25,0,0,1,5.57,1.18c-.71-.73-1.46-1.45-2.25-2.15-5-4.66-11.25-7.66-16-7.66-3.21,0-4.69,1.41-5.28,2.25-3.79,5.28,3.59,13.27,9.47,18.83.71.63,1.42,1.23,2.15,1.8A13.22,13.22,0,0,1,627.31,353.58Z"/><path class="cls-1" d="M639.76,365.08c-4.25-5-5.67-8.52-5.67-9.35V354.6h1.14c1.85,0,5.77,1.39,10,5a9,9,0,0,1,2-.21,14.9,14.9,0,0,1,6.31,1.72c-.66-.82-1.35-1.64-2.1-2.46-5.21-5.4-11.56-8.91-16.18-8.91a5.55,5.55,0,0,0-4.51,1.84c-4.78,5.61,4.74,16.29,7.77,19.43.67.74,1.36,1.42,2,2.08A13.59,13.59,0,0,1,639.76,365.08Z"/><path class="cls-1" d="M651.15,377.44a31.49,31.49,0,0,1-5-9.39l-.44-1.46,1.51-.08c2,0,5.92,2.07,9.91,5.9a9.2,9.2,0,0,1,1.17-.19,13.61,13.61,0,0,1,6.91,2.32c-.63-1-1.28-1.91-1.93-2.78-5.29-6-11.76-10.14-16.06-10.14a5.41,5.41,0,0,0-3.93,1.49c-4.17,4.17.24,13.26,6.11,19.94.57.76,1.18,1.52,1.82,2.26A13.77,13.77,0,0,1,651.15,377.44Z"/><path class="cls-1" d="M661.41,390.73a31.87,31.87,0,0,1-4.17-9.66l-.32-1.39,1.36-.29c1.62,0,5.36,2.13,9.41,6.71.24,0,.45-.1.69-.1a12.59,12.59,0,0,1,7.29,2.92c-.53-1-1.1-1.92-1.72-2.87-3.94-5.3-10.46-11.56-15.67-11.56a5.22,5.22,0,0,0-3.43,1.19c-4.44,3.75-1.16,13.16,4.37,20.5.36.57.94,1.4,1.61,2.32A14.08,14.08,0,0,1,661.41,390.73Z"/><path class="cls-1" d="M670.5,404.81a32.25,32.25,0,0,1-3.2-10l-.28-1.37,1.36-.24c1.76,0,5.25,2.77,8.71,7.5h0c2.72,0,5.34,1.35,7.73,3.39-.45-.94-.94-1.88-1.48-2.8-3.83-6.27-9.8-13-15-13a5.4,5.4,0,0,0-3.14,1c-4.63,3.29-2.09,13.25,2.65,20.95.51.87,1,1.67,1.52,2.46A14.19,14.19,0,0,1,670.5,404.81Z"/><path class="cls-1" d="M676,409.2l-.09-1.25,1.24-.11c1.67.05,5.17,3,8.31,8.36a9.79,9.79,0,0,1,2.43.66,16.81,16.81,0,0,1,5.1,3.64,29.62,29.62,0,0,0-1.43-3.21c-3.3-7.17-9-14.35-14.43-14.35a5.28,5.28,0,0,0-2.72.73c-4.79,2.83-3,12.72,1,21.25.43.81.84,1.52,1.25,2.25a13.39,13.39,0,0,1,1.78-7.7A37.77,37.77,0,0,1,676,409.2Z"/><path class="cls-1" d="M683.49,425c0-.23,0-.4,0-.49L683,423l1.66.24c1.76.17,5.18,3.44,7.74,9.06a10.17,10.17,0,0,1,2.38.91,17.28,17.28,0,0,1,4.63,3.94,31.44,31.44,0,0,0-1.09-3.23c-2.39-7.17-6.83-13-11.34-14.91a6.75,6.75,0,0,0-2.67-.61,4.55,4.55,0,0,0-2,.43c-6.11,2.94-2.62,15.83-.83,21.23.36.87.71,1.66,1.07,2.46.14-3.11.87-5.8,2.47-7.73A43.54,43.54,0,0,1,683.49,425Z"/><path class="cls-1" d="M689.69,440.94c0-.21,0-.36,0-.46l-1.1-2.46,2.59,1.18c1.8.66,4.82,4,6.72,9.45a13.66,13.66,0,0,1,6.36,5.07c-.18-.93-.37-1.87-.61-2.81-1.53-7-5.54-13.34-10-15.75a7,7,0,0,0-3.2-.93,4.21,4.21,0,0,0-1.5.27c-5.87,2.2-4.49,12.33-2.64,20.91.24.94.53,1.87.83,2.79.45-3.5,1.52-6,3.21-7.7A39.9,39.9,0,0,1,689.69,440.94Z"/><path class="cls-1" d="M694.29,457.34c0-.2,0-.35,0-.47l-1.06-2.13,2.5.73c1.58.46,4.62,4.12,6.24,10a12.91,12.91,0,0,1,6,5.76c-.09-1-.21-2-.37-3.06-1.44-9.58-6.92-17.68-12-17.68a8.32,8.32,0,0,0-1.3.19c-4.71,1.32-6.18,8.22-4.37,20.5.14.92.32,1.85.53,2.78a13.09,13.09,0,0,1,3.88-7.12A43.5,43.5,0,0,1,694.29,457.34Z"/><path class="cls-1" d="M697.11,486.37a38.12,38.12,0,0,1,.69-13.26l.33-1.3,1.26.38c1.8.77,4.88,6.12,5.8,13.78a12.56,12.56,0,0,1,4.88,5.3,52,52,0,0,0,0-5.58c-1-8.91-5.2-18.45-10.86-18.45-.18,0-.75.05-.93.08-6,1.18-7,11.49-6,20a43.49,43.49,0,0,0,.62,5.25A12.9,12.9,0,0,1,697.11,486.37Z"/><path class="cls-1" d="M701.08,487c-6,.59-8,10.76-7.81,19.29-.44,9.4,2.14,19.13,7.93,19.72a4.89,4.89,0,0,0,.49,0c5.92,0,9.07-10.18,9.47-19.64C711,497.13,707.73,487,701.08,487Zm1.48,33.45-.9,1-.86-1.09c-1.15-1.46-3-6.07-2.64-14.05a39.55,39.55,0,0,1,2-13.64l.44-1.25,1.23.46c1.72.94,4.31,6.61,4.48,14.41C706,513.51,704.13,518.68,702.56,520.49Z"/><path class="cls-1" d="M500,137.45c-200.25,0-362.57,162.32-362.57,362.57S299.77,862.55,500,862.55,862.55,700.27,862.55,500,700.23,137.45,500,137.45Zm.14,714.92c-194.29,0-351.8-157.51-351.8-351.8s157.51-351.8,351.8-351.8S852,306.28,852,500.57,694.45,852.37,500.16,852.37Z"/></svg>