<svg id="Layer_1" data-name="Layer 1" xmlns="http://www.w3.org/2000/svg" viewBox="0 0 1000 1000"><defs><style>.cls-1{fill:#9e804a;}</style></defs><path class="cls-1" d="M407.18,646A129.43,129.43,0,0,1,277.9,516.74c0-71.28,58-129.27,129.28-129.27A129.62,129.62,0,0,1,502,429.05a2.71,2.71,0,0,1,0,3.68,123.8,123.8,0,0,0-11.45,14.17,2.71,2.71,0,0,1-2.06,1.17,2.76,2.76,0,0,1-2.2-.91,105.8,105.8,0,1,0,11.4,15.64,2.7,2.7,0,0,1,0-2.77,111.46,111.46,0,0,1,12-16.45,2.6,2.6,0,0,1,2.2-.91,2.69,2.69,0,0,1,2.06,1.17A129.25,129.25,0,0,1,407.18,646Zm0-253.15a123.92,123.92,0,1,0,104.24,57,104.62,104.62,0,0,0-8.27,11.57,111.11,111.11,0,1,1-15.1-20.37,126.34,126.34,0,0,1,8.27-10.14A124.22,124.22,0,0,0,407.18,392.87Z"/><path class="cls-1" d="M592.82,646A129.62,129.62,0,0,1,498,604.43a2.7,2.7,0,0,1,0-3.67,124.78,124.78,0,0,0,11.44-14.17,2.71,2.71,0,0,1,4.26-.26,106,106,0,1,0-11.39-15.64,2.75,2.75,0,0,1,0,2.77,111.82,111.82,0,0,1-12,16.44,2.79,2.79,0,0,1-2.2.92,2.7,2.7,0,0,1-2.06-1.18A129.24,129.24,0,0,1,592.82,387.47c71.28,0,129.28,58,129.28,129.27A129.43,129.43,0,0,1,592.82,646Zm-89.13-43.46a122.43,122.43,0,0,0,89.13,38.05,123.89,123.89,0,1,0-104.25-57,105.77,105.77,0,0,0,8.28-11.58A111,111,0,1,1,512,592.43C509.51,595.76,506.78,599.11,503.69,602.56Z"/><path class="cls-1" d="M416.55,392.87H397.81a2.73,2.73,0,0,1-2.06-.95l-17.17-20.1a2.72,2.72,0,0,1,.36-3.86l16.51-13.37a2.69,2.69,0,0,1,1.7-.6h20.91a2.69,2.69,0,0,1,1.76.64L435.48,368a2.71,2.71,0,0,1,.3,3.81l-17.17,20.11A2.71,2.71,0,0,1,416.55,392.87Zm-17.5-5.41h16.26l14.6-17.11-12.84-11h-19l-13.61,11Z"/><path class="cls-1" d="M433.72,372.77H380.64a2.71,2.71,0,0,1,0-5.41h53.08a2.71,2.71,0,1,1,0,5.41Z"/><path class="cls-1" d="M407.18,372.77a2.76,2.76,0,0,1-2.16-1.08l-10-13.38a2.7,2.7,0,1,1,4.32-3.24l8,10.6L416,355a2.7,2.7,0,0,1,4.19,3.41l-10.88,13.38A2.7,2.7,0,0,1,407.18,372.77Z"/><path class="cls-1" d="M404.57,392.87A2.71,2.71,0,0,1,402,391.1L394.62,371a2.7,2.7,0,1,1,5.07-1.87l7.42,20.1a2.7,2.7,0,0,1-1.6,3.47A2.56,2.56,0,0,1,404.57,392.87Z"/><path class="cls-1" d="M409.79,392.87a2.55,2.55,0,0,1-.93-.17,2.69,2.69,0,0,1-1.6-3.47l7.42-20.1a2.7,2.7,0,1,1,5.07,1.87l-7.42,20.1A2.7,2.7,0,0,1,409.79,392.87Z"/><path class="cls-1" d="M500,137.45c-200.25,0-362.57,162.32-362.57,362.57S299.77,862.55,500,862.55,862.55,700.27,862.55,500,700.23,137.45,500,137.45Zm.14,714.92c-194.29,0-351.8-157.51-351.8-351.8s157.51-351.8,351.8-351.8S852,306.28,852,500.57,694.45,852.37,500.16,852.37Z"/></svg>