<svg id="Layer_1" data-name="Layer 1" xmlns="http://www.w3.org/2000/svg" viewBox="0 0 1000 1000"><defs><style>.cls-1{fill:#9e804a;}</style></defs><path class="cls-1" d="M502.61,674.52C429.5,674.52,370,615,370,541.92c0-60.17,38.64-121.1,88-138.73a2.73,2.73,0,0,1,.94-.16c9.41,0,16.95,3.45,24.25,6.78,6.48,3,12.61,5.75,19.45,5.75,7.26,0,14.59-3.17,21.67-6.23s14.56-6.3,22-6.3a2.73,2.73,0,0,1,.94.16c49.32,17.63,88,78.56,88,138.73C635.23,615,575.74,674.52,502.61,674.52ZM459.38,408.58c-47,17.11-83.82,75.56-83.82,133.34a127.06,127.06,0,1,0,254.11,0c0-57.78-36.77-116.23-83.82-133.34-6.18.13-12.6,2.91-19.37,5.84-7.6,3.29-15.46,6.69-23.87,6.69-8.05,0-15-3.18-21.75-6.26S467.38,408.7,459.38,408.58Zm43.23,247.06A113.72,113.72,0,1,1,616.34,541.92,113.85,113.85,0,0,1,502.61,655.64Zm0-221.9A108.18,108.18,0,1,0,610.79,541.92,108.29,108.29,0,0,0,502.61,433.74Z"/><path class="cls-1" d="M522,400.26H483.23a2.8,2.8,0,0,1-2.11-1l-35.49-41.56a2.81,2.81,0,0,1-.65-2.06,2.77,2.77,0,0,1,1-1.9l34.13-27.66a2.78,2.78,0,0,1,1.75-.61h43.24a2.8,2.8,0,0,1,1.8.66L559.3,353.8a2.79,2.79,0,0,1,.31,3.92l-35.5,41.57A2.8,2.8,0,0,1,522,400.26Zm-37.49-5.56h36.21l32.87-38.49L524.09,331H482.86L451.7,356.28Z"/><path class="cls-1" d="M557.49,358.69H447.74a2.78,2.78,0,0,1,0-5.55H557.49a2.78,2.78,0,1,1,0,5.55Z"/><path class="cls-1" d="M502.62,358.69a2.79,2.79,0,0,1-2.22-1.12l-20.74-27.65a2.77,2.77,0,1,1,4.43-3.33l18.62,24.82L523,326.51a2.77,2.77,0,0,1,4.3,3.5l-22.5,27.65A2.78,2.78,0,0,1,502.62,358.69Z"/><path class="cls-1" d="M497.22,400.25a2.76,2.76,0,0,1-2.6-1.81l-15.34-41.57a2.77,2.77,0,1,1,5.2-1.92l15.34,41.57a2.77,2.77,0,0,1-1.64,3.56A2.7,2.7,0,0,1,497.22,400.25Z"/><path class="cls-1" d="M508,400.26a2.72,2.72,0,0,1-1-.18,2.77,2.77,0,0,1-1.64-3.56L520.76,355a2.77,2.77,0,1,1,5.2,1.92l-15.35,41.57A2.76,2.76,0,0,1,508,400.26Z"/><path class="cls-1" d="M502.61,421.11a34.91,34.91,0,0,1-10.27-1.7,2.76,2.76,0,0,1-1.24-.78l-17.75-19.27a2.78,2.78,0,0,1,2-4.65h54.44a2.77,2.77,0,0,1,2,4.65L514,418.75a2.75,2.75,0,0,1-1.3.79A38,38,0,0,1,502.61,421.11Zm-7.95-6.8c5.86,1.67,9.53,1.72,15.84.09l13-14.15h-41.8Z"/><path class="cls-1" d="M500,137.45c-200.25,0-362.57,162.32-362.57,362.57S299.77,862.55,500,862.55,862.55,700.27,862.55,500,700.23,137.45,500,137.45Zm.14,714.92c-194.29,0-351.8-157.51-351.8-351.8s157.51-351.8,351.8-351.8S852,306.28,852,500.57,694.45,852.37,500.16,852.37Z"/></svg>